<?xml version="1.0" encoding="utf-8" standalone="no"?>
<!DOCTYPE svg PUBLIC "-//W3C//DTD SVG 1.1//EN"
  "http://www.w3.org/Graphics/SVG/1.1/DTD/svg11.dtd">
<svg height="386.034375pt" version="1.1" viewBox="0 0 385.78125 386.034375" width="385.78125pt" xmlns="http://www.w3.org/2000/svg" xmlns:xlink="http://www.w3.org/1999/xlink">
 <metadata>
  <rdf:RDF xmlns:cc="http://creativecommons.org/ns#" xmlns:dc="http://purl.org/dc/elements/1.1/" xmlns:rdf="http://www.w3.org/1999/02/22-rdf-syntax-ns#">
   <cc:Work>
    <dc:type rdf:resource="http://purl.org/dc/dcmitype/StillImage"/>
    <dc:date>2021-11-28T12:56:00.365116</dc:date>
    <dc:format>image/svg+xml</dc:format>
    <dc:creator>
     <cc:Agent>
      <dc:title>Matplotlib v3.4.3, https://matplotlib.org/</dc:title>
     </cc:Agent>
    </dc:creator>
   </cc:Work>
  </rdf:RDF>
 </metadata>
 <defs>
  <style type="text/css">*{stroke-linecap:butt;stroke-linejoin:round;}</style>
 </defs>
 <g id="figure_1">
  <g id="patch_1">
   <path d="M 0 386.034375 
L 385.78125 386.034375 
L 385.78125 0 
L 0 0 
z
" style="fill:none;"/>
  </g>
  <g id="axes_1">
   <g id="patch_2">
    <path d="M 43.78125 348.478125 
L 378.58125 348.478125 
L 378.58125 22.318125 
L 43.78125 22.318125 
z
" style="fill:#ffffff;"/>
   </g>
   <g id="matplotlib.axis_1">
    <g id="xtick_1">
     <g id="line2d_1">
      <defs>
       <path d="M 0 0 
L 0 3.5 
" id="m44c5620700" style="stroke:#000000;stroke-width:0.8;"/>
      </defs>
      <g>
       <use style="stroke:#000000;stroke-width:0.8;" x="58.999432" xlink:href="#m44c5620700" y="348.478125"/>
      </g>
     </g>
     <g id="text_1">
      <!-- 0.0 -->
      <g transform="translate(51.047869 363.076562)scale(0.1 -0.1)">
       <defs>
        <path d="M 2034 4250 
Q 1547 4250 1301 3770 
Q 1056 3291 1056 2328 
Q 1056 1369 1301 889 
Q 1547 409 2034 409 
Q 2525 409 2770 889 
Q 3016 1369 3016 2328 
Q 3016 3291 2770 3770 
Q 2525 4250 2034 4250 
z
M 2034 4750 
Q 2819 4750 3233 4129 
Q 3647 3509 3647 2328 
Q 3647 1150 3233 529 
Q 2819 -91 2034 -91 
Q 1250 -91 836 529 
Q 422 1150 422 2328 
Q 422 3509 836 4129 
Q 1250 4750 2034 4750 
z
" id="DejaVuSans-30" transform="scale(0.015625)"/>
        <path d="M 684 794 
L 1344 794 
L 1344 0 
L 684 0 
L 684 794 
z
" id="DejaVuSans-2e" transform="scale(0.015625)"/>
       </defs>
       <use xlink:href="#DejaVuSans-30"/>
       <use x="63.623047" xlink:href="#DejaVuSans-2e"/>
       <use x="95.410156" xlink:href="#DejaVuSans-30"/>
      </g>
     </g>
    </g>
    <g id="xtick_2">
     <g id="line2d_2">
      <g>
       <use style="stroke:#000000;stroke-width:0.8;" x="119.872159" xlink:href="#m44c5620700" y="348.478125"/>
      </g>
     </g>
     <g id="text_2">
      <!-- 0.2 -->
      <g transform="translate(111.920597 363.076562)scale(0.1 -0.1)">
       <defs>
        <path d="M 1228 531 
L 3431 531 
L 3431 0 
L 469 0 
L 469 531 
Q 828 903 1448 1529 
Q 2069 2156 2228 2338 
Q 2531 2678 2651 2914 
Q 2772 3150 2772 3378 
Q 2772 3750 2511 3984 
Q 2250 4219 1831 4219 
Q 1534 4219 1204 4116 
Q 875 4013 500 3803 
L 500 4441 
Q 881 4594 1212 4672 
Q 1544 4750 1819 4750 
Q 2544 4750 2975 4387 
Q 3406 4025 3406 3419 
Q 3406 3131 3298 2873 
Q 3191 2616 2906 2266 
Q 2828 2175 2409 1742 
Q 1991 1309 1228 531 
z
" id="DejaVuSans-32" transform="scale(0.015625)"/>
       </defs>
       <use xlink:href="#DejaVuSans-30"/>
       <use x="63.623047" xlink:href="#DejaVuSans-2e"/>
       <use x="95.410156" xlink:href="#DejaVuSans-32"/>
      </g>
     </g>
    </g>
    <g id="xtick_3">
     <g id="line2d_3">
      <g>
       <use style="stroke:#000000;stroke-width:0.8;" x="180.744886" xlink:href="#m44c5620700" y="348.478125"/>
      </g>
     </g>
     <g id="text_3">
      <!-- 0.4 -->
      <g transform="translate(172.793324 363.076562)scale(0.1 -0.1)">
       <defs>
        <path d="M 2419 4116 
L 825 1625 
L 2419 1625 
L 2419 4116 
z
M 2253 4666 
L 3047 4666 
L 3047 1625 
L 3713 1625 
L 3713 1100 
L 3047 1100 
L 3047 0 
L 2419 0 
L 2419 1100 
L 313 1100 
L 313 1709 
L 2253 4666 
z
" id="DejaVuSans-34" transform="scale(0.015625)"/>
       </defs>
       <use xlink:href="#DejaVuSans-30"/>
       <use x="63.623047" xlink:href="#DejaVuSans-2e"/>
       <use x="95.410156" xlink:href="#DejaVuSans-34"/>
      </g>
     </g>
    </g>
    <g id="xtick_4">
     <g id="line2d_4">
      <g>
       <use style="stroke:#000000;stroke-width:0.8;" x="241.617614" xlink:href="#m44c5620700" y="348.478125"/>
      </g>
     </g>
     <g id="text_4">
      <!-- 0.6 -->
      <g transform="translate(233.666051 363.076562)scale(0.1 -0.1)">
       <defs>
        <path d="M 2113 2584 
Q 1688 2584 1439 2293 
Q 1191 2003 1191 1497 
Q 1191 994 1439 701 
Q 1688 409 2113 409 
Q 2538 409 2786 701 
Q 3034 994 3034 1497 
Q 3034 2003 2786 2293 
Q 2538 2584 2113 2584 
z
M 3366 4563 
L 3366 3988 
Q 3128 4100 2886 4159 
Q 2644 4219 2406 4219 
Q 1781 4219 1451 3797 
Q 1122 3375 1075 2522 
Q 1259 2794 1537 2939 
Q 1816 3084 2150 3084 
Q 2853 3084 3261 2657 
Q 3669 2231 3669 1497 
Q 3669 778 3244 343 
Q 2819 -91 2113 -91 
Q 1303 -91 875 529 
Q 447 1150 447 2328 
Q 447 3434 972 4092 
Q 1497 4750 2381 4750 
Q 2619 4750 2861 4703 
Q 3103 4656 3366 4563 
z
" id="DejaVuSans-36" transform="scale(0.015625)"/>
       </defs>
       <use xlink:href="#DejaVuSans-30"/>
       <use x="63.623047" xlink:href="#DejaVuSans-2e"/>
       <use x="95.410156" xlink:href="#DejaVuSans-36"/>
      </g>
     </g>
    </g>
    <g id="xtick_5">
     <g id="line2d_5">
      <g>
       <use style="stroke:#000000;stroke-width:0.8;" x="302.490341" xlink:href="#m44c5620700" y="348.478125"/>
      </g>
     </g>
     <g id="text_5">
      <!-- 0.8 -->
      <g transform="translate(294.538778 363.076562)scale(0.1 -0.1)">
       <defs>
        <path d="M 2034 2216 
Q 1584 2216 1326 1975 
Q 1069 1734 1069 1313 
Q 1069 891 1326 650 
Q 1584 409 2034 409 
Q 2484 409 2743 651 
Q 3003 894 3003 1313 
Q 3003 1734 2745 1975 
Q 2488 2216 2034 2216 
z
M 1403 2484 
Q 997 2584 770 2862 
Q 544 3141 544 3541 
Q 544 4100 942 4425 
Q 1341 4750 2034 4750 
Q 2731 4750 3128 4425 
Q 3525 4100 3525 3541 
Q 3525 3141 3298 2862 
Q 3072 2584 2669 2484 
Q 3125 2378 3379 2068 
Q 3634 1759 3634 1313 
Q 3634 634 3220 271 
Q 2806 -91 2034 -91 
Q 1263 -91 848 271 
Q 434 634 434 1313 
Q 434 1759 690 2068 
Q 947 2378 1403 2484 
z
M 1172 3481 
Q 1172 3119 1398 2916 
Q 1625 2713 2034 2713 
Q 2441 2713 2670 2916 
Q 2900 3119 2900 3481 
Q 2900 3844 2670 4047 
Q 2441 4250 2034 4250 
Q 1625 4250 1398 4047 
Q 1172 3844 1172 3481 
z
" id="DejaVuSans-38" transform="scale(0.015625)"/>
       </defs>
       <use xlink:href="#DejaVuSans-30"/>
       <use x="63.623047" xlink:href="#DejaVuSans-2e"/>
       <use x="95.410156" xlink:href="#DejaVuSans-38"/>
      </g>
     </g>
    </g>
    <g id="xtick_6">
     <g id="line2d_6">
      <g>
       <use style="stroke:#000000;stroke-width:0.8;" x="363.363068" xlink:href="#m44c5620700" y="348.478125"/>
      </g>
     </g>
     <g id="text_6">
      <!-- 1.0 -->
      <g transform="translate(355.411506 363.076562)scale(0.1 -0.1)">
       <defs>
        <path d="M 794 531 
L 1825 531 
L 1825 4091 
L 703 3866 
L 703 4441 
L 1819 4666 
L 2450 4666 
L 2450 531 
L 3481 531 
L 3481 0 
L 794 0 
L 794 531 
z
" id="DejaVuSans-31" transform="scale(0.015625)"/>
       </defs>
       <use xlink:href="#DejaVuSans-31"/>
       <use x="63.623047" xlink:href="#DejaVuSans-2e"/>
       <use x="95.410156" xlink:href="#DejaVuSans-30"/>
      </g>
     </g>
    </g>
    <g id="text_7">
     <!-- False Positive Rate (Positive label: 1) -->
     <g transform="translate(119.815625 376.754687)scale(0.1 -0.1)">
      <defs>
       <path d="M 628 4666 
L 3309 4666 
L 3309 4134 
L 1259 4134 
L 1259 2759 
L 3109 2759 
L 3109 2228 
L 1259 2228 
L 1259 0 
L 628 0 
L 628 4666 
z
" id="DejaVuSans-46" transform="scale(0.015625)"/>
       <path d="M 2194 1759 
Q 1497 1759 1228 1600 
Q 959 1441 959 1056 
Q 959 750 1161 570 
Q 1363 391 1709 391 
Q 2188 391 2477 730 
Q 2766 1069 2766 1631 
L 2766 1759 
L 2194 1759 
z
M 3341 1997 
L 3341 0 
L 2766 0 
L 2766 531 
Q 2569 213 2275 61 
Q 1981 -91 1556 -91 
Q 1019 -91 701 211 
Q 384 513 384 1019 
Q 384 1609 779 1909 
Q 1175 2209 1959 2209 
L 2766 2209 
L 2766 2266 
Q 2766 2663 2505 2880 
Q 2244 3097 1772 3097 
Q 1472 3097 1187 3025 
Q 903 2953 641 2809 
L 641 3341 
Q 956 3463 1253 3523 
Q 1550 3584 1831 3584 
Q 2591 3584 2966 3190 
Q 3341 2797 3341 1997 
z
" id="DejaVuSans-61" transform="scale(0.015625)"/>
       <path d="M 603 4863 
L 1178 4863 
L 1178 0 
L 603 0 
L 603 4863 
z
" id="DejaVuSans-6c" transform="scale(0.015625)"/>
       <path d="M 2834 3397 
L 2834 2853 
Q 2591 2978 2328 3040 
Q 2066 3103 1784 3103 
Q 1356 3103 1142 2972 
Q 928 2841 928 2578 
Q 928 2378 1081 2264 
Q 1234 2150 1697 2047 
L 1894 2003 
Q 2506 1872 2764 1633 
Q 3022 1394 3022 966 
Q 3022 478 2636 193 
Q 2250 -91 1575 -91 
Q 1294 -91 989 -36 
Q 684 19 347 128 
L 347 722 
Q 666 556 975 473 
Q 1284 391 1588 391 
Q 1994 391 2212 530 
Q 2431 669 2431 922 
Q 2431 1156 2273 1281 
Q 2116 1406 1581 1522 
L 1381 1569 
Q 847 1681 609 1914 
Q 372 2147 372 2553 
Q 372 3047 722 3315 
Q 1072 3584 1716 3584 
Q 2034 3584 2315 3537 
Q 2597 3491 2834 3397 
z
" id="DejaVuSans-73" transform="scale(0.015625)"/>
       <path d="M 3597 1894 
L 3597 1613 
L 953 1613 
Q 991 1019 1311 708 
Q 1631 397 2203 397 
Q 2534 397 2845 478 
Q 3156 559 3463 722 
L 3463 178 
Q 3153 47 2828 -22 
Q 2503 -91 2169 -91 
Q 1331 -91 842 396 
Q 353 884 353 1716 
Q 353 2575 817 3079 
Q 1281 3584 2069 3584 
Q 2775 3584 3186 3129 
Q 3597 2675 3597 1894 
z
M 3022 2063 
Q 3016 2534 2758 2815 
Q 2500 3097 2075 3097 
Q 1594 3097 1305 2825 
Q 1016 2553 972 2059 
L 3022 2063 
z
" id="DejaVuSans-65" transform="scale(0.015625)"/>
       <path id="DejaVuSans-20" transform="scale(0.015625)"/>
       <path d="M 1259 4147 
L 1259 2394 
L 2053 2394 
Q 2494 2394 2734 2622 
Q 2975 2850 2975 3272 
Q 2975 3691 2734 3919 
Q 2494 4147 2053 4147 
L 1259 4147 
z
M 628 4666 
L 2053 4666 
Q 2838 4666 3239 4311 
Q 3641 3956 3641 3272 
Q 3641 2581 3239 2228 
Q 2838 1875 2053 1875 
L 1259 1875 
L 1259 0 
L 628 0 
L 628 4666 
z
" id="DejaVuSans-50" transform="scale(0.015625)"/>
       <path d="M 1959 3097 
Q 1497 3097 1228 2736 
Q 959 2375 959 1747 
Q 959 1119 1226 758 
Q 1494 397 1959 397 
Q 2419 397 2687 759 
Q 2956 1122 2956 1747 
Q 2956 2369 2687 2733 
Q 2419 3097 1959 3097 
z
M 1959 3584 
Q 2709 3584 3137 3096 
Q 3566 2609 3566 1747 
Q 3566 888 3137 398 
Q 2709 -91 1959 -91 
Q 1206 -91 779 398 
Q 353 888 353 1747 
Q 353 2609 779 3096 
Q 1206 3584 1959 3584 
z
" id="DejaVuSans-6f" transform="scale(0.015625)"/>
       <path d="M 603 3500 
L 1178 3500 
L 1178 0 
L 603 0 
L 603 3500 
z
M 603 4863 
L 1178 4863 
L 1178 4134 
L 603 4134 
L 603 4863 
z
" id="DejaVuSans-69" transform="scale(0.015625)"/>
       <path d="M 1172 4494 
L 1172 3500 
L 2356 3500 
L 2356 3053 
L 1172 3053 
L 1172 1153 
Q 1172 725 1289 603 
Q 1406 481 1766 481 
L 2356 481 
L 2356 0 
L 1766 0 
Q 1100 0 847 248 
Q 594 497 594 1153 
L 594 3053 
L 172 3053 
L 172 3500 
L 594 3500 
L 594 4494 
L 1172 4494 
z
" id="DejaVuSans-74" transform="scale(0.015625)"/>
       <path d="M 191 3500 
L 800 3500 
L 1894 563 
L 2988 3500 
L 3597 3500 
L 2284 0 
L 1503 0 
L 191 3500 
z
" id="DejaVuSans-76" transform="scale(0.015625)"/>
       <path d="M 2841 2188 
Q 3044 2119 3236 1894 
Q 3428 1669 3622 1275 
L 4263 0 
L 3584 0 
L 2988 1197 
Q 2756 1666 2539 1819 
Q 2322 1972 1947 1972 
L 1259 1972 
L 1259 0 
L 628 0 
L 628 4666 
L 2053 4666 
Q 2853 4666 3247 4331 
Q 3641 3997 3641 3322 
Q 3641 2881 3436 2590 
Q 3231 2300 2841 2188 
z
M 1259 4147 
L 1259 2491 
L 2053 2491 
Q 2509 2491 2742 2702 
Q 2975 2913 2975 3322 
Q 2975 3731 2742 3939 
Q 2509 4147 2053 4147 
L 1259 4147 
z
" id="DejaVuSans-52" transform="scale(0.015625)"/>
       <path d="M 1984 4856 
Q 1566 4138 1362 3434 
Q 1159 2731 1159 2009 
Q 1159 1288 1364 580 
Q 1569 -128 1984 -844 
L 1484 -844 
Q 1016 -109 783 600 
Q 550 1309 550 2009 
Q 550 2706 781 3412 
Q 1013 4119 1484 4856 
L 1984 4856 
z
" id="DejaVuSans-28" transform="scale(0.015625)"/>
       <path d="M 3116 1747 
Q 3116 2381 2855 2742 
Q 2594 3103 2138 3103 
Q 1681 3103 1420 2742 
Q 1159 2381 1159 1747 
Q 1159 1113 1420 752 
Q 1681 391 2138 391 
Q 2594 391 2855 752 
Q 3116 1113 3116 1747 
z
M 1159 2969 
Q 1341 3281 1617 3432 
Q 1894 3584 2278 3584 
Q 2916 3584 3314 3078 
Q 3713 2572 3713 1747 
Q 3713 922 3314 415 
Q 2916 -91 2278 -91 
Q 1894 -91 1617 61 
Q 1341 213 1159 525 
L 1159 0 
L 581 0 
L 581 4863 
L 1159 4863 
L 1159 2969 
z
" id="DejaVuSans-62" transform="scale(0.015625)"/>
       <path d="M 750 794 
L 1409 794 
L 1409 0 
L 750 0 
L 750 794 
z
M 750 3309 
L 1409 3309 
L 1409 2516 
L 750 2516 
L 750 3309 
z
" id="DejaVuSans-3a" transform="scale(0.015625)"/>
       <path d="M 513 4856 
L 1013 4856 
Q 1481 4119 1714 3412 
Q 1947 2706 1947 2009 
Q 1947 1309 1714 600 
Q 1481 -109 1013 -844 
L 513 -844 
Q 928 -128 1133 580 
Q 1338 1288 1338 2009 
Q 1338 2731 1133 3434 
Q 928 4138 513 4856 
z
" id="DejaVuSans-29" transform="scale(0.015625)"/>
      </defs>
      <use xlink:href="#DejaVuSans-46"/>
      <use x="48.394531" xlink:href="#DejaVuSans-61"/>
      <use x="109.673828" xlink:href="#DejaVuSans-6c"/>
      <use x="137.457031" xlink:href="#DejaVuSans-73"/>
      <use x="189.556641" xlink:href="#DejaVuSans-65"/>
      <use x="251.080078" xlink:href="#DejaVuSans-20"/>
      <use x="282.867188" xlink:href="#DejaVuSans-50"/>
      <use x="339.544922" xlink:href="#DejaVuSans-6f"/>
      <use x="400.726562" xlink:href="#DejaVuSans-73"/>
      <use x="452.826172" xlink:href="#DejaVuSans-69"/>
      <use x="480.609375" xlink:href="#DejaVuSans-74"/>
      <use x="519.818359" xlink:href="#DejaVuSans-69"/>
      <use x="547.601562" xlink:href="#DejaVuSans-76"/>
      <use x="606.78125" xlink:href="#DejaVuSans-65"/>
      <use x="668.304688" xlink:href="#DejaVuSans-20"/>
      <use x="700.091797" xlink:href="#DejaVuSans-52"/>
      <use x="767.324219" xlink:href="#DejaVuSans-61"/>
      <use x="828.603516" xlink:href="#DejaVuSans-74"/>
      <use x="867.8125" xlink:href="#DejaVuSans-65"/>
      <use x="929.335938" xlink:href="#DejaVuSans-20"/>
      <use x="961.123047" xlink:href="#DejaVuSans-28"/>
      <use x="1000.136719" xlink:href="#DejaVuSans-50"/>
      <use x="1056.814453" xlink:href="#DejaVuSans-6f"/>
      <use x="1117.996094" xlink:href="#DejaVuSans-73"/>
      <use x="1170.095703" xlink:href="#DejaVuSans-69"/>
      <use x="1197.878906" xlink:href="#DejaVuSans-74"/>
      <use x="1237.087891" xlink:href="#DejaVuSans-69"/>
      <use x="1264.871094" xlink:href="#DejaVuSans-76"/>
      <use x="1324.050781" xlink:href="#DejaVuSans-65"/>
      <use x="1385.574219" xlink:href="#DejaVuSans-20"/>
      <use x="1417.361328" xlink:href="#DejaVuSans-6c"/>
      <use x="1445.144531" xlink:href="#DejaVuSans-61"/>
      <use x="1506.423828" xlink:href="#DejaVuSans-62"/>
      <use x="1569.900391" xlink:href="#DejaVuSans-65"/>
      <use x="1631.423828" xlink:href="#DejaVuSans-6c"/>
      <use x="1659.207031" xlink:href="#DejaVuSans-3a"/>
      <use x="1692.898438" xlink:href="#DejaVuSans-20"/>
      <use x="1724.685547" xlink:href="#DejaVuSans-31"/>
      <use x="1788.308594" xlink:href="#DejaVuSans-29"/>
     </g>
    </g>
   </g>
   <g id="matplotlib.axis_2">
    <g id="ytick_1">
     <g id="line2d_7">
      <defs>
       <path d="M 0 0 
L -3.5 0 
" id="m6ae2134de6" style="stroke:#000000;stroke-width:0.8;"/>
      </defs>
      <g>
       <use style="stroke:#000000;stroke-width:0.8;" x="43.78125" xlink:href="#m6ae2134de6" y="333.65267"/>
      </g>
     </g>
     <g id="text_8">
      <!-- 0.0 -->
      <g transform="translate(20.878125 337.451889)scale(0.1 -0.1)">
       <use xlink:href="#DejaVuSans-30"/>
       <use x="63.623047" xlink:href="#DejaVuSans-2e"/>
       <use x="95.410156" xlink:href="#DejaVuSans-30"/>
      </g>
     </g>
    </g>
    <g id="ytick_2">
     <g id="line2d_8">
      <g>
       <use style="stroke:#000000;stroke-width:0.8;" x="43.78125" xlink:href="#m6ae2134de6" y="274.350852"/>
      </g>
     </g>
     <g id="text_9">
      <!-- 0.2 -->
      <g transform="translate(20.878125 278.150071)scale(0.1 -0.1)">
       <use xlink:href="#DejaVuSans-30"/>
       <use x="63.623047" xlink:href="#DejaVuSans-2e"/>
       <use x="95.410156" xlink:href="#DejaVuSans-32"/>
      </g>
     </g>
    </g>
    <g id="ytick_3">
     <g id="line2d_9">
      <g>
       <use style="stroke:#000000;stroke-width:0.8;" x="43.78125" xlink:href="#m6ae2134de6" y="215.049034"/>
      </g>
     </g>
     <g id="text_10">
      <!-- 0.4 -->
      <g transform="translate(20.878125 218.848253)scale(0.1 -0.1)">
       <use xlink:href="#DejaVuSans-30"/>
       <use x="63.623047" xlink:href="#DejaVuSans-2e"/>
       <use x="95.410156" xlink:href="#DejaVuSans-34"/>
      </g>
     </g>
    </g>
    <g id="ytick_4">
     <g id="line2d_10">
      <g>
       <use style="stroke:#000000;stroke-width:0.8;" x="43.78125" xlink:href="#m6ae2134de6" y="155.747216"/>
      </g>
     </g>
     <g id="text_11">
      <!-- 0.6 -->
      <g transform="translate(20.878125 159.546435)scale(0.1 -0.1)">
       <use xlink:href="#DejaVuSans-30"/>
       <use x="63.623047" xlink:href="#DejaVuSans-2e"/>
       <use x="95.410156" xlink:href="#DejaVuSans-36"/>
      </g>
     </g>
    </g>
    <g id="ytick_5">
     <g id="line2d_11">
      <g>
       <use style="stroke:#000000;stroke-width:0.8;" x="43.78125" xlink:href="#m6ae2134de6" y="96.445398"/>
      </g>
     </g>
     <g id="text_12">
      <!-- 0.8 -->
      <g transform="translate(20.878125 100.244616)scale(0.1 -0.1)">
       <use xlink:href="#DejaVuSans-30"/>
       <use x="63.623047" xlink:href="#DejaVuSans-2e"/>
       <use x="95.410156" xlink:href="#DejaVuSans-38"/>
      </g>
     </g>
    </g>
    <g id="ytick_6">
     <g id="line2d_12">
      <g>
       <use style="stroke:#000000;stroke-width:0.8;" x="43.78125" xlink:href="#m6ae2134de6" y="37.14358"/>
      </g>
     </g>
     <g id="text_13">
      <!-- 1.0 -->
      <g transform="translate(20.878125 40.942798)scale(0.1 -0.1)">
       <use xlink:href="#DejaVuSans-31"/>
       <use x="63.623047" xlink:href="#DejaVuSans-2e"/>
       <use x="95.410156" xlink:href="#DejaVuSans-30"/>
      </g>
     </g>
    </g>
    <g id="text_14">
     <!-- True Positive Rate (Positive label: 1) -->
     <g transform="translate(14.798438 274.827031)rotate(-90)scale(0.1 -0.1)">
      <defs>
       <path d="M -19 4666 
L 3928 4666 
L 3928 4134 
L 2272 4134 
L 2272 0 
L 1638 0 
L 1638 4134 
L -19 4134 
L -19 4666 
z
" id="DejaVuSans-54" transform="scale(0.015625)"/>
       <path d="M 2631 2963 
Q 2534 3019 2420 3045 
Q 2306 3072 2169 3072 
Q 1681 3072 1420 2755 
Q 1159 2438 1159 1844 
L 1159 0 
L 581 0 
L 581 3500 
L 1159 3500 
L 1159 2956 
Q 1341 3275 1631 3429 
Q 1922 3584 2338 3584 
Q 2397 3584 2469 3576 
Q 2541 3569 2628 3553 
L 2631 2963 
z
" id="DejaVuSans-72" transform="scale(0.015625)"/>
       <path d="M 544 1381 
L 544 3500 
L 1119 3500 
L 1119 1403 
Q 1119 906 1312 657 
Q 1506 409 1894 409 
Q 2359 409 2629 706 
Q 2900 1003 2900 1516 
L 2900 3500 
L 3475 3500 
L 3475 0 
L 2900 0 
L 2900 538 
Q 2691 219 2414 64 
Q 2138 -91 1772 -91 
Q 1169 -91 856 284 
Q 544 659 544 1381 
z
M 1991 3584 
L 1991 3584 
z
" id="DejaVuSans-75" transform="scale(0.015625)"/>
      </defs>
      <use xlink:href="#DejaVuSans-54"/>
      <use x="46.333984" xlink:href="#DejaVuSans-72"/>
      <use x="87.447266" xlink:href="#DejaVuSans-75"/>
      <use x="150.826172" xlink:href="#DejaVuSans-65"/>
      <use x="212.349609" xlink:href="#DejaVuSans-20"/>
      <use x="244.136719" xlink:href="#DejaVuSans-50"/>
      <use x="300.814453" xlink:href="#DejaVuSans-6f"/>
      <use x="361.996094" xlink:href="#DejaVuSans-73"/>
      <use x="414.095703" xlink:href="#DejaVuSans-69"/>
      <use x="441.878906" xlink:href="#DejaVuSans-74"/>
      <use x="481.087891" xlink:href="#DejaVuSans-69"/>
      <use x="508.871094" xlink:href="#DejaVuSans-76"/>
      <use x="568.050781" xlink:href="#DejaVuSans-65"/>
      <use x="629.574219" xlink:href="#DejaVuSans-20"/>
      <use x="661.361328" xlink:href="#DejaVuSans-52"/>
      <use x="728.59375" xlink:href="#DejaVuSans-61"/>
      <use x="789.873047" xlink:href="#DejaVuSans-74"/>
      <use x="829.082031" xlink:href="#DejaVuSans-65"/>
      <use x="890.605469" xlink:href="#DejaVuSans-20"/>
      <use x="922.392578" xlink:href="#DejaVuSans-28"/>
      <use x="961.40625" xlink:href="#DejaVuSans-50"/>
      <use x="1018.083984" xlink:href="#DejaVuSans-6f"/>
      <use x="1079.265625" xlink:href="#DejaVuSans-73"/>
      <use x="1131.365234" xlink:href="#DejaVuSans-69"/>
      <use x="1159.148438" xlink:href="#DejaVuSans-74"/>
      <use x="1198.357422" xlink:href="#DejaVuSans-69"/>
      <use x="1226.140625" xlink:href="#DejaVuSans-76"/>
      <use x="1285.320312" xlink:href="#DejaVuSans-65"/>
      <use x="1346.84375" xlink:href="#DejaVuSans-20"/>
      <use x="1378.630859" xlink:href="#DejaVuSans-6c"/>
      <use x="1406.414062" xlink:href="#DejaVuSans-61"/>
      <use x="1467.693359" xlink:href="#DejaVuSans-62"/>
      <use x="1531.169922" xlink:href="#DejaVuSans-65"/>
      <use x="1592.693359" xlink:href="#DejaVuSans-6c"/>
      <use x="1620.476562" xlink:href="#DejaVuSans-3a"/>
      <use x="1654.167969" xlink:href="#DejaVuSans-20"/>
      <use x="1685.955078" xlink:href="#DejaVuSans-31"/>
      <use x="1749.578125" xlink:href="#DejaVuSans-29"/>
     </g>
    </g>
   </g>
   <g id="line2d_13">
    <path clip-path="url(#p7b16f8eb51)" d="M 58.999432 333.65267 
L 59.101993 332.890697 
L 59.107391 332.890697 
L 59.47985 330.960366 
L 59.566217 330.757173 
L 60.521655 327.048905 
L 60.581032 326.998106 
L 60.85093 325.524959 
L 61.293562 323.594627 
L 61.655225 322.527865 
L 62.01149 321.918286 
L 62.837377 319.987955 
L 63.641672 317.448045 
L 64.586314 315.31452 
L 64.931783 314.654144 
L 66.335251 309.980709 
L 66.983006 307.796387 
L 67.242108 307.186808 
L 68.602392 302.868962 
L 68.769729 302.005392 
L 69.131391 301.243419 
L 69.552432 299.363886 
L 70.146207 298.246325 
L 71.425522 294.74125 
L 74.048928 289.051851 
L 76.424027 281.584516 
L 76.693925 280.314561 
L 78.50224 275.844319 
L 80.947513 269.088159 
L 82.216032 266.497451 
L 82.480532 265.684679 
L 83.905592 262.687586 
L 85.508784 257.556967 
L 86.037783 256.287013 
L 86.458824 254.915461 
L 87.295507 253.239121 
L 88.137588 251.004 
L 88.537036 250.699211 
L 90.566667 246.990942 
L 91.732625 244.197041 
L 93.438378 240.590369 
L 93.940388 239.168019 
L 95.441019 236.221724 
L 96.067182 235.104163 
L 97.044212 231.751482 
L 97.530027 230.735518 
L 97.875497 230.481527 
L 98.253353 229.719554 
L 98.625812 228.601994 
L 99.084638 228.14481 
L 99.538066 227.02725 
L 100.444923 225.04612 
L 100.828177 224.030156 
L 101.173646 222.963394 
L 101.378769 222.760201 
L 101.670258 222.201421 
L 101.92936 221.896631 
L 102.620298 220.271089 
L 103.106114 219.153529 
L 103.516358 218.391556 
L 103.921205 217.172399 
L 104.018368 217.172399 
L 104.336847 216.56282 
L 105.626958 213.514928 
L 106.010213 212.549763 
L 106.350284 212.194175 
L 106.8361 211.025817 
L 107.149182 210.771826 
L 109.891342 205.488813 
L 110.166638 205.184024 
L 110.355566 204.72684 
L 111.570106 202.644114 
L 111.678065 202.542517 
L 112.136891 201.62815 
L 112.136891 201.577352 
L 113.086931 199.901011 
L 113.783267 198.935845 
L 114.441817 197.411899 
L 115.219123 196.395935 
L 115.456633 196.243541 
L 115.996428 195.329173 
L 116.660376 194.262411 
L 116.881693 193.957622 
L 117.167784 193.348043 
L 117.345917 193.246447 
L 117.950487 192.636868 
L 118.360732 192.230483 
L 118.959905 191.163721 
L 119.812782 189.030196 
L 120.206832 188.674609 
L 120.563097 188.115829 
L 121.437566 186.896672 
L 122.538748 185.169533 
L 123.553564 183.950376 
L 123.963808 183.493193 
L 124.325471 182.274036 
L 124.546787 182.121641 
L 125.070389 180.75009 
L 125.518419 180.394502 
L 125.8315 179.784924 
L 127.029846 178.057785 
L 127.180989 177.600601 
L 127.28355 177.549803 
L 127.801754 176.635436 
L 130.506128 173.13036 
L 130.570904 173.13036 
L 131.051322 172.57158 
L 131.785444 171.200028 
L 132.147106 170.946037 
L 132.276657 170.488853 
L 134.128156 167.288567 
L 134.435839 167.085374 
L 135.213144 165.967814 
L 135.46145 165.358235 
L 135.634185 165.155042 
L 135.877093 164.748657 
L 136.837929 163.834289 
L 137.237377 163.173913 
L 137.787968 162.665931 
L 138.02008 162.615132 
L 138.209009 162.41194 
L 138.408733 162.310343 
L 138.673233 161.649967 
L 139.796007 160.634003 
L 140.103691 159.922828 
L 140.292619 159.770433 
L 140.443762 159.567241 
L 140.546323 159.516442 
L 141.037537 158.297286 
L 141.31823 158.144891 
L 141.361414 157.8909 
L 141.615118 157.433716 
L 141.992975 157.230523 
L 142.462597 156.77334 
L 142.964606 155.960568 
L 143.023984 155.960568 
L 143.110351 155.706577 
L 143.261494 155.655779 
L 144.8269 153.623851 
L 145.361298 152.455493 
L 145.571818 152.2523 
L 145.717563 152.2523 
L 145.949675 151.896712 
L 146.273552 151.642721 
L 146.359919 151.642721 
L 146.797154 151.287134 
L 147.202 150.779152 
L 147.542071 150.423565 
L 147.623041 150.321968 
L 148.076469 149.966381 
L 148.675642 149.356802 
L 148.967131 149.15361 
L 149.571702 147.680462 
L 151.401608 145.648534 
L 151.968394 144.63257 
L 152.081751 144.530973 
L 152.805076 143.819799 
L 153.096566 143.667404 
L 153.469025 142.956229 
L 154.165361 142.245054 
L 154.257126 142.245054 
L 155.228758 140.721108 
L 155.682186 139.806741 
L 155.752359 139.806741 
L 156.64842 138.892373 
L 158.240816 136.860445 
L 159.034315 136.149271 
L 159.341999 135.692087 
L 159.784631 135.336499 
L 160.502559 134.422132 
L 161.252874 133.863352 
L 161.409415 133.660159 
L 161.997792 132.898186 
L 162.47821 132.694993 
L 162.839873 132.288607 
L 163.358077 131.425038 
L 163.627974 131.221845 
L 163.719739 131.069451 
L 163.838494 131.069451 
L 165.376911 129.545505 
L 165.436289 129.443908 
L 165.760166 128.83433 
L 166.661624 127.869164 
L 166.974706 127.513577 
L 168.281011 126.091227 
L 168.723643 125.786438 
L 168.869388 125.583245 
L 169.015132 125.43085 
L 169.360601 124.973667 
L 169.517142 124.618079 
L 170.936804 123.449721 
L 172.507609 121.519389 
L 172.61017 121.519389 
L 173.166159 121.113003 
L 174.00824 120.757416 
L 174.132393 120.503425 
L 174.380699 120.249434 
L 175.373922 119.589057 
L 175.498075 119.487461 
L 176.680227 118.522295 
L 177.349573 117.658726 
L 179.201072 116.033183 
L 179.36301 115.728394 
L 181.581569 114.204448 
L 181.667936 114.001255 
L 183.200955 112.629704 
L 183.238741 112.47731 
L 184.453281 111.410547 
L 184.669199 111.308951 
L 185.813565 110.343785 
L 187.17385 109.429418 
L 187.551706 109.124628 
L 187.59489 109.124628 
L 188.480154 108.362655 
L 188.534134 108.261059 
L 189.845837 107.295893 
L 190.882244 106.381526 
L 192.204743 104.146405 
L 193.332915 103.282835 
L 193.786343 102.825652 
L 195.108842 101.962082 
L 195.265383 101.860486 
L 195.945525 101.403302 
L 196.841585 100.539733 
L 197.516329 100.133347 
L 197.64588 100.133347 
L 197.732248 99.930154 
L 199.135716 98.710997 
L 199.886031 98.35541 
L 200.350255 97.79663 
L 201.694346 96.831464 
L 201.953448 96.526675 
L 202.115386 96.425078 
L 204.555261 94.748738 
L 205.122047 94.088361 
L 205.462118 93.885168 
L 205.926342 93.529581 
L 206.039699 93.529581 
L 206.444545 93.173994 
L 206.676657 93.072397 
L 207.157075 92.666012 
L 207.297422 92.615213 
L 207.421575 92.513617 
L 207.572718 92.412021 
L 207.610503 92.361222 
L 207.901993 92.107231 
L 208.571339 91.345258 
L 209.262277 90.938873 
L 209.505185 90.888075 
L 209.83446 90.786478 
L 211.356684 89.719716 
L 211.621183 89.414927 
L 211.907275 89.313331 
L 213.791161 87.941779 
L 214.10964 87.840183 
L 214.222997 87.789385 
L 214.492895 87.687788 
L 215.621067 87.129008 
L 215.917955 86.925815 
L 216.155465 86.925815 
L 218.044749 85.808255 
L 218.233677 85.757457 
L 218.768074 85.401869 
L 219.669533 84.5383 
L 220.786909 83.776327 
L 221.612796 83.369941 
L 221.952867 83.065152 
L 223.005468 82.607968 
L 224.462916 81.744399 
L 224.678834 81.541206 
L 224.813783 81.490408 
L 225.304997 81.033224 
L 225.418354 80.931628 
L 226.362996 80.474444 
L 226.454761 80.474444 
L 226.697669 80.169655 
L 226.913587 80.068058 
L 227.021546 79.814067 
L 227.415597 79.712471 
L 227.72328 79.509278 
L 228.651728 79.407682 
L 228.770483 79.153691 
L 229.250901 79.001296 
L 229.585574 79.001296 
L 229.904053 78.747305 
L 230.130768 78.645709 
L 230.276512 78.442516 
L 230.460043 78.442516 
L 231.097001 77.985332 
L 231.404685 77.883736 
L 231.626001 77.731341 
L 232.052439 77.629745 
L 233.175214 77.121763 
L 234.373559 76.715377 
L 234.816192 76.562982 
L 235.21564 76.461386 
L 235.555711 76.35979 
L 237.682505 75.902606 
L 238.060362 75.648615 
L 238.114341 75.648615 
L 238.476004 75.394624 
L 238.632545 75.343826 
L 240.251931 74.226265 
L 241.228961 73.565889 
L 242.065644 73.007108 
L 242.977898 72.448328 
L 243.199214 72.245135 
L 243.582469 71.940346 
L 243.798387 71.889548 
L 244.246417 71.686355 
L 244.678254 71.584759 
L 245.919783 70.873584 
L 246.03314 70.721189 
L 246.151895 70.619593 
L 246.626915 70.467198 
L 247.01017 70.314804 
L 247.155914 70.314804 
L 248.230107 69.85762 
L 249.082984 69.248042 
L 249.190943 69.248042 
L 255.252845 66.301746 
L 255.447172 66.250948 
L 256.764273 65.64137 
L 257.968016 64.676204 
L 258.237914 64.574607 
L 258.707536 64.168222 
L 258.928852 64.117424 
L 259.916678 63.457047 
L 260.720973 63.253854 
L 261.233778 63.10146 
L 261.325544 62.949065 
L 261.563054 62.847469 
L 262.151431 62.491881 
L 262.221604 62.491881 
L 262.523889 62.288688 
L 262.702022 62.288688 
L 264.110888 61.882303 
L 265.859825 61.374321 
L 266.070345 61.12033 
L 266.372631 61.069532 
L 266.545365 60.967935 
L 267.311875 60.917137 
L 267.441426 60.815541 
L 267.66814 60.663146 
L 268.877281 60.358357 
L 269.255138 60.104366 
L 269.859709 59.799577 
L 270.350923 59.69798 
L 270.507463 59.647182 
L 270.928504 59.494787 
L 271.484493 59.443989 
L 272.186227 59.1392 
L 272.358962 59.088402 
L 273.07689 58.682016 
L 273.228032 58.631218 
L 273.692256 58.428025 
L 274.113297 58.326429 
L 274.496551 58.174034 
L 274.604511 58.02164 
L 276.126734 57.107272 
L 277.384457 56.700886 
L 277.492416 56.650088 
L 278.269721 56.548492 
L 278.442456 56.497694 
L 279.009241 56.396097 
L 279.840526 55.989712 
L 280.385719 55.48173 
L 280.731188 55.380133 
L 281.114443 55.278537 
L 281.260188 55.227739 
L 281.638045 55.024546 
L 282.145452 54.922949 
L 282.194034 54.872151 
L 283.683869 54.414967 
L 283.856604 54.313371 
L 284.401797 54.211775 
L 284.893011 54.05938 
L 285.335643 54.008582 
L 285.670316 53.805389 
L 285.745888 53.703793 
L 286.264091 53.348205 
L 286.550183 53.246609 
L 286.787693 53.145012 
L 287.05759 53.094214 
L 288.207355 52.992618 
L 288.223548 52.94182 
L 288.542028 52.789425 
L 288.903691 52.738627 
L 289.546047 52.484636 
L 290.14522 52.383039 
L 290.209996 52.332241 
L 292.07229 51.976654 
L 292.390769 51.773461 
L 292.73084 51.671865 
L 294.652512 51.214681 
L 295.154521 51.163883 
L 296.482418 50.655901 
L 298.398692 50.351111 
L 298.630804 50.147919 
L 298.684783 50.147919 
L 298.960079 49.995524 
L 299.715793 49.741533 
L 299.9587 49.741533 
L 301.46473 49.081156 
L 301.901964 48.97956 
L 302.053107 48.928762 
L 302.609096 48.725569 
L 303.623911 48.471578 
L 306.84649 47.963596 
L 306.922061 47.912798 
L 307.397081 47.811201 
L 307.50504 47.760403 
L 308.498264 47.709605 
L 310.139242 46.947632 
L 312.476556 46.388852 
L 313.167494 46.033264 
L 313.523759 45.931668 
L 315.197125 45.372888 
L 315.55339 45.271291 
L 318.317142 44.966502 
L 318.522264 44.864906 
L 320.130855 44.45852 
L 320.611272 44.356924 
L 321.955363 44.102933 
L 322.1227 44.102933 
L 323.931014 43.696547 
L 325.555798 43.442556 
L 325.825696 43.391758 
L 326.122584 43.290162 
L 326.597603 43.188565 
L 327.256154 43.086969 
L 330.165651 42.528189 
L 330.899773 42.477391 
L 331.363997 42.375794 
L 332.20068 42.121803 
L 332.891618 41.867812 
L 334.397647 41.766216 
L 334.829483 41.715418 
L 335.099381 41.613821 
L 335.725544 41.512225 
L 335.995441 41.410628 
L 336.1034 41.35983 
L 336.3679 41.258234 
L 336.902298 41.207436 
L 337.048042 41.105839 
L 337.550052 41.004243 
L 337.647215 40.851848 
L 339.579683 40.750252 
L 340.270621 40.547059 
L 340.805018 40.445463 
L 340.923773 40.394664 
L 342.176099 40.191472 
L 342.656517 40.089875 
L 342.683506 40.039077 
L 344.17874 39.734288 
L 344.378464 39.68349 
L 346.559237 39.3787 
L 347.541665 39.226306 
L 349.53351 39.124709 
L 350.159673 39.073911 
L 350.785835 39.073911 
L 353.409241 38.616727 
L 353.857271 38.565929 
L 355.773545 38.26114 
L 356.556248 38.159544 
L 356.696595 38.007149 
L 357.587257 37.956351 
L 358.288991 37.854754 
L 358.747818 37.803956 
L 358.769409 37.70236 
L 359.465745 37.651562 
L 360.599316 37.549965 
L 361.495376 37.295974 
L 363.363068 37.14358 
L 363.363068 37.14358 
" style="fill:none;stroke:#1f77b4;stroke-linecap:square;stroke-width:1.5;"/>
   </g>
   <g id="line2d_14">
    <path clip-path="url(#p7b16f8eb51)" d="M 58.999432 333.65267 
L 211.005816 183.747184 
L 363.363068 37.14358 
" style="fill:none;stroke:#ff7f0e;stroke-dasharray:1.5,3,1.5;stroke-dashoffset:0;stroke-width:1.5;"/>
   </g>
   <g id="patch_3">
    <path d="M 43.78125 348.478125 
L 43.78125 22.318125 
" style="fill:none;stroke:#000000;stroke-linecap:square;stroke-linejoin:miter;stroke-width:0.8;"/>
   </g>
   <g id="patch_4">
    <path d="M 378.58125 348.478125 
L 378.58125 22.318125 
" style="fill:none;stroke:#000000;stroke-linecap:square;stroke-linejoin:miter;stroke-width:0.8;"/>
   </g>
   <g id="patch_5">
    <path d="M 43.78125 348.478125 
L 378.58125 348.478125 
" style="fill:none;stroke:#000000;stroke-linecap:square;stroke-linejoin:miter;stroke-width:0.8;"/>
   </g>
   <g id="patch_6">
    <path d="M 43.78125 22.318125 
L 378.58125 22.318125 
" style="fill:none;stroke:#000000;stroke-linecap:square;stroke-linejoin:miter;stroke-width:0.8;"/>
   </g>
   <g id="text_15">
    <!-- Responder-Operator Curve (ROC) -->
    <g transform="translate(111.130313 16.318125)scale(0.12 -0.12)">
     <defs>
      <path d="M 1159 525 
L 1159 -1331 
L 581 -1331 
L 581 3500 
L 1159 3500 
L 1159 2969 
Q 1341 3281 1617 3432 
Q 1894 3584 2278 3584 
Q 2916 3584 3314 3078 
Q 3713 2572 3713 1747 
Q 3713 922 3314 415 
Q 2916 -91 2278 -91 
Q 1894 -91 1617 61 
Q 1341 213 1159 525 
z
M 3116 1747 
Q 3116 2381 2855 2742 
Q 2594 3103 2138 3103 
Q 1681 3103 1420 2742 
Q 1159 2381 1159 1747 
Q 1159 1113 1420 752 
Q 1681 391 2138 391 
Q 2594 391 2855 752 
Q 3116 1113 3116 1747 
z
" id="DejaVuSans-70" transform="scale(0.015625)"/>
      <path d="M 3513 2113 
L 3513 0 
L 2938 0 
L 2938 2094 
Q 2938 2591 2744 2837 
Q 2550 3084 2163 3084 
Q 1697 3084 1428 2787 
Q 1159 2491 1159 1978 
L 1159 0 
L 581 0 
L 581 3500 
L 1159 3500 
L 1159 2956 
Q 1366 3272 1645 3428 
Q 1925 3584 2291 3584 
Q 2894 3584 3203 3211 
Q 3513 2838 3513 2113 
z
" id="DejaVuSans-6e" transform="scale(0.015625)"/>
      <path d="M 2906 2969 
L 2906 4863 
L 3481 4863 
L 3481 0 
L 2906 0 
L 2906 525 
Q 2725 213 2448 61 
Q 2172 -91 1784 -91 
Q 1150 -91 751 415 
Q 353 922 353 1747 
Q 353 2572 751 3078 
Q 1150 3584 1784 3584 
Q 2172 3584 2448 3432 
Q 2725 3281 2906 2969 
z
M 947 1747 
Q 947 1113 1208 752 
Q 1469 391 1925 391 
Q 2381 391 2643 752 
Q 2906 1113 2906 1747 
Q 2906 2381 2643 2742 
Q 2381 3103 1925 3103 
Q 1469 3103 1208 2742 
Q 947 2381 947 1747 
z
" id="DejaVuSans-64" transform="scale(0.015625)"/>
      <path d="M 313 2009 
L 1997 2009 
L 1997 1497 
L 313 1497 
L 313 2009 
z
" id="DejaVuSans-2d" transform="scale(0.015625)"/>
      <path d="M 2522 4238 
Q 1834 4238 1429 3725 
Q 1025 3213 1025 2328 
Q 1025 1447 1429 934 
Q 1834 422 2522 422 
Q 3209 422 3611 934 
Q 4013 1447 4013 2328 
Q 4013 3213 3611 3725 
Q 3209 4238 2522 4238 
z
M 2522 4750 
Q 3503 4750 4090 4092 
Q 4678 3434 4678 2328 
Q 4678 1225 4090 567 
Q 3503 -91 2522 -91 
Q 1538 -91 948 565 
Q 359 1222 359 2328 
Q 359 3434 948 4092 
Q 1538 4750 2522 4750 
z
" id="DejaVuSans-4f" transform="scale(0.015625)"/>
      <path d="M 4122 4306 
L 4122 3641 
Q 3803 3938 3442 4084 
Q 3081 4231 2675 4231 
Q 1875 4231 1450 3742 
Q 1025 3253 1025 2328 
Q 1025 1406 1450 917 
Q 1875 428 2675 428 
Q 3081 428 3442 575 
Q 3803 722 4122 1019 
L 4122 359 
Q 3791 134 3420 21 
Q 3050 -91 2638 -91 
Q 1578 -91 968 557 
Q 359 1206 359 2328 
Q 359 3453 968 4101 
Q 1578 4750 2638 4750 
Q 3056 4750 3426 4639 
Q 3797 4528 4122 4306 
z
" id="DejaVuSans-43" transform="scale(0.015625)"/>
     </defs>
     <use xlink:href="#DejaVuSans-52"/>
     <use x="64.982422" xlink:href="#DejaVuSans-65"/>
     <use x="126.505859" xlink:href="#DejaVuSans-73"/>
     <use x="178.605469" xlink:href="#DejaVuSans-70"/>
     <use x="242.082031" xlink:href="#DejaVuSans-6f"/>
     <use x="303.263672" xlink:href="#DejaVuSans-6e"/>
     <use x="366.642578" xlink:href="#DejaVuSans-64"/>
     <use x="430.119141" xlink:href="#DejaVuSans-65"/>
     <use x="491.642578" xlink:href="#DejaVuSans-72"/>
     <use x="526.380859" xlink:href="#DejaVuSans-2d"/>
     <use x="565.214844" xlink:href="#DejaVuSans-4f"/>
     <use x="643.925781" xlink:href="#DejaVuSans-70"/>
     <use x="707.402344" xlink:href="#DejaVuSans-65"/>
     <use x="768.925781" xlink:href="#DejaVuSans-72"/>
     <use x="810.039062" xlink:href="#DejaVuSans-61"/>
     <use x="871.318359" xlink:href="#DejaVuSans-74"/>
     <use x="910.527344" xlink:href="#DejaVuSans-6f"/>
     <use x="971.708984" xlink:href="#DejaVuSans-72"/>
     <use x="1012.822266" xlink:href="#DejaVuSans-20"/>
     <use x="1044.609375" xlink:href="#DejaVuSans-43"/>
     <use x="1114.433594" xlink:href="#DejaVuSans-75"/>
     <use x="1177.8125" xlink:href="#DejaVuSans-72"/>
     <use x="1218.925781" xlink:href="#DejaVuSans-76"/>
     <use x="1278.105469" xlink:href="#DejaVuSans-65"/>
     <use x="1339.628906" xlink:href="#DejaVuSans-20"/>
     <use x="1371.416016" xlink:href="#DejaVuSans-28"/>
     <use x="1410.429688" xlink:href="#DejaVuSans-52"/>
     <use x="1479.912109" xlink:href="#DejaVuSans-4f"/>
     <use x="1558.623047" xlink:href="#DejaVuSans-43"/>
     <use x="1628.447266" xlink:href="#DejaVuSans-29"/>
    </g>
   </g>
   <g id="legend_1">
    <g id="patch_7">
     <path d="M 182.053125 343.478125 
L 371.58125 343.478125 
Q 373.58125 343.478125 373.58125 341.478125 
L 373.58125 313.121875 
Q 373.58125 311.121875 371.58125 311.121875 
L 182.053125 311.121875 
Q 180.053125 311.121875 180.053125 313.121875 
L 180.053125 341.478125 
Q 180.053125 343.478125 182.053125 343.478125 
z
" style="fill:#ffffff;opacity:0.8;stroke:#cccccc;stroke-linejoin:miter;"/>
    </g>
    <g id="line2d_15">
     <path d="M 184.053125 319.220312 
L 204.053125 319.220312 
" style="fill:none;stroke:#1f77b4;stroke-linecap:square;stroke-width:1.5;"/>
    </g>
    <g id="line2d_16"/>
    <g id="text_16">
     <!-- XGBoost Baseline (AUC = 0.72) -->
     <g transform="translate(212.053125 322.720312)scale(0.1 -0.1)">
      <defs>
       <path d="M 403 4666 
L 1081 4666 
L 2241 2931 
L 3406 4666 
L 4084 4666 
L 2584 2425 
L 4184 0 
L 3506 0 
L 2194 1984 
L 872 0 
L 191 0 
L 1856 2491 
L 403 4666 
z
" id="DejaVuSans-58" transform="scale(0.015625)"/>
       <path d="M 3809 666 
L 3809 1919 
L 2778 1919 
L 2778 2438 
L 4434 2438 
L 4434 434 
Q 4069 175 3628 42 
Q 3188 -91 2688 -91 
Q 1594 -91 976 548 
Q 359 1188 359 2328 
Q 359 3472 976 4111 
Q 1594 4750 2688 4750 
Q 3144 4750 3555 4637 
Q 3966 4525 4313 4306 
L 4313 3634 
Q 3963 3931 3569 4081 
Q 3175 4231 2741 4231 
Q 1884 4231 1454 3753 
Q 1025 3275 1025 2328 
Q 1025 1384 1454 906 
Q 1884 428 2741 428 
Q 3075 428 3337 486 
Q 3600 544 3809 666 
z
" id="DejaVuSans-47" transform="scale(0.015625)"/>
       <path d="M 1259 2228 
L 1259 519 
L 2272 519 
Q 2781 519 3026 730 
Q 3272 941 3272 1375 
Q 3272 1813 3026 2020 
Q 2781 2228 2272 2228 
L 1259 2228 
z
M 1259 4147 
L 1259 2741 
L 2194 2741 
Q 2656 2741 2882 2914 
Q 3109 3088 3109 3444 
Q 3109 3797 2882 3972 
Q 2656 4147 2194 4147 
L 1259 4147 
z
M 628 4666 
L 2241 4666 
Q 2963 4666 3353 4366 
Q 3744 4066 3744 3513 
Q 3744 3084 3544 2831 
Q 3344 2578 2956 2516 
Q 3422 2416 3680 2098 
Q 3938 1781 3938 1306 
Q 3938 681 3513 340 
Q 3088 0 2303 0 
L 628 0 
L 628 4666 
z
" id="DejaVuSans-42" transform="scale(0.015625)"/>
       <path d="M 2188 4044 
L 1331 1722 
L 3047 1722 
L 2188 4044 
z
M 1831 4666 
L 2547 4666 
L 4325 0 
L 3669 0 
L 3244 1197 
L 1141 1197 
L 716 0 
L 50 0 
L 1831 4666 
z
" id="DejaVuSans-41" transform="scale(0.015625)"/>
       <path d="M 556 4666 
L 1191 4666 
L 1191 1831 
Q 1191 1081 1462 751 
Q 1734 422 2344 422 
Q 2950 422 3222 751 
Q 3494 1081 3494 1831 
L 3494 4666 
L 4128 4666 
L 4128 1753 
Q 4128 841 3676 375 
Q 3225 -91 2344 -91 
Q 1459 -91 1007 375 
Q 556 841 556 1753 
L 556 4666 
z
" id="DejaVuSans-55" transform="scale(0.015625)"/>
       <path d="M 678 2906 
L 4684 2906 
L 4684 2381 
L 678 2381 
L 678 2906 
z
M 678 1631 
L 4684 1631 
L 4684 1100 
L 678 1100 
L 678 1631 
z
" id="DejaVuSans-3d" transform="scale(0.015625)"/>
       <path d="M 525 4666 
L 3525 4666 
L 3525 4397 
L 1831 0 
L 1172 0 
L 2766 4134 
L 525 4134 
L 525 4666 
z
" id="DejaVuSans-37" transform="scale(0.015625)"/>
      </defs>
      <use xlink:href="#DejaVuSans-58"/>
      <use x="68.505859" xlink:href="#DejaVuSans-47"/>
      <use x="145.996094" xlink:href="#DejaVuSans-42"/>
      <use x="214.599609" xlink:href="#DejaVuSans-6f"/>
      <use x="275.78125" xlink:href="#DejaVuSans-6f"/>
      <use x="336.962891" xlink:href="#DejaVuSans-73"/>
      <use x="389.0625" xlink:href="#DejaVuSans-74"/>
      <use x="428.271484" xlink:href="#DejaVuSans-20"/>
      <use x="460.058594" xlink:href="#DejaVuSans-42"/>
      <use x="528.662109" xlink:href="#DejaVuSans-61"/>
      <use x="589.941406" xlink:href="#DejaVuSans-73"/>
      <use x="642.041016" xlink:href="#DejaVuSans-65"/>
      <use x="703.564453" xlink:href="#DejaVuSans-6c"/>
      <use x="731.347656" xlink:href="#DejaVuSans-69"/>
      <use x="759.130859" xlink:href="#DejaVuSans-6e"/>
      <use x="822.509766" xlink:href="#DejaVuSans-65"/>
      <use x="884.033203" xlink:href="#DejaVuSans-20"/>
      <use x="915.820312" xlink:href="#DejaVuSans-28"/>
      <use x="954.833984" xlink:href="#DejaVuSans-41"/>
      <use x="1023.242188" xlink:href="#DejaVuSans-55"/>
      <use x="1096.435547" xlink:href="#DejaVuSans-43"/>
      <use x="1166.259766" xlink:href="#DejaVuSans-20"/>
      <use x="1198.046875" xlink:href="#DejaVuSans-3d"/>
      <use x="1281.835938" xlink:href="#DejaVuSans-20"/>
      <use x="1313.623047" xlink:href="#DejaVuSans-30"/>
      <use x="1377.246094" xlink:href="#DejaVuSans-2e"/>
      <use x="1409.033203" xlink:href="#DejaVuSans-37"/>
      <use x="1472.65625" xlink:href="#DejaVuSans-32"/>
      <use x="1536.279297" xlink:href="#DejaVuSans-29"/>
     </g>
    </g>
    <g id="line2d_17">
     <path d="M 184.053125 333.898437 
L 204.053125 333.898437 
" style="fill:none;stroke:#ff7f0e;stroke-dasharray:1.5,3,1.5;stroke-dashoffset:0;stroke-width:1.5;"/>
    </g>
    <g id="line2d_18"/>
    <g id="text_17">
     <!-- Random baseline (AUC = 0.50) -->
     <g transform="translate(212.053125 337.398437)scale(0.1 -0.1)">
      <defs>
       <path d="M 3328 2828 
Q 3544 3216 3844 3400 
Q 4144 3584 4550 3584 
Q 5097 3584 5394 3201 
Q 5691 2819 5691 2113 
L 5691 0 
L 5113 0 
L 5113 2094 
Q 5113 2597 4934 2840 
Q 4756 3084 4391 3084 
Q 3944 3084 3684 2787 
Q 3425 2491 3425 1978 
L 3425 0 
L 2847 0 
L 2847 2094 
Q 2847 2600 2669 2842 
Q 2491 3084 2119 3084 
Q 1678 3084 1418 2786 
Q 1159 2488 1159 1978 
L 1159 0 
L 581 0 
L 581 3500 
L 1159 3500 
L 1159 2956 
Q 1356 3278 1631 3431 
Q 1906 3584 2284 3584 
Q 2666 3584 2933 3390 
Q 3200 3197 3328 2828 
z
" id="DejaVuSans-6d" transform="scale(0.015625)"/>
       <path d="M 691 4666 
L 3169 4666 
L 3169 4134 
L 1269 4134 
L 1269 2991 
Q 1406 3038 1543 3061 
Q 1681 3084 1819 3084 
Q 2600 3084 3056 2656 
Q 3513 2228 3513 1497 
Q 3513 744 3044 326 
Q 2575 -91 1722 -91 
Q 1428 -91 1123 -41 
Q 819 9 494 109 
L 494 744 
Q 775 591 1075 516 
Q 1375 441 1709 441 
Q 2250 441 2565 725 
Q 2881 1009 2881 1497 
Q 2881 1984 2565 2268 
Q 2250 2553 1709 2553 
Q 1456 2553 1204 2497 
Q 953 2441 691 2322 
L 691 4666 
z
" id="DejaVuSans-35" transform="scale(0.015625)"/>
      </defs>
      <use xlink:href="#DejaVuSans-52"/>
      <use x="67.232422" xlink:href="#DejaVuSans-61"/>
      <use x="128.511719" xlink:href="#DejaVuSans-6e"/>
      <use x="191.890625" xlink:href="#DejaVuSans-64"/>
      <use x="255.367188" xlink:href="#DejaVuSans-6f"/>
      <use x="316.548828" xlink:href="#DejaVuSans-6d"/>
      <use x="413.960938" xlink:href="#DejaVuSans-20"/>
      <use x="445.748047" xlink:href="#DejaVuSans-62"/>
      <use x="509.224609" xlink:href="#DejaVuSans-61"/>
      <use x="570.503906" xlink:href="#DejaVuSans-73"/>
      <use x="622.603516" xlink:href="#DejaVuSans-65"/>
      <use x="684.126953" xlink:href="#DejaVuSans-6c"/>
      <use x="711.910156" xlink:href="#DejaVuSans-69"/>
      <use x="739.693359" xlink:href="#DejaVuSans-6e"/>
      <use x="803.072266" xlink:href="#DejaVuSans-65"/>
      <use x="864.595703" xlink:href="#DejaVuSans-20"/>
      <use x="896.382812" xlink:href="#DejaVuSans-28"/>
      <use x="935.396484" xlink:href="#DejaVuSans-41"/>
      <use x="1003.804688" xlink:href="#DejaVuSans-55"/>
      <use x="1076.998047" xlink:href="#DejaVuSans-43"/>
      <use x="1146.822266" xlink:href="#DejaVuSans-20"/>
      <use x="1178.609375" xlink:href="#DejaVuSans-3d"/>
      <use x="1262.398438" xlink:href="#DejaVuSans-20"/>
      <use x="1294.185547" xlink:href="#DejaVuSans-30"/>
      <use x="1357.808594" xlink:href="#DejaVuSans-2e"/>
      <use x="1389.595703" xlink:href="#DejaVuSans-35"/>
      <use x="1453.21875" xlink:href="#DejaVuSans-30"/>
      <use x="1516.841797" xlink:href="#DejaVuSans-29"/>
     </g>
    </g>
   </g>
  </g>
 </g>
 <defs>
  <clipPath id="p7b16f8eb51">
   <rect height="326.16" width="334.8" x="43.78125" y="22.318125"/>
  </clipPath>
 </defs>
</svg>
