<?xml version="1.0" encoding="utf-8" standalone="no"?>
<!DOCTYPE svg PUBLIC "-//W3C//DTD SVG 1.1//EN"
  "http://www.w3.org/Graphics/SVG/1.1/DTD/svg11.dtd">
<svg height="386.034375pt" version="1.1" viewBox="0 0 385.78125 386.034375" width="385.78125pt" xmlns="http://www.w3.org/2000/svg" xmlns:xlink="http://www.w3.org/1999/xlink">
 <metadata>
  <rdf:RDF xmlns:cc="http://creativecommons.org/ns#" xmlns:dc="http://purl.org/dc/elements/1.1/" xmlns:rdf="http://www.w3.org/1999/02/22-rdf-syntax-ns#">
   <cc:Work>
    <dc:type rdf:resource="http://purl.org/dc/dcmitype/StillImage"/>
    <dc:date>2021-11-28T13:14:48.040715</dc:date>
    <dc:format>image/svg+xml</dc:format>
    <dc:creator>
     <cc:Agent>
      <dc:title>Matplotlib v3.4.3, https://matplotlib.org/</dc:title>
     </cc:Agent>
    </dc:creator>
   </cc:Work>
  </rdf:RDF>
 </metadata>
 <defs>
  <style type="text/css">*{stroke-linecap:butt;stroke-linejoin:round;}</style>
 </defs>
 <g id="figure_1">
  <g id="patch_1">
   <path d="M 0 386.034375 
L 385.78125 386.034375 
L 385.78125 0 
L 0 0 
z
" style="fill:none;"/>
  </g>
  <g id="axes_1">
   <g id="patch_2">
    <path d="M 43.78125 348.478125 
L 378.58125 348.478125 
L 378.58125 22.318125 
L 43.78125 22.318125 
z
" style="fill:#ffffff;"/>
   </g>
   <g id="matplotlib.axis_1">
    <g id="xtick_1">
     <g id="line2d_1">
      <defs>
       <path d="M 0 0 
L 0 3.5 
" id="mf7d0d11a60" style="stroke:#000000;stroke-width:0.8;"/>
      </defs>
      <g>
       <use style="stroke:#000000;stroke-width:0.8;" x="58.999432" xlink:href="#mf7d0d11a60" y="348.478125"/>
      </g>
     </g>
     <g id="text_1">
      <!-- 0.0 -->
      <g transform="translate(51.047869 363.076562)scale(0.1 -0.1)">
       <defs>
        <path d="M 2034 4250 
Q 1547 4250 1301 3770 
Q 1056 3291 1056 2328 
Q 1056 1369 1301 889 
Q 1547 409 2034 409 
Q 2525 409 2770 889 
Q 3016 1369 3016 2328 
Q 3016 3291 2770 3770 
Q 2525 4250 2034 4250 
z
M 2034 4750 
Q 2819 4750 3233 4129 
Q 3647 3509 3647 2328 
Q 3647 1150 3233 529 
Q 2819 -91 2034 -91 
Q 1250 -91 836 529 
Q 422 1150 422 2328 
Q 422 3509 836 4129 
Q 1250 4750 2034 4750 
z
" id="DejaVuSans-30" transform="scale(0.015625)"/>
        <path d="M 684 794 
L 1344 794 
L 1344 0 
L 684 0 
L 684 794 
z
" id="DejaVuSans-2e" transform="scale(0.015625)"/>
       </defs>
       <use xlink:href="#DejaVuSans-30"/>
       <use x="63.623047" xlink:href="#DejaVuSans-2e"/>
       <use x="95.410156" xlink:href="#DejaVuSans-30"/>
      </g>
     </g>
    </g>
    <g id="xtick_2">
     <g id="line2d_2">
      <g>
       <use style="stroke:#000000;stroke-width:0.8;" x="119.872159" xlink:href="#mf7d0d11a60" y="348.478125"/>
      </g>
     </g>
     <g id="text_2">
      <!-- 0.2 -->
      <g transform="translate(111.920597 363.076562)scale(0.1 -0.1)">
       <defs>
        <path d="M 1228 531 
L 3431 531 
L 3431 0 
L 469 0 
L 469 531 
Q 828 903 1448 1529 
Q 2069 2156 2228 2338 
Q 2531 2678 2651 2914 
Q 2772 3150 2772 3378 
Q 2772 3750 2511 3984 
Q 2250 4219 1831 4219 
Q 1534 4219 1204 4116 
Q 875 4013 500 3803 
L 500 4441 
Q 881 4594 1212 4672 
Q 1544 4750 1819 4750 
Q 2544 4750 2975 4387 
Q 3406 4025 3406 3419 
Q 3406 3131 3298 2873 
Q 3191 2616 2906 2266 
Q 2828 2175 2409 1742 
Q 1991 1309 1228 531 
z
" id="DejaVuSans-32" transform="scale(0.015625)"/>
       </defs>
       <use xlink:href="#DejaVuSans-30"/>
       <use x="63.623047" xlink:href="#DejaVuSans-2e"/>
       <use x="95.410156" xlink:href="#DejaVuSans-32"/>
      </g>
     </g>
    </g>
    <g id="xtick_3">
     <g id="line2d_3">
      <g>
       <use style="stroke:#000000;stroke-width:0.8;" x="180.744886" xlink:href="#mf7d0d11a60" y="348.478125"/>
      </g>
     </g>
     <g id="text_3">
      <!-- 0.4 -->
      <g transform="translate(172.793324 363.076562)scale(0.1 -0.1)">
       <defs>
        <path d="M 2419 4116 
L 825 1625 
L 2419 1625 
L 2419 4116 
z
M 2253 4666 
L 3047 4666 
L 3047 1625 
L 3713 1625 
L 3713 1100 
L 3047 1100 
L 3047 0 
L 2419 0 
L 2419 1100 
L 313 1100 
L 313 1709 
L 2253 4666 
z
" id="DejaVuSans-34" transform="scale(0.015625)"/>
       </defs>
       <use xlink:href="#DejaVuSans-30"/>
       <use x="63.623047" xlink:href="#DejaVuSans-2e"/>
       <use x="95.410156" xlink:href="#DejaVuSans-34"/>
      </g>
     </g>
    </g>
    <g id="xtick_4">
     <g id="line2d_4">
      <g>
       <use style="stroke:#000000;stroke-width:0.8;" x="241.617614" xlink:href="#mf7d0d11a60" y="348.478125"/>
      </g>
     </g>
     <g id="text_4">
      <!-- 0.6 -->
      <g transform="translate(233.666051 363.076562)scale(0.1 -0.1)">
       <defs>
        <path d="M 2113 2584 
Q 1688 2584 1439 2293 
Q 1191 2003 1191 1497 
Q 1191 994 1439 701 
Q 1688 409 2113 409 
Q 2538 409 2786 701 
Q 3034 994 3034 1497 
Q 3034 2003 2786 2293 
Q 2538 2584 2113 2584 
z
M 3366 4563 
L 3366 3988 
Q 3128 4100 2886 4159 
Q 2644 4219 2406 4219 
Q 1781 4219 1451 3797 
Q 1122 3375 1075 2522 
Q 1259 2794 1537 2939 
Q 1816 3084 2150 3084 
Q 2853 3084 3261 2657 
Q 3669 2231 3669 1497 
Q 3669 778 3244 343 
Q 2819 -91 2113 -91 
Q 1303 -91 875 529 
Q 447 1150 447 2328 
Q 447 3434 972 4092 
Q 1497 4750 2381 4750 
Q 2619 4750 2861 4703 
Q 3103 4656 3366 4563 
z
" id="DejaVuSans-36" transform="scale(0.015625)"/>
       </defs>
       <use xlink:href="#DejaVuSans-30"/>
       <use x="63.623047" xlink:href="#DejaVuSans-2e"/>
       <use x="95.410156" xlink:href="#DejaVuSans-36"/>
      </g>
     </g>
    </g>
    <g id="xtick_5">
     <g id="line2d_5">
      <g>
       <use style="stroke:#000000;stroke-width:0.8;" x="302.490341" xlink:href="#mf7d0d11a60" y="348.478125"/>
      </g>
     </g>
     <g id="text_5">
      <!-- 0.8 -->
      <g transform="translate(294.538778 363.076562)scale(0.1 -0.1)">
       <defs>
        <path d="M 2034 2216 
Q 1584 2216 1326 1975 
Q 1069 1734 1069 1313 
Q 1069 891 1326 650 
Q 1584 409 2034 409 
Q 2484 409 2743 651 
Q 3003 894 3003 1313 
Q 3003 1734 2745 1975 
Q 2488 2216 2034 2216 
z
M 1403 2484 
Q 997 2584 770 2862 
Q 544 3141 544 3541 
Q 544 4100 942 4425 
Q 1341 4750 2034 4750 
Q 2731 4750 3128 4425 
Q 3525 4100 3525 3541 
Q 3525 3141 3298 2862 
Q 3072 2584 2669 2484 
Q 3125 2378 3379 2068 
Q 3634 1759 3634 1313 
Q 3634 634 3220 271 
Q 2806 -91 2034 -91 
Q 1263 -91 848 271 
Q 434 634 434 1313 
Q 434 1759 690 2068 
Q 947 2378 1403 2484 
z
M 1172 3481 
Q 1172 3119 1398 2916 
Q 1625 2713 2034 2713 
Q 2441 2713 2670 2916 
Q 2900 3119 2900 3481 
Q 2900 3844 2670 4047 
Q 2441 4250 2034 4250 
Q 1625 4250 1398 4047 
Q 1172 3844 1172 3481 
z
" id="DejaVuSans-38" transform="scale(0.015625)"/>
       </defs>
       <use xlink:href="#DejaVuSans-30"/>
       <use x="63.623047" xlink:href="#DejaVuSans-2e"/>
       <use x="95.410156" xlink:href="#DejaVuSans-38"/>
      </g>
     </g>
    </g>
    <g id="xtick_6">
     <g id="line2d_6">
      <g>
       <use style="stroke:#000000;stroke-width:0.8;" x="363.363068" xlink:href="#mf7d0d11a60" y="348.478125"/>
      </g>
     </g>
     <g id="text_6">
      <!-- 1.0 -->
      <g transform="translate(355.411506 363.076562)scale(0.1 -0.1)">
       <defs>
        <path d="M 794 531 
L 1825 531 
L 1825 4091 
L 703 3866 
L 703 4441 
L 1819 4666 
L 2450 4666 
L 2450 531 
L 3481 531 
L 3481 0 
L 794 0 
L 794 531 
z
" id="DejaVuSans-31" transform="scale(0.015625)"/>
       </defs>
       <use xlink:href="#DejaVuSans-31"/>
       <use x="63.623047" xlink:href="#DejaVuSans-2e"/>
       <use x="95.410156" xlink:href="#DejaVuSans-30"/>
      </g>
     </g>
    </g>
    <g id="text_7">
     <!-- False Positive Rate (Positive label: 1) -->
     <g transform="translate(119.815625 376.754687)scale(0.1 -0.1)">
      <defs>
       <path d="M 628 4666 
L 3309 4666 
L 3309 4134 
L 1259 4134 
L 1259 2759 
L 3109 2759 
L 3109 2228 
L 1259 2228 
L 1259 0 
L 628 0 
L 628 4666 
z
" id="DejaVuSans-46" transform="scale(0.015625)"/>
       <path d="M 2194 1759 
Q 1497 1759 1228 1600 
Q 959 1441 959 1056 
Q 959 750 1161 570 
Q 1363 391 1709 391 
Q 2188 391 2477 730 
Q 2766 1069 2766 1631 
L 2766 1759 
L 2194 1759 
z
M 3341 1997 
L 3341 0 
L 2766 0 
L 2766 531 
Q 2569 213 2275 61 
Q 1981 -91 1556 -91 
Q 1019 -91 701 211 
Q 384 513 384 1019 
Q 384 1609 779 1909 
Q 1175 2209 1959 2209 
L 2766 2209 
L 2766 2266 
Q 2766 2663 2505 2880 
Q 2244 3097 1772 3097 
Q 1472 3097 1187 3025 
Q 903 2953 641 2809 
L 641 3341 
Q 956 3463 1253 3523 
Q 1550 3584 1831 3584 
Q 2591 3584 2966 3190 
Q 3341 2797 3341 1997 
z
" id="DejaVuSans-61" transform="scale(0.015625)"/>
       <path d="M 603 4863 
L 1178 4863 
L 1178 0 
L 603 0 
L 603 4863 
z
" id="DejaVuSans-6c" transform="scale(0.015625)"/>
       <path d="M 2834 3397 
L 2834 2853 
Q 2591 2978 2328 3040 
Q 2066 3103 1784 3103 
Q 1356 3103 1142 2972 
Q 928 2841 928 2578 
Q 928 2378 1081 2264 
Q 1234 2150 1697 2047 
L 1894 2003 
Q 2506 1872 2764 1633 
Q 3022 1394 3022 966 
Q 3022 478 2636 193 
Q 2250 -91 1575 -91 
Q 1294 -91 989 -36 
Q 684 19 347 128 
L 347 722 
Q 666 556 975 473 
Q 1284 391 1588 391 
Q 1994 391 2212 530 
Q 2431 669 2431 922 
Q 2431 1156 2273 1281 
Q 2116 1406 1581 1522 
L 1381 1569 
Q 847 1681 609 1914 
Q 372 2147 372 2553 
Q 372 3047 722 3315 
Q 1072 3584 1716 3584 
Q 2034 3584 2315 3537 
Q 2597 3491 2834 3397 
z
" id="DejaVuSans-73" transform="scale(0.015625)"/>
       <path d="M 3597 1894 
L 3597 1613 
L 953 1613 
Q 991 1019 1311 708 
Q 1631 397 2203 397 
Q 2534 397 2845 478 
Q 3156 559 3463 722 
L 3463 178 
Q 3153 47 2828 -22 
Q 2503 -91 2169 -91 
Q 1331 -91 842 396 
Q 353 884 353 1716 
Q 353 2575 817 3079 
Q 1281 3584 2069 3584 
Q 2775 3584 3186 3129 
Q 3597 2675 3597 1894 
z
M 3022 2063 
Q 3016 2534 2758 2815 
Q 2500 3097 2075 3097 
Q 1594 3097 1305 2825 
Q 1016 2553 972 2059 
L 3022 2063 
z
" id="DejaVuSans-65" transform="scale(0.015625)"/>
       <path id="DejaVuSans-20" transform="scale(0.015625)"/>
       <path d="M 1259 4147 
L 1259 2394 
L 2053 2394 
Q 2494 2394 2734 2622 
Q 2975 2850 2975 3272 
Q 2975 3691 2734 3919 
Q 2494 4147 2053 4147 
L 1259 4147 
z
M 628 4666 
L 2053 4666 
Q 2838 4666 3239 4311 
Q 3641 3956 3641 3272 
Q 3641 2581 3239 2228 
Q 2838 1875 2053 1875 
L 1259 1875 
L 1259 0 
L 628 0 
L 628 4666 
z
" id="DejaVuSans-50" transform="scale(0.015625)"/>
       <path d="M 1959 3097 
Q 1497 3097 1228 2736 
Q 959 2375 959 1747 
Q 959 1119 1226 758 
Q 1494 397 1959 397 
Q 2419 397 2687 759 
Q 2956 1122 2956 1747 
Q 2956 2369 2687 2733 
Q 2419 3097 1959 3097 
z
M 1959 3584 
Q 2709 3584 3137 3096 
Q 3566 2609 3566 1747 
Q 3566 888 3137 398 
Q 2709 -91 1959 -91 
Q 1206 -91 779 398 
Q 353 888 353 1747 
Q 353 2609 779 3096 
Q 1206 3584 1959 3584 
z
" id="DejaVuSans-6f" transform="scale(0.015625)"/>
       <path d="M 603 3500 
L 1178 3500 
L 1178 0 
L 603 0 
L 603 3500 
z
M 603 4863 
L 1178 4863 
L 1178 4134 
L 603 4134 
L 603 4863 
z
" id="DejaVuSans-69" transform="scale(0.015625)"/>
       <path d="M 1172 4494 
L 1172 3500 
L 2356 3500 
L 2356 3053 
L 1172 3053 
L 1172 1153 
Q 1172 725 1289 603 
Q 1406 481 1766 481 
L 2356 481 
L 2356 0 
L 1766 0 
Q 1100 0 847 248 
Q 594 497 594 1153 
L 594 3053 
L 172 3053 
L 172 3500 
L 594 3500 
L 594 4494 
L 1172 4494 
z
" id="DejaVuSans-74" transform="scale(0.015625)"/>
       <path d="M 191 3500 
L 800 3500 
L 1894 563 
L 2988 3500 
L 3597 3500 
L 2284 0 
L 1503 0 
L 191 3500 
z
" id="DejaVuSans-76" transform="scale(0.015625)"/>
       <path d="M 2841 2188 
Q 3044 2119 3236 1894 
Q 3428 1669 3622 1275 
L 4263 0 
L 3584 0 
L 2988 1197 
Q 2756 1666 2539 1819 
Q 2322 1972 1947 1972 
L 1259 1972 
L 1259 0 
L 628 0 
L 628 4666 
L 2053 4666 
Q 2853 4666 3247 4331 
Q 3641 3997 3641 3322 
Q 3641 2881 3436 2590 
Q 3231 2300 2841 2188 
z
M 1259 4147 
L 1259 2491 
L 2053 2491 
Q 2509 2491 2742 2702 
Q 2975 2913 2975 3322 
Q 2975 3731 2742 3939 
Q 2509 4147 2053 4147 
L 1259 4147 
z
" id="DejaVuSans-52" transform="scale(0.015625)"/>
       <path d="M 1984 4856 
Q 1566 4138 1362 3434 
Q 1159 2731 1159 2009 
Q 1159 1288 1364 580 
Q 1569 -128 1984 -844 
L 1484 -844 
Q 1016 -109 783 600 
Q 550 1309 550 2009 
Q 550 2706 781 3412 
Q 1013 4119 1484 4856 
L 1984 4856 
z
" id="DejaVuSans-28" transform="scale(0.015625)"/>
       <path d="M 3116 1747 
Q 3116 2381 2855 2742 
Q 2594 3103 2138 3103 
Q 1681 3103 1420 2742 
Q 1159 2381 1159 1747 
Q 1159 1113 1420 752 
Q 1681 391 2138 391 
Q 2594 391 2855 752 
Q 3116 1113 3116 1747 
z
M 1159 2969 
Q 1341 3281 1617 3432 
Q 1894 3584 2278 3584 
Q 2916 3584 3314 3078 
Q 3713 2572 3713 1747 
Q 3713 922 3314 415 
Q 2916 -91 2278 -91 
Q 1894 -91 1617 61 
Q 1341 213 1159 525 
L 1159 0 
L 581 0 
L 581 4863 
L 1159 4863 
L 1159 2969 
z
" id="DejaVuSans-62" transform="scale(0.015625)"/>
       <path d="M 750 794 
L 1409 794 
L 1409 0 
L 750 0 
L 750 794 
z
M 750 3309 
L 1409 3309 
L 1409 2516 
L 750 2516 
L 750 3309 
z
" id="DejaVuSans-3a" transform="scale(0.015625)"/>
       <path d="M 513 4856 
L 1013 4856 
Q 1481 4119 1714 3412 
Q 1947 2706 1947 2009 
Q 1947 1309 1714 600 
Q 1481 -109 1013 -844 
L 513 -844 
Q 928 -128 1133 580 
Q 1338 1288 1338 2009 
Q 1338 2731 1133 3434 
Q 928 4138 513 4856 
z
" id="DejaVuSans-29" transform="scale(0.015625)"/>
      </defs>
      <use xlink:href="#DejaVuSans-46"/>
      <use x="48.394531" xlink:href="#DejaVuSans-61"/>
      <use x="109.673828" xlink:href="#DejaVuSans-6c"/>
      <use x="137.457031" xlink:href="#DejaVuSans-73"/>
      <use x="189.556641" xlink:href="#DejaVuSans-65"/>
      <use x="251.080078" xlink:href="#DejaVuSans-20"/>
      <use x="282.867188" xlink:href="#DejaVuSans-50"/>
      <use x="339.544922" xlink:href="#DejaVuSans-6f"/>
      <use x="400.726562" xlink:href="#DejaVuSans-73"/>
      <use x="452.826172" xlink:href="#DejaVuSans-69"/>
      <use x="480.609375" xlink:href="#DejaVuSans-74"/>
      <use x="519.818359" xlink:href="#DejaVuSans-69"/>
      <use x="547.601562" xlink:href="#DejaVuSans-76"/>
      <use x="606.78125" xlink:href="#DejaVuSans-65"/>
      <use x="668.304688" xlink:href="#DejaVuSans-20"/>
      <use x="700.091797" xlink:href="#DejaVuSans-52"/>
      <use x="767.324219" xlink:href="#DejaVuSans-61"/>
      <use x="828.603516" xlink:href="#DejaVuSans-74"/>
      <use x="867.8125" xlink:href="#DejaVuSans-65"/>
      <use x="929.335938" xlink:href="#DejaVuSans-20"/>
      <use x="961.123047" xlink:href="#DejaVuSans-28"/>
      <use x="1000.136719" xlink:href="#DejaVuSans-50"/>
      <use x="1056.814453" xlink:href="#DejaVuSans-6f"/>
      <use x="1117.996094" xlink:href="#DejaVuSans-73"/>
      <use x="1170.095703" xlink:href="#DejaVuSans-69"/>
      <use x="1197.878906" xlink:href="#DejaVuSans-74"/>
      <use x="1237.087891" xlink:href="#DejaVuSans-69"/>
      <use x="1264.871094" xlink:href="#DejaVuSans-76"/>
      <use x="1324.050781" xlink:href="#DejaVuSans-65"/>
      <use x="1385.574219" xlink:href="#DejaVuSans-20"/>
      <use x="1417.361328" xlink:href="#DejaVuSans-6c"/>
      <use x="1445.144531" xlink:href="#DejaVuSans-61"/>
      <use x="1506.423828" xlink:href="#DejaVuSans-62"/>
      <use x="1569.900391" xlink:href="#DejaVuSans-65"/>
      <use x="1631.423828" xlink:href="#DejaVuSans-6c"/>
      <use x="1659.207031" xlink:href="#DejaVuSans-3a"/>
      <use x="1692.898438" xlink:href="#DejaVuSans-20"/>
      <use x="1724.685547" xlink:href="#DejaVuSans-31"/>
      <use x="1788.308594" xlink:href="#DejaVuSans-29"/>
     </g>
    </g>
   </g>
   <g id="matplotlib.axis_2">
    <g id="ytick_1">
     <g id="line2d_7">
      <defs>
       <path d="M 0 0 
L -3.5 0 
" id="m560ccb227a" style="stroke:#000000;stroke-width:0.8;"/>
      </defs>
      <g>
       <use style="stroke:#000000;stroke-width:0.8;" x="43.78125" xlink:href="#m560ccb227a" y="333.65267"/>
      </g>
     </g>
     <g id="text_8">
      <!-- 0.0 -->
      <g transform="translate(20.878125 337.451889)scale(0.1 -0.1)">
       <use xlink:href="#DejaVuSans-30"/>
       <use x="63.623047" xlink:href="#DejaVuSans-2e"/>
       <use x="95.410156" xlink:href="#DejaVuSans-30"/>
      </g>
     </g>
    </g>
    <g id="ytick_2">
     <g id="line2d_8">
      <g>
       <use style="stroke:#000000;stroke-width:0.8;" x="43.78125" xlink:href="#m560ccb227a" y="274.350852"/>
      </g>
     </g>
     <g id="text_9">
      <!-- 0.2 -->
      <g transform="translate(20.878125 278.150071)scale(0.1 -0.1)">
       <use xlink:href="#DejaVuSans-30"/>
       <use x="63.623047" xlink:href="#DejaVuSans-2e"/>
       <use x="95.410156" xlink:href="#DejaVuSans-32"/>
      </g>
     </g>
    </g>
    <g id="ytick_3">
     <g id="line2d_9">
      <g>
       <use style="stroke:#000000;stroke-width:0.8;" x="43.78125" xlink:href="#m560ccb227a" y="215.049034"/>
      </g>
     </g>
     <g id="text_10">
      <!-- 0.4 -->
      <g transform="translate(20.878125 218.848253)scale(0.1 -0.1)">
       <use xlink:href="#DejaVuSans-30"/>
       <use x="63.623047" xlink:href="#DejaVuSans-2e"/>
       <use x="95.410156" xlink:href="#DejaVuSans-34"/>
      </g>
     </g>
    </g>
    <g id="ytick_4">
     <g id="line2d_10">
      <g>
       <use style="stroke:#000000;stroke-width:0.8;" x="43.78125" xlink:href="#m560ccb227a" y="155.747216"/>
      </g>
     </g>
     <g id="text_11">
      <!-- 0.6 -->
      <g transform="translate(20.878125 159.546435)scale(0.1 -0.1)">
       <use xlink:href="#DejaVuSans-30"/>
       <use x="63.623047" xlink:href="#DejaVuSans-2e"/>
       <use x="95.410156" xlink:href="#DejaVuSans-36"/>
      </g>
     </g>
    </g>
    <g id="ytick_5">
     <g id="line2d_11">
      <g>
       <use style="stroke:#000000;stroke-width:0.8;" x="43.78125" xlink:href="#m560ccb227a" y="96.445398"/>
      </g>
     </g>
     <g id="text_12">
      <!-- 0.8 -->
      <g transform="translate(20.878125 100.244616)scale(0.1 -0.1)">
       <use xlink:href="#DejaVuSans-30"/>
       <use x="63.623047" xlink:href="#DejaVuSans-2e"/>
       <use x="95.410156" xlink:href="#DejaVuSans-38"/>
      </g>
     </g>
    </g>
    <g id="ytick_6">
     <g id="line2d_12">
      <g>
       <use style="stroke:#000000;stroke-width:0.8;" x="43.78125" xlink:href="#m560ccb227a" y="37.14358"/>
      </g>
     </g>
     <g id="text_13">
      <!-- 1.0 -->
      <g transform="translate(20.878125 40.942798)scale(0.1 -0.1)">
       <use xlink:href="#DejaVuSans-31"/>
       <use x="63.623047" xlink:href="#DejaVuSans-2e"/>
       <use x="95.410156" xlink:href="#DejaVuSans-30"/>
      </g>
     </g>
    </g>
    <g id="text_14">
     <!-- True Positive Rate (Positive label: 1) -->
     <g transform="translate(14.798438 274.827031)rotate(-90)scale(0.1 -0.1)">
      <defs>
       <path d="M -19 4666 
L 3928 4666 
L 3928 4134 
L 2272 4134 
L 2272 0 
L 1638 0 
L 1638 4134 
L -19 4134 
L -19 4666 
z
" id="DejaVuSans-54" transform="scale(0.015625)"/>
       <path d="M 2631 2963 
Q 2534 3019 2420 3045 
Q 2306 3072 2169 3072 
Q 1681 3072 1420 2755 
Q 1159 2438 1159 1844 
L 1159 0 
L 581 0 
L 581 3500 
L 1159 3500 
L 1159 2956 
Q 1341 3275 1631 3429 
Q 1922 3584 2338 3584 
Q 2397 3584 2469 3576 
Q 2541 3569 2628 3553 
L 2631 2963 
z
" id="DejaVuSans-72" transform="scale(0.015625)"/>
       <path d="M 544 1381 
L 544 3500 
L 1119 3500 
L 1119 1403 
Q 1119 906 1312 657 
Q 1506 409 1894 409 
Q 2359 409 2629 706 
Q 2900 1003 2900 1516 
L 2900 3500 
L 3475 3500 
L 3475 0 
L 2900 0 
L 2900 538 
Q 2691 219 2414 64 
Q 2138 -91 1772 -91 
Q 1169 -91 856 284 
Q 544 659 544 1381 
z
M 1991 3584 
L 1991 3584 
z
" id="DejaVuSans-75" transform="scale(0.015625)"/>
      </defs>
      <use xlink:href="#DejaVuSans-54"/>
      <use x="46.333984" xlink:href="#DejaVuSans-72"/>
      <use x="87.447266" xlink:href="#DejaVuSans-75"/>
      <use x="150.826172" xlink:href="#DejaVuSans-65"/>
      <use x="212.349609" xlink:href="#DejaVuSans-20"/>
      <use x="244.136719" xlink:href="#DejaVuSans-50"/>
      <use x="300.814453" xlink:href="#DejaVuSans-6f"/>
      <use x="361.996094" xlink:href="#DejaVuSans-73"/>
      <use x="414.095703" xlink:href="#DejaVuSans-69"/>
      <use x="441.878906" xlink:href="#DejaVuSans-74"/>
      <use x="481.087891" xlink:href="#DejaVuSans-69"/>
      <use x="508.871094" xlink:href="#DejaVuSans-76"/>
      <use x="568.050781" xlink:href="#DejaVuSans-65"/>
      <use x="629.574219" xlink:href="#DejaVuSans-20"/>
      <use x="661.361328" xlink:href="#DejaVuSans-52"/>
      <use x="728.59375" xlink:href="#DejaVuSans-61"/>
      <use x="789.873047" xlink:href="#DejaVuSans-74"/>
      <use x="829.082031" xlink:href="#DejaVuSans-65"/>
      <use x="890.605469" xlink:href="#DejaVuSans-20"/>
      <use x="922.392578" xlink:href="#DejaVuSans-28"/>
      <use x="961.40625" xlink:href="#DejaVuSans-50"/>
      <use x="1018.083984" xlink:href="#DejaVuSans-6f"/>
      <use x="1079.265625" xlink:href="#DejaVuSans-73"/>
      <use x="1131.365234" xlink:href="#DejaVuSans-69"/>
      <use x="1159.148438" xlink:href="#DejaVuSans-74"/>
      <use x="1198.357422" xlink:href="#DejaVuSans-69"/>
      <use x="1226.140625" xlink:href="#DejaVuSans-76"/>
      <use x="1285.320312" xlink:href="#DejaVuSans-65"/>
      <use x="1346.84375" xlink:href="#DejaVuSans-20"/>
      <use x="1378.630859" xlink:href="#DejaVuSans-6c"/>
      <use x="1406.414062" xlink:href="#DejaVuSans-61"/>
      <use x="1467.693359" xlink:href="#DejaVuSans-62"/>
      <use x="1531.169922" xlink:href="#DejaVuSans-65"/>
      <use x="1592.693359" xlink:href="#DejaVuSans-6c"/>
      <use x="1620.476562" xlink:href="#DejaVuSans-3a"/>
      <use x="1654.167969" xlink:href="#DejaVuSans-20"/>
      <use x="1685.955078" xlink:href="#DejaVuSans-31"/>
      <use x="1749.578125" xlink:href="#DejaVuSans-29"/>
     </g>
    </g>
   </g>
   <g id="line2d_13">
    <path clip-path="url(#p690d32a7d8)" d="M 58.999432 333.65267 
L 59.107391 330.452384 
L 59.112789 330.452384 
L 59.220748 329.030034 
L 59.24234 328.928438 
L 59.350299 327.658483 
L 59.371891 327.556887 
L 59.469054 326.439326 
L 59.506839 326.33773 
L 59.614799 325.220169 
L 59.630992 325.118573 
L 59.738952 324.508995 
L 59.765941 324.458196 
L 59.8739 323.391434 
L 59.879298 323.391434 
L 59.976461 322.680259 
L 60.014247 322.578663 
L 60.122206 321.765892 
L 60.186982 321.664295 
L 60.294941 320.800726 
L 60.61342 318.971991 
L 60.705185 317.85443 
L 60.742971 317.752834 
L 60.85093 316.533677 
L 60.872522 316.432081 
L 60.980481 315.771704 
L 61.029063 315.670108 
L 61.137022 315.060529 
L 61.158613 314.958933 
L 61.266572 313.841373 
L 61.282766 313.739776 
L 61.390725 313.231794 
L 61.417715 313.130198 
L 61.525674 312.368225 
L 61.552664 312.317427 
L 61.660623 311.911041 
L 61.671419 311.911041 
L 61.779378 311.250664 
L 61.833358 311.149068 
L 61.898133 310.437893 
L 61.957511 310.387095 
L 62.06547 309.218736 
L 62.108653 309.11714 
L 62.259796 308.659956 
L 62.281388 308.609158 
L 62.389347 307.948781 
L 62.437929 307.847185 
L 62.54049 307.186808 
L 62.556684 307.085212 
L 62.659245 306.01845 
L 62.686234 305.916853 
L 62.788796 305.662862 
L 62.842775 305.662862 
L 62.918346 305.104082 
L 62.972326 305.053284 
L 63.058693 304.240513 
L 63.107275 304.138917 
L 63.204438 303.427742 
L 63.231428 303.427742 
L 63.333989 302.868962 
L 63.350183 302.767365 
L 63.441948 302.106989 
L 63.517519 302.005392 
L 63.625478 301.294217 
L 63.668662 301.192621 
L 63.755029 300.633841 
L 63.846795 300.532244 
L 63.954754 299.617877 
L 63.970947 299.617877 
L 64.030325 299.109895 
L 64.078907 299.109895 
L 64.127488 299.008298 
L 64.213855 298.601913 
L 64.246243 298.551115 
L 64.348804 297.992334 
L 64.381192 297.941536 
L 64.472957 297.535151 
L 64.516141 297.433554 
L 64.6241 296.722379 
L 64.705069 296.620783 
L 64.80763 295.85881 
L 64.877804 295.808012 
L 64.980365 295.249232 
L 65.04514 295.198433 
L 65.136906 294.690451 
L 65.196283 294.588855 
L 65.288048 294.43646 
L 65.304242 294.43646 
L 65.325834 294.385662 
L 65.390609 293.776084 
L 65.444589 293.725286 
L 65.444589 293.674487 
L 65.638915 292.810918 
L 65.698293 292.709322 
L 65.800854 292.099743 
L 65.806252 292.099743 
L 66.081547 289.966219 
L 66.178711 289.864622 
L 66.275874 289.051851 
L 66.302864 289.001053 
L 66.378435 288.543869 
L 66.454006 288.442273 
L 66.556567 287.985089 
L 66.578159 287.934291 
L 66.664527 287.070721 
L 66.740098 286.969125 
L 66.831863 286.461143 
L 66.848057 286.461143 
L 66.875047 286.410345 
L 66.983006 285.69917 
L 67.004598 285.597574 
L 67.112557 284.937197 
L 67.134148 284.835601 
L 67.242108 284.530811 
L 67.296087 284.429215 
L 67.404046 283.921233 
L 67.495811 283.819637 
L 67.598373 283.565646 
L 67.65775 283.464049 
L 67.765709 283.006865 
L 67.835883 282.905269 
L 67.927648 282.143296 
L 67.976229 282.143296 
L 68.084188 281.584516 
L 68.111178 281.482919 
L 68.219137 281.17813 
L 68.310902 281.076534 
L 68.408066 280.416157 
L 68.456647 280.314561 
L 68.55381 279.958974 
L 68.591596 279.857377 
L 68.699555 279.197001 
L 68.731943 279.146202 
L 68.764331 278.892211 
L 68.785922 278.892211 
L 68.850698 278.790615 
L 68.958657 278.384229 
L 68.969453 278.282633 
L 69.066616 277.876247 
L 69.099004 277.825449 
L 69.099004 277.774651 
L 69.244749 277.114274 
L 69.26634 277.012678 
L 69.363504 276.4031 
L 69.374299 276.4031 
L 69.439075 276.301503 
L 69.541636 275.641127 
L 69.611809 275.53953 
L 69.671187 275.183943 
L 69.714371 275.183943 
L 69.82233 275.082346 
L 69.914095 274.574364 
L 69.957278 274.472768 
L 70.016656 274.269575 
L 70.113819 274.167979 
L 70.205584 273.913988 
L 70.248768 273.86319 
L 70.356727 273.253611 
L 70.399911 273.253611 
L 70.399911 273.152015 
L 70.470084 272.542436 
L 70.53486 272.44084 
L 70.642819 271.780463 
L 70.669808 271.678867 
L 70.777767 271.272481 
L 70.842543 271.170885 
L 70.945104 270.967692 
L 71.020675 270.866096 
L 71.117839 270.358114 
L 71.16642 270.358114 
L 71.263583 269.646939 
L 71.328359 269.545343 
L 71.43092 269.037361 
L 71.474104 269.037361 
L 71.582063 268.326186 
L 71.625246 268.224589 
L 71.69542 267.564213 
L 71.792583 267.462616 
L 71.900542 266.853038 
L 71.927532 266.751442 
L 71.997705 266.446652 
L 72.073276 266.345056 
L 72.175838 265.93867 
L 72.29999 265.887872 
L 72.370164 265.481487 
L 72.418745 265.37989 
L 72.521307 265.024303 
L 72.542898 265.024303 
L 72.650857 264.465523 
L 72.667051 264.363926 
L 72.758817 264.059137 
L 72.88297 263.957541 
L 72.958541 263.500357 
L 73.023316 263.39876 
L 73.131275 263.195568 
L 73.152867 263.093971 
L 73.223041 262.83998 
L 73.314806 262.738384 
L 73.422765 262.331998 
L 73.51453 262.230402 
L 73.611693 261.824016 
L 73.671071 261.72242 
L 73.773632 261.316034 
L 73.838407 261.214438 
L 73.892387 260.960447 
L 73.946366 260.960447 
L 74.01654 260.85885 
L 74.092111 260.706456 
L 74.216264 260.604859 
L 74.324223 260.046079 
L 74.405193 259.944483 
L 74.507754 259.487299 
L 74.545539 259.436501 
L 74.653498 259.080913 
L 74.745264 258.979317 
L 74.853223 258.62373 
L 74.891008 258.522133 
L 74.955784 258.31894 
L 75.047549 258.217344 
L 75.12312 257.912555 
L 75.20409 257.912555 
L 75.20409 257.810958 
L 75.41461 257.302976 
L 75.490181 257.20138 
L 75.592742 256.947389 
L 75.700701 256.845793 
L 75.808661 256.337811 
L 75.868038 256.287013 
L 75.954405 255.982223 
L 76.067762 255.880627 
L 76.229701 255.271049 
L 76.326864 255.169452 
L 76.429425 254.966259 
L 76.478007 254.915461 
L 76.585966 254.10269 
L 76.618354 254.001094 
L 76.769496 253.493112 
L 76.791088 253.493112 
L 76.899047 253.188322 
L 76.926037 253.188322 
L 77.0232 252.731139 
L 77.087976 252.629542 
L 77.195935 252.223157 
L 77.374067 252.12156 
L 77.476628 251.410385 
L 77.530608 251.359587 
L 77.638567 250.750009 
L 77.714138 250.648412 
L 77.816699 250.44522 
L 77.903067 250.343623 
L 77.994832 250.14043 
L 78.054209 250.038834 
L 78.162169 249.530852 
L 78.199954 249.429256 
L 78.307913 249.02287 
L 78.334903 248.921274 
L 78.42127 248.718081 
L 78.437464 248.718081 
L 78.486046 248.616484 
L 78.745148 247.90531 
L 78.826117 247.803713 
L 78.928678 247.346529 
L 79.020443 247.295731 
L 79.128402 246.787749 
L 79.144596 246.686153 
L 79.252555 246.178171 
L 79.322729 246.127373 
L 79.527851 245.517794 
L 79.6628 245.416198 
L 79.770759 244.806619 
L 79.857126 244.705023 
L 79.905708 244.552628 
L 79.927299 244.552628 
L 80.024463 244.451032 
L 80.100034 244.197041 
L 80.175605 244.095445 
L 80.326748 243.638261 
L 80.391524 243.536664 
L 80.499483 243.130279 
L 80.548064 243.028682 
L 80.650625 242.673095 
L 80.656023 242.673095 
L 80.693809 242.571499 
L 80.79637 242.317508 
L 80.888135 242.266709 
L 80.979901 242.012718 
L 81.125645 241.911122 
L 81.228206 241.555535 
L 81.29838 241.453938 
L 81.433329 241.149149 
L 81.492706 241.047553 
L 81.546686 240.793562 
L 81.633053 240.742763 
L 81.735614 240.336378 
L 81.821981 240.234781 
L 81.897553 239.777598 
L 81.940736 239.777598 
L 81.946134 239.574405 
L 82.108073 239.523607 
L 82.178246 239.168019 
L 82.318593 239.066423 
L 82.377971 238.761634 
L 82.475134 238.660037 
L 82.550705 238.456844 
L 82.750429 238.355248 
L 82.820603 237.948862 
L 82.950154 237.847266 
L 83.004133 237.644073 
L 83.052715 237.644073 
L 83.085103 237.542477 
L 83.182266 236.932898 
L 83.252439 236.831302 
L 83.344204 236.32332 
L 83.441368 236.221724 
L 83.543929 236.069329 
L 83.560123 236.069329 
L 83.630296 235.76454 
L 83.662684 235.76454 
L 83.705867 235.662943 
L 83.80303 235.358154 
L 83.975765 235.256558 
L 84.051336 235.053365 
L 84.159295 234.951769 
L 84.261857 234.748576 
L 84.461581 234.646979 
L 84.56954 234.291392 
L 84.628917 234.189796 
L 84.666703 233.834208 
L 84.774662 233.78341 
L 84.871825 233.529419 
L 84.985182 233.427823 
L 85.098539 233.326226 
L 85.141723 233.275428 
L 85.195703 233.123033 
L 85.222692 233.123033 
L 85.319856 233.072235 
L 85.417019 232.767446 
L 85.530376 232.66585 
L 85.611345 232.310262 
L 85.670723 232.208666 
L 85.762488 231.700684 
L 85.778682 231.700684 
L 85.881243 231.599088 
L 85.951416 231.345097 
L 86.010794 231.2435 
L 86.113355 230.938711 
L 86.183528 230.837115 
L 86.242906 230.68472 
L 86.377855 230.583124 
L 86.485814 230.227536 
L 86.593773 230.176738 
L 86.690936 229.719554 
L 86.788099 229.668756 
L 86.788099 229.617958 
L 86.928446 229.465563 
L 86.971629 229.363967 
L 87.079589 229.059178 
L 87.144364 228.957581 
L 87.219935 228.601994 
L 87.246925 228.601994 
L 87.290109 228.551196 
L 87.39267 228.195608 
L 87.446649 228.094012 
L 87.516823 227.738424 
L 87.560006 227.738424 
L 87.635578 227.382837 
L 87.694955 227.281241 
L 87.781323 227.02725 
L 87.797516 227.02725 
L 87.856894 226.976451 
L 87.856894 226.925653 
L 88.008037 226.468469 
L 88.040424 226.366873 
L 88.142985 225.909689 
L 88.186169 225.808093 
L 88.250945 225.554102 
L 88.321118 225.503304 
L 88.407485 225.198514 
L 88.558628 225.096918 
L 88.666587 224.792129 
L 88.779944 224.690532 
L 88.871709 224.334945 
L 88.882505 224.334945 
L 88.963474 224.080954 
L 89.033648 223.725367 
L 89.066036 223.725367 
L 89.125413 223.62377 
L 89.21178 223.522174 
L 89.222576 223.522174 
L 89.406107 223.420577 
L 89.50327 223.06499 
L 89.524862 223.014192 
L 89.843341 222.049026 
L 89.956698 221.94743 
L 90.064657 221.64264 
L 90.178014 221.591842 
L 90.178014 221.439448 
L 90.269779 221.439448 
L 90.437116 221.337851 
L 90.518085 220.982264 
L 90.582861 220.880667 
L 90.669228 220.677475 
L 90.685422 220.677475 
L 90.766391 220.575878 
L 90.922932 219.9663 
L 91.117258 219.864703 
L 91.219819 219.712309 
L 91.397952 219.610712 
L 91.489717 219.356721 
L 91.500513 219.356721 
L 91.538299 219.356721 
L 91.624666 218.797941 
L 91.646258 218.797941 
L 91.808196 218.493152 
L 91.916155 218.391556 
L 92.051104 217.98517 
L 92.261624 217.883574 
L 92.331798 217.781977 
L 92.369583 217.781977 
L 92.499134 217.680381 
L 92.531522 217.578784 
L 92.5909 217.578784 
L 92.866195 217.477188 
L 92.941767 217.375592 
L 93.173879 217.273995 
L 93.319623 216.86761 
L 93.416787 216.766013 
L 93.476164 216.664417 
L 93.692082 216.56282 
L 93.800041 216.054838 
L 93.810837 216.054838 
L 93.810837 216.00404 
L 94.62053 214.02291 
L 94.636724 213.870516 
L 94.712295 213.870516 
L 94.88503 213.768919 
L 94.960601 213.46413 
L 95.06856 213.362534 
L 95.14953 212.752955 
L 95.17652 212.752955 
L 95.289877 212.651359 
L 95.370846 212.549763 
L 95.484203 212.448166 
L 95.581366 212.041781 
L 95.619152 211.940184 
L 95.716315 211.78779 
L 95.905243 211.686193 
L 95.986213 211.178211 
L 96.061784 211.076615 
L 96.07258 210.975018 
L 96.121161 210.975018 
L 96.277702 210.873422 
L 96.326284 210.670229 
L 96.342478 210.670229 
L 96.682549 210.111449 
L 96.75812 210.009853 
L 96.866079 209.705063 
L 96.871477 209.705063 
L 96.914661 209.349476 
L 97.001028 209.24788 
L 97.108987 208.790696 
L 97.265528 208.6891 
L 97.265528 208.638301 
L 97.335701 208.638301 
L 97.540823 208.536705 
L 97.643385 208.38431 
L 97.65418 208.38431 
L 97.740548 208.028723 
L 97.826915 207.927127 
L 97.89169 207.774732 
L 97.951068 207.673136 
L 98.075221 207.419145 
L 98.1292 207.317548 
L 98.166986 207.165154 
L 98.188578 207.165154 
L 98.355914 207.114355 
L 98.426088 206.860364 
L 98.577231 206.758768 
L 98.679792 206.403181 
L 98.68519 206.403181 
L 98.771557 206.14919 
L 98.944291 206.098391 
L 99.046853 205.895199 
L 99.10623 205.8444 
L 99.176403 205.539611 
L 99.208791 205.539611 
L 99.500281 205.031629 
L 99.770178 204.930033 
L 99.87274 204.523647 
L 99.888933 204.422051 
L 99.996892 204.218858 
L 100.131841 204.117262 
L 100.2398 203.964867 
L 100.342362 203.863271 
L 100.423331 203.660078 
L 100.547484 203.558481 
L 100.644647 203.050499 
L 100.774198 202.948903 
L 100.844371 202.74571 
L 100.882157 202.74571 
L 100.892953 202.74571 
L 101.049493 202.390123 
L 101.130463 202.288526 
L 101.529911 201.374159 
L 101.605483 201.272562 
L 101.681054 200.916975 
L 101.832197 200.815379 
L 101.918564 200.612186 
L 101.940156 200.612186 
L 102.11289 200.510589 
L 102.204656 200.104204 
L 102.307217 200.053406 
L 102.415176 199.64702 
L 102.485349 199.545424 
L 102.577114 199.342231 
L 102.64189 199.240634 
L 102.674278 198.885047 
L 102.744451 198.885047 
L 102.857808 198.783451 
L 103.100716 198.326267 
L 103.224869 198.22467 
L 103.30044 198.021478 
L 103.392206 197.919881 
L 103.500165 197.716688 
L 103.532552 197.66589 
L 103.818644 197.10711 
L 103.915807 197.005514 
L 104.023766 196.700724 
L 104.072348 196.599128 
L 104.126327 196.395935 
L 104.180307 196.395935 
L 104.261276 196.294339 
L 104.342245 195.887953 
L 104.358439 195.887953 
L 106.139764 192.332079 
L 106.188346 192.179685 
L 106.199142 192.179685 
L 106.323295 192.078088 
L 106.393468 191.925694 
L 106.506825 191.824097 
L 106.506825 191.773299 
L 106.587794 191.773299 
L 106.641774 191.722501 
L 106.722743 191.46851 
L 106.733539 191.46851 
L 107.213957 190.60494 
L 107.359702 190.503344 
L 107.451467 189.944564 
L 107.467661 189.944564 
L 107.597212 189.842967 
L 107.699773 189.690573 
L 107.775344 189.690573 
L 107.861711 189.182591 
L 107.958875 189.080994 
L 108.163997 188.725407 
L 108.228772 188.623811 
L 108.336731 188.268223 
L 108.390711 188.217425 
L 108.493272 188.115829 
L 108.531058 188.06503 
L 108.639017 187.658645 
L 108.714588 187.557048 
L 108.806353 187.353856 
L 108.989884 187.252259 
L 109.070853 186.94747 
L 109.081649 186.94747 
L 109.221996 186.896672 
L 109.329955 186.642681 
L 109.356945 186.541084 
L 109.39473 186.439488 
L 109.42172 186.439488 
L 109.761791 185.982304 
L 109.858954 185.931506 
L 109.966913 185.728313 
L 110.177434 185.626717 
L 110.279995 185.423524 
L 110.452729 185.321928 
L 110.549893 185.067937 
L 110.630862 184.96634 
L 110.690239 184.864744 
L 110.803596 184.813946 
L 110.906157 184.458358 
L 111.008719 184.356762 
L 111.11128 184.051973 
L 111.159861 183.950376 
L 111.257025 183.645587 
L 111.273218 183.645587 
L 111.391973 183.188403 
L 111.5863 183.086807 
L 111.683463 182.832816 
L 111.76983 182.73122 
L 111.807616 182.528027 
L 111.877789 182.528027 
L 112.115299 182.172439 
L 112.212462 181.766054 
L 112.21786 181.766054 
L 112.363605 181.664457 
L 112.406789 181.512063 
L 112.417585 181.512063 
L 112.53634 181.410466 
L 112.628105 181.004081 
L 112.709074 180.902484 
L 112.752258 180.699292 
L 112.817033 180.699292 
L 112.973574 180.597695 
L 113.043747 180.445301 
L 113.319043 180.343704 
L 113.340635 180.242108 
L 113.383818 180.242108 
L 113.540359 180.140511 
L 113.637522 179.937319 
L 113.648318 179.937319 
L 113.767073 179.835722 
L 113.85344 179.632529 
L 113.864236 179.632529 
L 113.896624 179.632529 
L 114.182716 179.073749 
L 114.263685 178.972153 
L 114.360848 178.718162 
L 114.425624 178.616565 
L 114.522787 178.362574 
L 114.64694 178.260978 
L 114.776491 178.006987 
L 114.965419 177.905391 
L 115.057184 177.752996 
L 115.165143 177.6514 
L 115.267704 177.194216 
L 115.386459 177.092619 
L 115.483622 176.838628 
L 115.548398 176.737032 
L 115.548398 176.686234 
L 115.618571 176.686234 
L 115.721132 176.584637 
L 115.78051 176.279848 
L 115.996428 176.178252 
L 116.028816 175.975059 
L 116.190754 175.873463 
L 116.320305 175.619472 
L 116.368887 175.517875 
L 116.471448 175.213086 
L 116.476846 175.213086 
L 116.595601 175.11149 
L 116.633387 175.009893 
L 116.70356 175.009893 
L 116.73055 174.908297 
L 116.811519 174.755902 
L 117.081417 174.654306 
L 117.189376 174.501911 
L 117.432284 174.400315 
L 117.518651 174.197122 
L 117.534845 174.197122 
L 117.578029 174.095526 
L 117.675192 173.943131 
L 117.739967 173.892333 
L 117.756161 173.68914 
L 117.847926 173.68914 
L 118.12862 173.587544 
L 118.236579 173.282754 
L 118.495681 173.181158 
L 118.716997 173.028763 
L 118.743987 172.977965 
L 118.851946 172.622378 
L 119.07866 172.520781 
L 119.138037 172.26679 
L 119.251394 172.165194 
L 119.353956 171.860405 
L 119.488904 171.758808 
L 119.58067 171.606414 
L 119.699425 171.504817 
L 119.79119 171.352423 
L 119.904547 171.301625 
L 119.904547 171.250826 
L 120.007108 171.14923 
L 120.093475 171.047634 
L 120.196036 170.793643 
L 120.260812 170.692046 
L 120.347179 170.438055 
L 120.384965 170.387257 
L 120.455138 170.184064 
L 120.487526 170.184064 
L 120.519914 170.133266 
L 120.579291 169.828477 
L 120.681852 169.72688 
L 120.752026 169.574486 
L 120.859985 169.472889 
L 120.967944 169.320495 
L 121.027321 169.218898 
L 121.119086 168.964907 
L 121.18926 168.863311 
L 121.281025 168.660118 
L 121.45376 168.558522 
L 121.556321 168.355329 
L 121.615698 168.253733 
L 121.718259 168.101338 
L 121.777637 167.999742 
L 121.880198 167.898145 
L 121.923382 167.796549 
L 122.031341 167.440961 
L 122.096116 167.339365 
L 122.187881 166.983778 
L 122.268851 166.882181 
L 122.366014 166.678988 
L 122.53335 166.577392 
L 122.61432 166.374199 
L 122.630514 166.374199 
L 122.727677 166.272603 
L 122.727677 166.221805 
L 122.830238 166.221805 
L 122.927401 166.120208 
L 122.981381 166.018612 
L 122.997574 166.018612 
L 123.094738 165.917015 
L 123.202697 165.663024 
L 123.224289 165.561428 
L 123.332248 165.409033 
L 123.515778 165.307437 
L 123.612941 165.155042 
L 123.780278 165.053446 
L 123.796472 164.901051 
L 123.93142 164.850253 
L 123.9854 164.697859 
L 124.033982 164.697859 
L 124.212114 164.596262 
L 124.293083 164.342271 
L 124.552185 164.240675 
L 124.660144 163.885087 
L 124.762705 163.783491 
L 124.843675 163.580298 
L 124.96243 163.478702 
L 125.054195 163.173913 
L 125.129766 163.072316 
L 125.221532 162.869123 
L 125.270113 162.767527 
L 125.372674 162.462738 
L 125.556205 162.361141 
L 125.658766 162.005554 
L 125.664164 162.005554 
L 125.777521 161.903958 
L 126.085204 161.802361 
L 126.133786 161.649967 
L 126.182367 161.649967 
L 126.33351 161.54837 
L 126.414479 161.294379 
L 126.441469 161.294379 
L 126.468459 161.192783 
L 126.576418 161.091187 
L 126.673581 160.98959 
L 126.813928 160.887994 
L 126.894897 160.684801 
L 126.99206 160.583205 
L 127.094622 160.481608 
L 127.25656 160.380012 
L 127.353723 160.075223 
L 127.391509 159.973626 
L 127.499468 159.668837 
L 127.585835 159.618039 
L 127.677601 159.31325 
L 127.693794 159.31325 
L 127.855733 159.211653 
L 127.963692 159.059259 
L 128.039263 158.957662 
L 128.098641 158.754469 
L 128.109437 158.754469 
L 128.211998 158.652873 
L 128.336151 158.551277 
L 128.427916 158.500478 
L 128.49809 158.348084 
L 128.606049 158.246487 
L 128.697814 158.094093 
L 128.714008 158.094093 
L 128.838161 158.043295 
L 128.838161 157.941698 
L 128.929926 157.941698 
L 129.037885 157.840102 
L 129.091865 157.586111 
L 129.216017 157.484514 
L 129.307783 157.179725 
L 129.323977 157.179725 
L 129.496711 157.078129 
L 129.496711 157.027331 
L 129.653252 156.925734 
L 129.696435 156.824138 
L 129.750415 156.824138 
L 129.86917 156.722541 
L 129.86917 156.671743 
L 129.89616 156.671743 
L 130.031109 156.570147 
L 130.128272 156.214559 
L 130.268618 156.112963 
L 130.34419 155.808174 
L 130.37118 155.808174 
L 130.543914 155.706577 
L 130.5817 155.554183 
L 130.910975 155.452586 
L 131.008138 155.300192 
L 131.391393 155.198595 
L 131.396791 155.046201 
L 131.499352 155.046201 
L 131.645097 154.944604 
L 131.726066 154.741412 
L 131.812433 154.690613 
L 131.904199 154.538219 
L 132.184892 154.436622 
L 132.228076 154.284228 
L 132.45479 154.182631 
L 132.546555 153.979439 
L 132.611331 153.92864 
L 132.649116 153.725448 
L 132.773269 153.623851 
L 132.881228 153.471457 
L 132.892024 153.420658 
L 132.972993 153.014273 
L 133.16732 152.963475 
L 133.269881 152.658685 
L 133.367044 152.557089 
L 133.448013 152.455493 
L 133.609952 152.404694 
L 133.690921 152.049107 
L 134.057982 151.947511 
L 134.122758 151.795116 
L 134.160543 151.795116 
L 134.306288 151.744318 
L 134.414247 151.38873 
L 134.500614 151.287134 
L 134.554594 151.185538 
L 134.711135 151.083941 
L 134.77591 150.779152 
L 134.910859 150.677556 
L 134.916257 150.575959 
L 135.261726 150.525161 
L 135.353491 150.27117 
L 135.423665 150.169574 
L 135.423665 150.067977 
L 135.634185 149.966381 
L 135.634185 149.915583 
L 135.817715 149.813986 
L 135.920276 149.71239 
L 136.082215 149.610793 
L 136.087613 149.509197 
L 136.157786 149.509197 
L 136.308929 149.458399 
L 136.308929 149.356802 
L 136.395296 149.356802 
L 136.514051 149.255206 
L 136.578827 149.001215 
L 136.789347 148.899619 
L 136.897306 148.696426 
L 136.994469 148.594829 
L 137.021459 148.442435 
L 137.053847 148.442435 
L 137.183398 148.340838 
L 137.253571 148.137646 
L 137.480285 148.036049 
L 137.550458 147.883655 
L 137.561254 147.883655 
L 137.620632 147.832856 
L 137.680009 147.578865 
L 137.831152 147.477269 
L 137.858142 147.324874 
L 137.939111 147.324874 
L 138.052468 147.223278 
L 138.12804 146.918489 
L 138.203611 146.816892 
L 138.31157 146.664498 
L 138.370947 146.562901 
L 138.424927 146.410507 
L 138.667835 146.359709 
L 138.73261 146.156516 
L 138.926937 146.054919 
L 139.0241 145.851727 
L 139.142855 145.75013 
L 139.142855 145.699332 
L 139.229222 145.699332 
L 139.385763 145.597736 
L 139.482926 145.445341 
L 139.833793 145.343745 
L 139.914762 145.038955 
L 139.92016 145.038955 
L 141.501761 142.702238 
L 141.631312 142.600642 
L 141.733873 142.499045 
L 141.836434 142.397449 
L 141.933597 142.143458 
L 142.041556 142.041862 
L 142.133321 141.737072 
L 142.192699 141.686274 
L 142.300658 141.432283 
L 142.387025 141.330687 
L 142.408617 141.178292 
L 142.521974 141.076696 
L 142.55976 140.873503 
L 142.7163 140.771907 
L 142.802668 140.517916 
L 142.82426 140.517916 
L 142.959208 140.467117 
L 143.040178 140.263925 
L 143.148137 140.162328 
L 143.223708 139.959135 
L 143.391045 139.857539 
L 143.472014 139.654346 
L 143.601565 139.55275 
L 143.704126 139.400355 
L 143.801289 139.298759 
L 143.990218 138.841575 
L 144.076585 138.739979 
L 144.162952 138.485988 
L 144.314095 138.384391 
L 144.37887 138.181198 
L 144.481431 138.079602 
L 144.583993 137.774813 
L 144.67036 137.673217 
L 144.772921 137.470024 
L 144.967247 137.368427 
L 145.247941 136.809647 
L 145.361298 136.758849 
L 145.463859 136.45406 
L 145.588012 136.352463 
L 145.695971 136.149271 
L 145.836318 136.047674 
L 145.933481 135.793683 
L 145.944277 135.793683 
L 146.04144 135.692087 
L 146.149399 135.59049 
L 146.25196 135.488894 
L 146.25196 135.438096 
L 146.300542 135.438096 
L 146.446287 135.336499 
L 146.532654 135.184105 
L 146.737776 135.082508 
L 146.797154 134.980912 
L 146.824143 134.980912 
L 147.023868 134.879316 
L 147.115633 134.625325 
L 147.309959 134.523728 
L 147.369337 134.168141 
L 147.396327 134.168141 
L 147.450306 134.066544 
L 147.515082 133.964948 
L 147.552867 133.964948 
L 147.720204 133.863352 
L 147.736398 133.761755 
L 148.243805 133.660159 
L 148.346366 133.406168 
L 148.529897 133.304571 
L 148.540693 133.202975 
L 148.616264 133.202975 
L 148.880764 133.101379 
L 148.940141 132.948984 
L 148.983325 132.948984 
L 149.215437 132.847388 
L 149.317998 132.593397 
L 149.485335 132.4918 
L 149.506927 132.339406 
L 149.5771 132.339406 
L 149.674263 132.237809 
L 149.771426 132.136213 
L 150.008936 132.034616 
L 150.095304 131.780625 
L 150.278834 131.729827 
L 150.381395 131.526634 
L 150.618905 131.425038 
L 150.71067 131.272643 
L 150.834823 131.221845 
L 150.834823 131.171047 
L 150.942782 131.069451 
L 151.034548 131.018652 
L 151.137109 130.81546 
L 151.353027 130.713863 
L 151.4232 130.612267 
L 151.460986 130.612267 
L 151.671506 130.155083 
L 151.87123 130.053487 
L 151.962996 129.850294 
L 152.054761 129.748697 
L 152.157322 129.545505 
L 152.227495 129.443908 
L 152.367842 129.189917 
L 152.58376 129.088321 
L 152.58376 129.037523 
L 152.929229 128.935926 
L 152.929229 128.885128 
L 152.988607 128.885128 
L 153.101964 128.783532 
L 153.172137 128.732733 
L 153.236913 128.631137 
L 153.307086 128.326348 
L 153.58778 128.224751 
L 153.679545 128.123155 
L 153.98183 128.021559 
L 153.98183 127.97076 
L 154.494636 127.869164 
L 154.570207 127.665971 
L 154.780728 127.564375 
L 154.856299 127.361182 
L 154.888687 127.361182 
L 155.099207 127.259586 
L 155.142391 127.208787 
L 155.43388 127.107191 
L 155.504053 127.005595 
L 155.612013 126.903998 
L 155.612013 126.8532 
L 155.790145 126.751604 
L 155.892706 126.396016 
L 156.054645 126.29442 
L 156.09243 126.192823 
L 156.162604 126.192823 
L 156.319145 126.091227 
L 156.41091 125.837236 
L 156.545859 125.786438 
L 156.605236 125.43085 
L 156.788767 125.329254 
L 156.85894 125.176859 
L 156.999287 125.075263 
L 157.09645 124.719676 
L 157.317766 124.618079 
L 157.377143 124.414886 
L 157.566072 124.31329 
L 157.609256 124.160895 
L 157.647041 124.160895 
L 157.841368 124.059299 
L 157.841368 123.957703 
L 157.868357 123.957703 
L 157.987112 123.856106 
L 158.062684 123.602115 
L 158.251612 123.500519 
L 158.337979 123.348124 
L 158.472928 123.246528 
L 158.575489 122.941739 
L 158.812999 122.840142 
L 158.872377 122.738546 
L 158.910162 122.738546 
L 159.115285 122.636949 
L 159.20705 122.484555 
L 159.217846 122.484555 
L 159.336601 122.382958 
L 159.336601 122.33216 
L 159.503937 122.281362 
L 159.590305 122.128967 
L 159.730651 122.027371 
L 159.730651 121.976573 
L 159.795427 121.976573 
L 160.097712 121.874976 
L 160.178682 121.77338 
L 160.205671 121.77338 
L 160.513355 121.671784 
L 160.513355 121.620985 
L 160.60512 121.620985 
L 160.777855 121.519389 
L 160.885814 121.316196 
L 161.015364 121.2146 
L 161.047752 121.113003 
L 161.306854 121.011407 
L 161.355436 120.859012 
L 161.560558 120.757416 
L 161.663119 120.605021 
L 161.79267 120.503425 
L 161.889833 120.198636 
L 162.019384 120.097039 
L 162.121945 119.893847 
L 162.219108 119.79225 
L 162.316271 119.538259 
L 162.391843 119.436663 
L 162.462016 119.23347 
L 162.564577 119.131874 
L 162.650945 119.030277 
L 162.812883 118.979479 
L 162.888455 118.725488 
L 163.098975 118.67469 
L 163.185342 118.420699 
L 163.239322 118.319102 
L 163.239322 118.268304 
L 163.314893 118.268304 
L 163.525413 118.166708 
L 163.633372 117.912717 
L 163.762923 117.861919 
L 163.784515 117.658726 
L 164.065208 117.557129 
L 164.151576 117.455533 
L 164.551024 117.353937 
L 164.58881 117.25234 
L 164.729157 117.150744 
L 164.831718 117.049147 
L 165.004452 116.947551 
L 165.004452 116.896753 
L 165.306738 116.795156 
L 165.32833 116.642762 
L 165.517258 116.541165 
L 165.592829 116.439569 
L 165.738574 116.337973 
L 165.835737 116.033183 
L 165.970686 115.982385 
L 166.030064 115.829991 
L 166.051656 115.829991 
L 166.343145 115.728394 
L 166.386329 115.423605 
L 166.542869 115.372807 
L 166.596849 115.169614 
L 166.650828 115.169614 
L 166.769583 115.068018 
L 166.850553 114.763228 
L 167.093461 114.661632 
L 167.17443 114.509237 
L 167.41194 114.407641 
L 167.509103 114.255246 
L 167.795195 114.15365 
L 167.795195 114.102852 
L 167.973327 114.001255 
L 168.032705 113.848861 
L 168.254021 113.747265 
L 168.318796 113.59487 
L 168.329592 113.59487 
L 168.820806 113.493274 
L 168.847796 113.290081 
L 168.928765 113.290081 
L 169.144683 113.188484 
L 169.252642 112.832897 
L 169.392989 112.731301 
L 169.500948 112.578906 
L 169.711468 112.47731 
L 169.819427 112.375713 
L 169.954376 112.274117 
L 169.954376 112.223319 
L 169.99756 112.223319 
L 170.289049 112.121722 
L 170.316039 112.020126 
L 170.504968 111.918529 
L 170.612927 111.664538 
L 170.704692 111.562942 
L 170.769467 111.359749 
L 170.909814 111.258153 
L 170.9476 111.156556 
L 171.147324 111.105758 
L 171.147324 111.004162 
L 171.39563 110.902565 
L 171.492793 110.750171 
L 171.930027 110.648574 
L 171.994803 110.546978 
L 172.027191 110.546978 
L 172.205323 110.445382 
L 172.307884 110.191391 
L 172.464425 109.835803 
L 172.642557 109.734207 
L 172.696537 109.63261 
L 172.928649 109.531014 
L 172.988026 109.277023 
L 173.03121 109.277023 
L 173.187751 109.175427 
L 173.29571 108.921436 
L 173.490036 108.819839 
L 173.549414 108.718243 
L 173.651975 108.667445 
L 173.759934 108.311857 
L 173.803118 108.210261 
L 173.873291 108.057866 
L 174.16478 107.95627 
L 174.267342 107.753077 
L 174.386097 107.651481 
L 174.472464 107.499086 
L 174.655994 107.39749 
L 174.661392 107.295893 
L 174.963678 107.194297 
L 175.028453 107.0927 
L 175.357728 106.991104 
L 175.37932 106.889508 
L 175.730187 106.787911 
L 175.859738 106.483122 
L 175.994687 106.381526 
L 176.075656 106.330727 
L 176.296972 106.229131 
L 176.404931 106.178333 
L 176.545278 106.076736 
L 176.545278 106.025938 
L 177.079676 105.924342 
L 177.079676 105.873544 
L 177.284798 105.771947 
L 177.360369 105.517956 
L 177.5439 105.41636 
L 177.565491 105.314763 
L 177.630267 105.314763 
L 177.856981 105.213167 
L 178.002726 105.060772 
L 178.143073 104.959176 
L 178.213246 104.806781 
L 178.429164 104.705185 
L 178.456154 104.55279 
L 178.537123 104.55279 
L 178.88799 104.451194 
L 178.904184 104.298799 
L 178.947368 104.298799 
L 179.039133 104.197203 
L 179.114704 104.095607 
L 179.147092 104.095607 
L 179.201072 103.99401 
L 179.309031 103.841616 
L 179.497959 103.740019 
L 179.497959 103.689221 
L 179.6545 103.587625 
L 179.740867 103.232037 
L 179.918999 103.130441 
L 179.951387 103.028844 
L 180.026958 103.028844 
L 180.12952 102.927248 
L 180.226683 102.622459 
L 180.237479 102.622459 
L 180.329244 102.520862 
L 180.415611 102.419266 
L 180.52357 102.31767 
L 180.626131 102.216073 
L 180.744886 102.114477 
L 180.820458 101.911284 
L 181.07956 101.809688 
L 181.07956 101.758889 
L 181.171325 101.758889 
L 181.376447 101.657293 
L 181.381845 101.555697 
L 181.608559 101.4541 
L 181.608559 101.403302 
L 181.646345 101.403302 
L 182.072783 101.301706 
L 182.072783 101.250907 
L 182.153752 101.250907 
L 182.472232 101.149311 
L 182.569395 100.996916 
L 182.68815 100.89532 
L 182.752925 100.692127 
L 183.271129 100.590531 
L 183.271129 100.539733 
L 183.6112 100.438136 
L 183.659782 100.33654 
L 184.010649 100.234943 
L 184.140199 100.082549 
L 184.474873 99.980952 
L 184.577434 99.676163 
L 184.669199 99.574567 
L 184.750168 99.47297 
L 185.138821 99.371374 
L 185.235984 99.269778 
L 185.306157 99.168181 
L 185.435708 99.015787 
L 185.781177 98.91419 
L 185.862147 98.558603 
L 186.186024 98.457006 
L 186.19682 98.304612 
L 186.553085 98.203015 
L 186.585473 98.101419 
L 187.082084 97.999823 
L 187.163054 97.847428 
L 187.346584 97.745832 
L 187.427553 97.542639 
L 187.64887 97.441042 
L 187.64887 97.390244 
L 187.918767 97.288648 
L 187.929563 97.136253 
L 188.285828 97.034657 
L 188.377593 96.93306 
L 188.598909 96.831464 
L 188.598909 96.780666 
L 188.814828 96.679069 
L 188.928185 96.526675 
L 189.327633 96.425078 
L 189.424796 96.323482 
L 189.554347 96.272684 
L 189.640715 96.069491 
L 190.040163 95.967895 
L 190.148122 95.8155 
L 190.380234 95.713904 
L 190.428816 95.612307 
L 190.747295 95.510711 
L 190.822866 95.409114 
L 190.833662 95.409114 
L 191.049581 95.307518 
L 191.13055 95.155123 
L 191.373458 95.053527 
L 191.476019 94.850334 
L 191.729723 94.748738 
L 191.729723 94.647141 
L 191.76211 94.647141 
L 191.875468 94.545545 
L 191.880865 94.494747 
L 192.150763 94.39315 
L 192.150763 94.342352 
L 192.393671 94.240756 
L 192.507028 94.088361 
L 192.658171 93.986765 
L 192.733742 93.885168 
L 193.03063 93.783572 
L 193.03063 93.681976 
L 193.257344 93.631177 
L 193.365303 93.377186 
L 193.467864 93.27559 
L 193.570425 93.123195 
L 193.98067 93.021599 
L 194.013057 92.869204 
L 194.234373 92.767608 
L 194.234373 92.71681 
L 194.477281 92.666012 
L 194.574445 92.208828 
L 194.752577 92.15803 
L 194.82275 91.954837 
L 195.14123 91.85324 
L 195.243791 91.700846 
L 195.32476 91.650048 
L 195.32476 91.548451 
L 195.394934 91.548451 
L 195.497495 91.446855 
L 195.58926 91.345258 
L 195.988708 91.243662 
L 195.988708 91.192864 
L 196.096668 91.192864 
L 196.452933 91.091267 
L 196.452933 91.040469 
L 196.739024 90.938873 
L 196.74982 90.837276 
L 197.116881 90.73568 
L 197.187054 90.583285 
L 197.22484 90.583285 
L 197.289615 90.481689 
L 197.381381 90.278496 
L 197.613493 90.1769 
L 197.710656 89.973707 
L 198.207268 89.872111 
L 198.218063 89.770514 
L 198.417788 89.668918 
L 198.466369 89.516523 
L 198.849624 89.414927 
L 198.849624 89.364129 
L 199.384022 89.262532 
L 199.481185 89.05934 
L 199.81046 88.957743 
L 199.842848 88.856147 
L 199.940011 88.75455 
L 199.940011 88.703752 
L 200.042572 88.703752 
L 200.328663 88.602156 
L 200.425827 88.246568 
L 200.652541 88.144972 
L 200.717316 87.992577 
L 200.857663 87.890981 
L 200.857663 87.840183 
L 201.132959 87.738586 
L 201.224724 87.535394 
L 201.365071 87.433797 
L 201.381265 87.332201 
L 201.467632 87.332201 
L 201.613377 87.230604 
L 201.624172 87.179806 
L 201.813101 87.07821 
L 201.904866 86.671824 
L 202.239539 86.570228 
L 202.293519 86.468631 
L 202.406876 86.417833 
L 202.455457 86.21464 
L 202.687569 86.113044 
L 202.790131 86.011448 
L 202.81712 85.909851 
L 202.81712 85.859053 
L 203.324528 85.757457 
L 203.324528 85.706658 
L 203.589028 85.605062 
L 203.680793 85.452667 
L 203.691589 85.452667 
L 203.772558 85.351071 
L 203.826538 85.249475 
L 203.97768 85.147878 
L 204.074844 84.995484 
L 204.139619 84.893887 
L 204.247578 84.792291 
L 204.549864 84.690694 
L 204.549864 84.639896 
L 204.576853 84.639896 
L 204.846751 84.5383 
L 204.949312 84.436703 
L 205.176026 84.335107 
L 205.283985 84.081116 
L 205.462118 83.97952 
L 205.537689 83.827125 
L 205.564679 83.827125 
L 205.910148 83.725529 
L 205.980321 83.471538 
L 206.018107 83.471538 
L 206.331188 83.369941 
L 206.37977 83.217547 
L 206.763025 83.11595 
L 206.763025 83.065152 
L 206.968147 82.963556 
L 206.968147 82.912757 
L 207.281228 82.811161 
L 207.281228 82.760363 
L 207.378391 82.760363 
L 207.77784 82.658766 
L 207.77784 82.607968 
L 207.794034 82.607968 
L 208.236666 82.506372 
L 208.317635 82.404775 
L 208.765666 82.303179 
L 208.835839 82.150784 
L 208.868227 82.150784 
L 209.213696 82.049188 
L 209.213696 81.99839 
L 209.418818 81.947592 
L 209.424216 81.795197 
L 209.526777 81.795197 
L 209.94242 81.693601 
L 209.964011 81.592004 
L 210.185327 81.490408 
L 210.255501 81.388811 
L 210.282491 81.388811 
L 210.39045 81.287215 
L 210.466021 81.185619 
L 210.860072 81.084022 
L 210.962633 80.880829 
L 211.243326 80.779233 
L 211.243326 80.728435 
L 211.81551 80.626838 
L 211.869489 80.525242 
L 211.923469 80.525242 
L 212.042224 80.474444 
L 212.042224 80.372847 
L 212.139387 80.372847 
L 212.457866 80.271251 
L 212.549631 80.118856 
L 212.565825 80.118856 
L 213.18659 80.01726 
L 213.294549 79.915664 
L 213.553651 79.814067 
L 213.559049 79.763269 
L 213.931508 79.661673 
L 214.034069 79.560076 
L 214.039467 79.560076 
L 214.487497 79.45848 
L 214.503691 79.356883 
L 214.595456 79.356883 
L 214.741201 79.255287 
L 214.741201 79.204489 
L 214.784384 79.204489 
L 215.291792 79.102892 
L 215.318782 79.001296 
L 215.448333 78.8997 
L 215.448333 78.848901 
L 215.50771 78.848901 
L 215.664251 78.747305 
L 215.750618 78.645709 
L 216.069097 78.544112 
L 216.074495 78.442516 
L 216.392975 78.340919 
L 216.48474 78.137727 
L 216.921974 78.086928 
L 216.992147 77.934534 
L 217.294433 77.832937 
L 217.294433 77.782139 
L 217.758657 77.680543 
L 217.758657 77.629745 
L 217.785647 77.629745 
L 217.963779 77.528148 
L 218.050146 77.324955 
L 218.055544 77.324955 
L 218.185095 77.223359 
L 218.266065 77.070964 
L 218.406411 76.969368 
L 218.444197 76.867772 
L 218.471187 76.867772 
L 218.789666 76.766175 
L 218.865238 76.613781 
L 219.302472 76.512184 
L 219.410431 76.35979 
L 219.950226 76.258193 
L 219.988012 76.105799 
L 220.009604 76.105799 
L 220.349675 76.004202 
L 220.349675 75.953404 
L 220.738328 75.851808 
L 220.781511 75.750211 
L 221.121582 75.648615 
L 221.191756 75.445422 
L 221.526429 75.343826 
L 221.569612 75.191431 
L 222.276744 75.089835 
L 222.276744 75.039036 
L 222.379306 75.039036 
L 222.546642 74.93744 
L 222.654601 74.835844 
L 223.037856 74.734247 
L 223.037856 74.683449 
L 223.108029 74.683449 
L 223.383325 74.581853 
L 223.394121 74.480256 
L 223.415713 74.480256 
L 223.55606 74.37866 
L 223.55606 74.327862 
L 223.577651 74.327862 
L 223.734192 74.226265 
L 223.734192 74.175467 
L 223.755784 74.175467 
L 223.966304 74.073871 
L 224.025682 73.972274 
L 224.203814 73.870678 
L 224.203814 73.81988 
L 224.813783 73.718283 
L 224.90015 73.565889 
L 225.251017 73.464292 
L 225.251017 73.413494 
L 225.283405 73.413494 
L 225.8232 73.311898 
L 225.925761 73.210301 
L 226.174067 73.108705 
L 226.233445 72.95631 
L 226.514138 72.854714 
L 226.622097 72.702319 
L 227.016148 72.600723 
L 227.06473 72.499126 
L 227.383209 72.39753 
L 227.383209 72.346732 
L 227.431791 72.346732 
L 227.982382 72.245135 
L 228.068749 72.143539 
L 228.38183 72.041943 
L 228.38183 71.991144 
L 228.425014 71.991144 
L 228.603147 71.889548 
L 228.705708 71.737153 
L 228.867646 71.686355 
L 228.900034 71.533961 
L 228.91083 71.533961 
L 229.088962 71.432364 
L 229.196921 71.127575 
L 229.62336 71.025979 
L 229.65035 70.822786 
L 229.731319 70.822786 
L 229.80689 70.721189 
L 230.173951 70.619593 
L 230.173951 70.568795 
L 230.184747 70.568795 
L 230.562604 70.467198 
L 230.562604 70.4164 
L 231.291328 70.314804 
L 231.291328 70.264006 
L 231.361501 70.264006 
L 231.712368 70.162409 
L 231.755552 70.010015 
L 232.025449 69.908418 
L 232.117215 69.654427 
L 232.737979 69.552831 
L 232.748775 69.451234 
L 232.818949 69.451234 
L 233.029469 69.400436 
L 233.029469 69.29884 
L 233.137428 69.29884 
L 233.520683 69.197243 
L 233.558468 69.095647 
L 233.839162 68.994051 
L 233.909335 68.892454 
L 234.233213 68.790858 
L 234.314182 68.486069 
L 234.513906 68.384472 
L 234.513906 68.333674 
L 235.00512 68.232078 
L 235.00512 68.181279 
L 235.113079 68.181279 
L 235.420762 68.079683 
L 235.496334 67.978087 
L 235.847201 67.87649 
L 235.938966 67.774894 
L 235.95516 67.774894 
L 236.349211 67.673297 
L 236.435578 67.571701 
L 236.651496 67.470105 
L 236.737863 67.31771 
L 236.845822 67.266912 
L 236.845822 67.165315 
L 236.93219 67.165315 
L 237.488179 67.063719 
L 237.596138 66.911324 
L 237.731087 66.809728 
L 237.747281 66.708132 
L 237.763474 66.708132 
L 238.146729 66.606535 
L 238.146729 66.555737 
L 238.254688 66.555737 
L 238.546178 66.454141 
L 238.546178 66.352544 
L 238.621749 66.352544 
L 238.913239 66.250948 
L 238.999606 66.149352 
L 239.598779 66.047755 
L 239.690544 65.946159 
L 239.928054 65.844562 
L 239.928054 65.793764 
L 240.419268 65.692168 
L 240.419268 65.64137 
L 240.521829 65.64137 
L 240.921278 65.539773 
L 240.953665 65.438177 
L 241.612216 65.33658 
L 241.612216 65.285782 
L 241.650001 65.285782 
L 242.011664 65.184186 
L 242.092634 64.930195 
L 242.475888 64.828598 
L 242.546062 64.625406 
L 242.94551 64.523809 
L 242.977898 64.371415 
L 243.053469 64.371415 
L 243.247796 64.269818 
L 243.334163 64.168222 
L 243.846969 64.066625 
L 243.938734 63.965029 
L 244.316591 63.863433 
L 244.478529 63.711038 
L 244.63507 63.609442 
L 244.63507 63.558643 
L 244.867182 63.457047 
L 244.888774 63.355451 
L 245.326008 63.253854 
L 245.326008 63.203056 
L 246.281446 63.10146 
L 246.362415 62.898267 
L 246.98318 62.79667 
L 247.074945 62.644276 
L 247.442006 62.542679 
L 247.479792 62.441083 
L 247.96021 62.339487 
L 248.073567 62.187092 
L 248.451423 62.085496 
L 248.516199 61.983899 
L 248.996617 61.882303 
L 249.09378 61.67911 
L 249.239525 61.577514 
L 249.239525 61.526715 
L 249.33129 61.526715 
L 249.957453 61.425119 
L 250.054616 61.272724 
L 250.383891 61.171128 
L 250.486452 61.069532 
L 251.074829 60.967935 
L 251.182788 60.815541 
L 251.501267 60.713944 
L 251.501267 60.663146 
L 251.560645 60.663146 
L 251.765767 60.612348 
L 251.765767 60.510751 
L 251.835941 60.510751 
L 252.186808 60.409155 
L 252.251583 60.307559 
L 252.278573 60.307559 
L 252.472899 60.205962 
L 252.499889 60.053568 
L 253.271796 59.951971 
L 253.374357 59.850375 
L 253.455327 59.748778 
L 253.455327 59.69798 
L 253.849377 59.596384 
L 253.854775 59.545586 
L 254.108479 59.443989 
L 254.108479 59.393191 
L 254.119275 59.393191 
L 254.507928 59.291595 
L 254.610489 59.088402 
L 254.847999 58.986805 
L 254.939764 58.885209 
L 255.144886 58.783613 
L 255.220458 58.631218 
L 255.252845 58.631218 
L 255.501151 58.529622 
L 255.592917 58.428025 
L 256.003161 58.326429 
L 256.003161 58.275631 
L 256.467385 58.174034 
L 256.494375 58.072438 
L 256.888426 57.970841 
L 256.990987 57.767649 
L 257.412027 57.666052 
L 257.412027 57.615254 
L 257.514588 57.615254 
L 258.340475 57.513658 
L 258.399853 57.412061 
L 258.712934 57.310465 
L 258.772311 57.208868 
L 258.810097 57.208868 
L 259.22574 57.107272 
L 259.301311 56.954877 
L 259.333699 56.954877 
L 259.797923 56.853281 
L 259.873494 56.751685 
L 260.494259 56.650088 
L 260.526647 56.497694 
L 261.25537 56.396097 
L 261.25537 56.345299 
L 261.341738 56.345299 
L 261.741186 56.243703 
L 261.78437 56.091308 
L 262.17842 55.989712 
L 262.221604 55.888115 
L 262.2324 55.888115 
L 262.691226 55.786519 
L 262.691226 55.735721 
L 262.712818 55.735721 
L 263.743827 55.634124 
L 263.851786 55.532528 
L 264.110888 55.430931 
L 264.110888 55.380133 
L 264.602102 55.278537 
L 264.602102 55.227739 
L 264.688469 55.227739 
L 264.979959 55.126142 
L 265.044734 55.024546 
L 265.47657 54.922949 
L 265.47657 54.872151 
L 265.811243 54.770555 
L 265.811243 54.719757 
L 265.822039 54.719757 
L 266.405018 54.61816 
L 266.405018 54.567362 
L 266.469794 54.567362 
L 266.896232 54.465766 
L 266.896232 54.414967 
L 267.554783 54.313371 
L 267.64115 54.160976 
L 268.159353 54.05938 
L 268.159353 54.008582 
L 268.251119 54.008582 
L 268.450843 53.906985 
L 268.450843 53.856187 
L 269.168771 53.754591 
L 269.168771 53.703793 
L 269.913689 53.602196 
L 270.010852 53.449802 
L 270.280749 53.348205 
L 270.286147 53.246609 
L 271.300963 53.195811 
L 271.376534 52.992618 
L 271.403524 52.992618 
L 271.646432 52.891021 
L 271.646432 52.840223 
L 272.083666 52.738627 
L 272.083666 52.687829 
L 272.175431 52.687829 
L 272.699033 52.586232 
L 272.699033 52.535434 
L 272.747614 52.535434 
L 273.692256 52.433838 
L 273.784022 52.332241 
L 274.264439 52.230645 
L 274.264439 52.179847 
L 274.361603 52.179847 
L 274.507347 52.07825 
L 274.507347 52.027452 
L 275.565346 51.925856 
L 275.597734 51.824259 
L 275.673305 51.824259 
L 275.991785 51.722663 
L 275.991785 51.671865 
L 276.53158 51.570268 
L 276.569366 51.468672 
L 277.443834 51.367075 
L 277.443834 51.316277 
L 277.77311 51.214681 
L 277.816293 51.062286 
L 278.123977 50.96069 
L 278.123977 50.909892 
L 278.22114 50.909892 
L 278.555813 50.808295 
L 278.555813 50.757497 
L 278.620588 50.757497 
L 279.495057 50.655901 
L 279.495057 50.605102 
L 279.603016 50.605102 
L 279.845924 50.503506 
L 279.862118 50.351111 
L 279.932291 50.351111 
L 280.239975 50.249515 
L 280.239975 50.198717 
L 280.839147 50.09712 
L 280.849943 49.995524 
L 280.947106 49.995524 
L 281.28178 49.944726 
L 281.373545 49.792331 
L 283.403176 49.690735 
L 283.403176 49.639937 
L 283.478747 49.639937 
L 283.689267 49.53834 
L 283.764838 49.436744 
L 284.040134 49.335147 
L 284.137297 49.131955 
L 285.411214 49.030358 
L 285.481388 48.928762 
L 286.156132 48.827165 
L 286.156132 48.776367 
L 286.253295 48.776367 
L 286.852468 48.674771 
L 286.982019 48.573174 
L 287.602784 48.471578 
L 287.678355 48.369982 
L 288.228946 48.268385 
L 288.228946 48.217587 
L 289.265354 48.115991 
L 289.367915 48.014394 
L 290.792975 47.912798 
L 290.792975 47.862 
L 290.841556 47.862 
L 291.75381 47.760403 
L 291.786198 47.658807 
L 292.191045 47.55721 
L 292.191045 47.506412 
L 292.293606 47.506412 
L 292.817207 47.404816 
L 292.881983 47.303219 
L 293.033125 47.201623 
L 293.065513 47.100027 
L 293.087105 47.100027 
L 293.73486 46.99843 
L 293.73486 46.947632 
L 293.842819 46.947632 
L 294.361022 46.846036 
L 294.398808 46.744439 
L 294.415002 46.744439 
L 295.213899 46.642843 
L 295.359644 46.541246 
L 295.645735 46.43965 
L 295.721307 46.338054 
L 296.439234 46.236457 
L 296.439234 46.185659 
L 296.871071 46.134861 
L 296.871071 46.033264 
L 297.313703 45.931668 
L 297.319101 45.88087 
L 297.891284 45.779273 
L 297.983049 45.626879 
L 297.993845 45.626879 
L 298.501253 45.525282 
L 298.593018 45.423686 
L 299.413507 45.32209 
L 299.451293 45.220493 
L 299.521466 45.220493 
L 299.807558 45.118897 
L 299.807558 45.068099 
L 299.888527 45.068099 
L 300.131435 44.966502 
L 300.131435 44.864906 
L 300.207006 44.864906 
L 300.854761 44.763309 
L 300.854761 44.712511 
L 300.96272 44.712511 
L 301.459332 44.610915 
L 301.46473 44.560117 
L 302.484943 44.45852 
L 302.484943 44.356924 
L 302.582106 44.356924 
L 303.715676 44.255327 
L 303.715676 44.204529 
L 303.818238 44.204529 
L 305.200114 44.102933 
L 305.200114 44.052135 
L 305.21091 44.052135 
L 305.68593 43.950538 
L 305.761501 43.848942 
L 306.555 43.747345 
L 306.555 43.696547 
L 306.814102 43.594951 
L 306.814102 43.544153 
L 307.224347 43.442556 
L 307.224347 43.391758 
L 307.645387 43.290162 
L 307.645387 43.239363 
L 307.710162 43.239363 
L 308.627815 43.137767 
L 308.6656 43.036171 
L 308.730376 43.036171 
L 310.241803 42.934574 
L 310.241803 42.883776 
L 310.760006 42.78218 
L 310.765404 42.731381 
L 311.504924 42.629785 
L 311.504924 42.578987 
L 311.612883 42.578987 
L 312.757249 42.477391 
L 312.757249 42.426592 
L 313.475177 42.324996 
L 313.475177 42.274198 
L 315.094564 42.172601 
L 315.121553 42.121803 
L 315.650553 42.020207 
L 315.650553 41.969409 
L 315.688338 41.969409 
L 316.989245 41.867812 
L 317.048623 41.766216 
L 317.550633 41.664619 
L 317.647796 41.563023 
L 319.00808 41.461427 
L 319.00808 41.410628 
L 319.099845 41.410628 
L 319.877151 41.309032 
L 319.877151 41.258234 
L 320.665252 41.156637 
L 320.665252 41.105839 
L 322.052526 41.004243 
L 322.052526 40.953445 
L 322.106506 40.953445 
L 325.485625 40.851848 
L 325.485625 40.80105 
L 325.518013 40.80105 
L 325.712339 40.699454 
L 325.712339 40.648655 
L 326.549022 40.547059 
L 326.549022 40.496261 
L 326.592206 40.496261 
L 328.109031 40.394664 
L 328.109031 40.343866 
L 328.621836 40.24227 
L 328.632632 40.140673 
L 328.686612 40.140673 
L 329.906549 40.039077 
L 329.938937 39.937481 
L 331.148079 39.835884 
L 331.148079 39.785086 
L 332.481373 39.68349 
L 332.481373 39.632691 
L 332.589332 39.632691 
L 333.312658 39.531095 
L 333.312658 39.480297 
L 333.339648 39.480297 
L 335.174952 39.3787 
L 335.174952 39.327902 
L 339.228816 39.226306 
L 339.228816 39.175508 
L 339.250408 39.175508 
L 341.35561 39.073911 
L 341.441977 38.972315 
L 341.463569 38.972315 
L 343.104547 38.870718 
L 343.104547 38.81992 
L 343.628148 38.718324 
L 343.714516 38.616727 
L 344.394658 38.515131 
L 344.394658 38.464333 
L 346.132799 38.362736 
L 346.132799 38.311938 
L 350.300019 38.210342 
L 350.300019 38.159544 
L 351.158294 38.057947 
L 351.158294 38.007149 
L 351.930202 37.905553 
L 351.930202 37.854754 
L 353.290486 37.753158 
L 353.322874 37.70236 
L 359.174256 37.600763 
L 359.195848 37.499167 
L 360.156684 37.397571 
L 360.156684 37.346772 
L 362.2241 37.245176 
L 362.2241 37.194378 
L 362.305069 37.194378 
L 363.363068 37.14358 
L 363.363068 37.14358 
" style="fill:none;stroke:#1f77b4;stroke-linecap:square;stroke-width:1.5;"/>
   </g>
   <g id="line2d_14">
    <path clip-path="url(#p690d32a7d8)" d="M 58.999432 333.65267 
L 211.086786 184.509157 
L 363.363068 37.14358 
" style="fill:none;stroke:#ff7f0e;stroke-dasharray:1.5,3,1.5;stroke-dashoffset:0;stroke-width:1.5;"/>
   </g>
   <g id="patch_3">
    <path d="M 43.78125 348.478125 
L 43.78125 22.318125 
" style="fill:none;stroke:#000000;stroke-linecap:square;stroke-linejoin:miter;stroke-width:0.8;"/>
   </g>
   <g id="patch_4">
    <path d="M 378.58125 348.478125 
L 378.58125 22.318125 
" style="fill:none;stroke:#000000;stroke-linecap:square;stroke-linejoin:miter;stroke-width:0.8;"/>
   </g>
   <g id="patch_5">
    <path d="M 43.78125 348.478125 
L 378.58125 348.478125 
" style="fill:none;stroke:#000000;stroke-linecap:square;stroke-linejoin:miter;stroke-width:0.8;"/>
   </g>
   <g id="patch_6">
    <path d="M 43.78125 22.318125 
L 378.58125 22.318125 
" style="fill:none;stroke:#000000;stroke-linecap:square;stroke-linejoin:miter;stroke-width:0.8;"/>
   </g>
   <g id="text_15">
    <!-- Responder-Operator Curve (ROC) -->
    <g transform="translate(111.130313 16.318125)scale(0.12 -0.12)">
     <defs>
      <path d="M 1159 525 
L 1159 -1331 
L 581 -1331 
L 581 3500 
L 1159 3500 
L 1159 2969 
Q 1341 3281 1617 3432 
Q 1894 3584 2278 3584 
Q 2916 3584 3314 3078 
Q 3713 2572 3713 1747 
Q 3713 922 3314 415 
Q 2916 -91 2278 -91 
Q 1894 -91 1617 61 
Q 1341 213 1159 525 
z
M 3116 1747 
Q 3116 2381 2855 2742 
Q 2594 3103 2138 3103 
Q 1681 3103 1420 2742 
Q 1159 2381 1159 1747 
Q 1159 1113 1420 752 
Q 1681 391 2138 391 
Q 2594 391 2855 752 
Q 3116 1113 3116 1747 
z
" id="DejaVuSans-70" transform="scale(0.015625)"/>
      <path d="M 3513 2113 
L 3513 0 
L 2938 0 
L 2938 2094 
Q 2938 2591 2744 2837 
Q 2550 3084 2163 3084 
Q 1697 3084 1428 2787 
Q 1159 2491 1159 1978 
L 1159 0 
L 581 0 
L 581 3500 
L 1159 3500 
L 1159 2956 
Q 1366 3272 1645 3428 
Q 1925 3584 2291 3584 
Q 2894 3584 3203 3211 
Q 3513 2838 3513 2113 
z
" id="DejaVuSans-6e" transform="scale(0.015625)"/>
      <path d="M 2906 2969 
L 2906 4863 
L 3481 4863 
L 3481 0 
L 2906 0 
L 2906 525 
Q 2725 213 2448 61 
Q 2172 -91 1784 -91 
Q 1150 -91 751 415 
Q 353 922 353 1747 
Q 353 2572 751 3078 
Q 1150 3584 1784 3584 
Q 2172 3584 2448 3432 
Q 2725 3281 2906 2969 
z
M 947 1747 
Q 947 1113 1208 752 
Q 1469 391 1925 391 
Q 2381 391 2643 752 
Q 2906 1113 2906 1747 
Q 2906 2381 2643 2742 
Q 2381 3103 1925 3103 
Q 1469 3103 1208 2742 
Q 947 2381 947 1747 
z
" id="DejaVuSans-64" transform="scale(0.015625)"/>
      <path d="M 313 2009 
L 1997 2009 
L 1997 1497 
L 313 1497 
L 313 2009 
z
" id="DejaVuSans-2d" transform="scale(0.015625)"/>
      <path d="M 2522 4238 
Q 1834 4238 1429 3725 
Q 1025 3213 1025 2328 
Q 1025 1447 1429 934 
Q 1834 422 2522 422 
Q 3209 422 3611 934 
Q 4013 1447 4013 2328 
Q 4013 3213 3611 3725 
Q 3209 4238 2522 4238 
z
M 2522 4750 
Q 3503 4750 4090 4092 
Q 4678 3434 4678 2328 
Q 4678 1225 4090 567 
Q 3503 -91 2522 -91 
Q 1538 -91 948 565 
Q 359 1222 359 2328 
Q 359 3434 948 4092 
Q 1538 4750 2522 4750 
z
" id="DejaVuSans-4f" transform="scale(0.015625)"/>
      <path d="M 4122 4306 
L 4122 3641 
Q 3803 3938 3442 4084 
Q 3081 4231 2675 4231 
Q 1875 4231 1450 3742 
Q 1025 3253 1025 2328 
Q 1025 1406 1450 917 
Q 1875 428 2675 428 
Q 3081 428 3442 575 
Q 3803 722 4122 1019 
L 4122 359 
Q 3791 134 3420 21 
Q 3050 -91 2638 -91 
Q 1578 -91 968 557 
Q 359 1206 359 2328 
Q 359 3453 968 4101 
Q 1578 4750 2638 4750 
Q 3056 4750 3426 4639 
Q 3797 4528 4122 4306 
z
" id="DejaVuSans-43" transform="scale(0.015625)"/>
     </defs>
     <use xlink:href="#DejaVuSans-52"/>
     <use x="64.982422" xlink:href="#DejaVuSans-65"/>
     <use x="126.505859" xlink:href="#DejaVuSans-73"/>
     <use x="178.605469" xlink:href="#DejaVuSans-70"/>
     <use x="242.082031" xlink:href="#DejaVuSans-6f"/>
     <use x="303.263672" xlink:href="#DejaVuSans-6e"/>
     <use x="366.642578" xlink:href="#DejaVuSans-64"/>
     <use x="430.119141" xlink:href="#DejaVuSans-65"/>
     <use x="491.642578" xlink:href="#DejaVuSans-72"/>
     <use x="526.380859" xlink:href="#DejaVuSans-2d"/>
     <use x="565.214844" xlink:href="#DejaVuSans-4f"/>
     <use x="643.925781" xlink:href="#DejaVuSans-70"/>
     <use x="707.402344" xlink:href="#DejaVuSans-65"/>
     <use x="768.925781" xlink:href="#DejaVuSans-72"/>
     <use x="810.039062" xlink:href="#DejaVuSans-61"/>
     <use x="871.318359" xlink:href="#DejaVuSans-74"/>
     <use x="910.527344" xlink:href="#DejaVuSans-6f"/>
     <use x="971.708984" xlink:href="#DejaVuSans-72"/>
     <use x="1012.822266" xlink:href="#DejaVuSans-20"/>
     <use x="1044.609375" xlink:href="#DejaVuSans-43"/>
     <use x="1114.433594" xlink:href="#DejaVuSans-75"/>
     <use x="1177.8125" xlink:href="#DejaVuSans-72"/>
     <use x="1218.925781" xlink:href="#DejaVuSans-76"/>
     <use x="1278.105469" xlink:href="#DejaVuSans-65"/>
     <use x="1339.628906" xlink:href="#DejaVuSans-20"/>
     <use x="1371.416016" xlink:href="#DejaVuSans-28"/>
     <use x="1410.429688" xlink:href="#DejaVuSans-52"/>
     <use x="1479.912109" xlink:href="#DejaVuSans-4f"/>
     <use x="1558.623047" xlink:href="#DejaVuSans-43"/>
     <use x="1628.447266" xlink:href="#DejaVuSans-29"/>
    </g>
   </g>
   <g id="legend_1">
    <g id="patch_7">
     <path d="M 183.995313 343.478125 
L 371.58125 343.478125 
Q 373.58125 343.478125 373.58125 341.478125 
L 373.58125 313.121875 
Q 373.58125 311.121875 371.58125 311.121875 
L 183.995313 311.121875 
Q 181.995313 311.121875 181.995313 313.121875 
L 181.995313 341.478125 
Q 181.995313 343.478125 183.995313 343.478125 
z
" style="fill:#ffffff;opacity:0.8;stroke:#cccccc;stroke-linejoin:miter;"/>
    </g>
    <g id="line2d_15">
     <path d="M 185.995313 319.220312 
L 205.995313 319.220312 
" style="fill:none;stroke:#1f77b4;stroke-linecap:square;stroke-width:1.5;"/>
    </g>
    <g id="line2d_16"/>
    <g id="text_16">
     <!-- XGBoost Tuned (AUC = 0.76) -->
     <g transform="translate(213.995313 322.720312)scale(0.1 -0.1)">
      <defs>
       <path d="M 403 4666 
L 1081 4666 
L 2241 2931 
L 3406 4666 
L 4084 4666 
L 2584 2425 
L 4184 0 
L 3506 0 
L 2194 1984 
L 872 0 
L 191 0 
L 1856 2491 
L 403 4666 
z
" id="DejaVuSans-58" transform="scale(0.015625)"/>
       <path d="M 3809 666 
L 3809 1919 
L 2778 1919 
L 2778 2438 
L 4434 2438 
L 4434 434 
Q 4069 175 3628 42 
Q 3188 -91 2688 -91 
Q 1594 -91 976 548 
Q 359 1188 359 2328 
Q 359 3472 976 4111 
Q 1594 4750 2688 4750 
Q 3144 4750 3555 4637 
Q 3966 4525 4313 4306 
L 4313 3634 
Q 3963 3931 3569 4081 
Q 3175 4231 2741 4231 
Q 1884 4231 1454 3753 
Q 1025 3275 1025 2328 
Q 1025 1384 1454 906 
Q 1884 428 2741 428 
Q 3075 428 3337 486 
Q 3600 544 3809 666 
z
" id="DejaVuSans-47" transform="scale(0.015625)"/>
       <path d="M 1259 2228 
L 1259 519 
L 2272 519 
Q 2781 519 3026 730 
Q 3272 941 3272 1375 
Q 3272 1813 3026 2020 
Q 2781 2228 2272 2228 
L 1259 2228 
z
M 1259 4147 
L 1259 2741 
L 2194 2741 
Q 2656 2741 2882 2914 
Q 3109 3088 3109 3444 
Q 3109 3797 2882 3972 
Q 2656 4147 2194 4147 
L 1259 4147 
z
M 628 4666 
L 2241 4666 
Q 2963 4666 3353 4366 
Q 3744 4066 3744 3513 
Q 3744 3084 3544 2831 
Q 3344 2578 2956 2516 
Q 3422 2416 3680 2098 
Q 3938 1781 3938 1306 
Q 3938 681 3513 340 
Q 3088 0 2303 0 
L 628 0 
L 628 4666 
z
" id="DejaVuSans-42" transform="scale(0.015625)"/>
       <path d="M 2188 4044 
L 1331 1722 
L 3047 1722 
L 2188 4044 
z
M 1831 4666 
L 2547 4666 
L 4325 0 
L 3669 0 
L 3244 1197 
L 1141 1197 
L 716 0 
L 50 0 
L 1831 4666 
z
" id="DejaVuSans-41" transform="scale(0.015625)"/>
       <path d="M 556 4666 
L 1191 4666 
L 1191 1831 
Q 1191 1081 1462 751 
Q 1734 422 2344 422 
Q 2950 422 3222 751 
Q 3494 1081 3494 1831 
L 3494 4666 
L 4128 4666 
L 4128 1753 
Q 4128 841 3676 375 
Q 3225 -91 2344 -91 
Q 1459 -91 1007 375 
Q 556 841 556 1753 
L 556 4666 
z
" id="DejaVuSans-55" transform="scale(0.015625)"/>
       <path d="M 678 2906 
L 4684 2906 
L 4684 2381 
L 678 2381 
L 678 2906 
z
M 678 1631 
L 4684 1631 
L 4684 1100 
L 678 1100 
L 678 1631 
z
" id="DejaVuSans-3d" transform="scale(0.015625)"/>
       <path d="M 525 4666 
L 3525 4666 
L 3525 4397 
L 1831 0 
L 1172 0 
L 2766 4134 
L 525 4134 
L 525 4666 
z
" id="DejaVuSans-37" transform="scale(0.015625)"/>
      </defs>
      <use xlink:href="#DejaVuSans-58"/>
      <use x="68.505859" xlink:href="#DejaVuSans-47"/>
      <use x="145.996094" xlink:href="#DejaVuSans-42"/>
      <use x="214.599609" xlink:href="#DejaVuSans-6f"/>
      <use x="275.78125" xlink:href="#DejaVuSans-6f"/>
      <use x="336.962891" xlink:href="#DejaVuSans-73"/>
      <use x="389.0625" xlink:href="#DejaVuSans-74"/>
      <use x="428.271484" xlink:href="#DejaVuSans-20"/>
      <use x="460.058594" xlink:href="#DejaVuSans-54"/>
      <use x="506.017578" xlink:href="#DejaVuSans-75"/>
      <use x="569.396484" xlink:href="#DejaVuSans-6e"/>
      <use x="632.775391" xlink:href="#DejaVuSans-65"/>
      <use x="694.298828" xlink:href="#DejaVuSans-64"/>
      <use x="757.775391" xlink:href="#DejaVuSans-20"/>
      <use x="789.5625" xlink:href="#DejaVuSans-28"/>
      <use x="828.576172" xlink:href="#DejaVuSans-41"/>
      <use x="896.984375" xlink:href="#DejaVuSans-55"/>
      <use x="970.177734" xlink:href="#DejaVuSans-43"/>
      <use x="1040.001953" xlink:href="#DejaVuSans-20"/>
      <use x="1071.789062" xlink:href="#DejaVuSans-3d"/>
      <use x="1155.578125" xlink:href="#DejaVuSans-20"/>
      <use x="1187.365234" xlink:href="#DejaVuSans-30"/>
      <use x="1250.988281" xlink:href="#DejaVuSans-2e"/>
      <use x="1282.775391" xlink:href="#DejaVuSans-37"/>
      <use x="1346.398438" xlink:href="#DejaVuSans-36"/>
      <use x="1410.021484" xlink:href="#DejaVuSans-29"/>
     </g>
    </g>
    <g id="line2d_17">
     <path d="M 185.995313 333.898437 
L 205.995313 333.898437 
" style="fill:none;stroke:#ff7f0e;stroke-dasharray:1.5,3,1.5;stroke-dashoffset:0;stroke-width:1.5;"/>
    </g>
    <g id="line2d_18"/>
    <g id="text_17">
     <!-- Random baseline (AUC = 0.50) -->
     <g transform="translate(213.995313 337.398437)scale(0.1 -0.1)">
      <defs>
       <path d="M 3328 2828 
Q 3544 3216 3844 3400 
Q 4144 3584 4550 3584 
Q 5097 3584 5394 3201 
Q 5691 2819 5691 2113 
L 5691 0 
L 5113 0 
L 5113 2094 
Q 5113 2597 4934 2840 
Q 4756 3084 4391 3084 
Q 3944 3084 3684 2787 
Q 3425 2491 3425 1978 
L 3425 0 
L 2847 0 
L 2847 2094 
Q 2847 2600 2669 2842 
Q 2491 3084 2119 3084 
Q 1678 3084 1418 2786 
Q 1159 2488 1159 1978 
L 1159 0 
L 581 0 
L 581 3500 
L 1159 3500 
L 1159 2956 
Q 1356 3278 1631 3431 
Q 1906 3584 2284 3584 
Q 2666 3584 2933 3390 
Q 3200 3197 3328 2828 
z
" id="DejaVuSans-6d" transform="scale(0.015625)"/>
       <path d="M 691 4666 
L 3169 4666 
L 3169 4134 
L 1269 4134 
L 1269 2991 
Q 1406 3038 1543 3061 
Q 1681 3084 1819 3084 
Q 2600 3084 3056 2656 
Q 3513 2228 3513 1497 
Q 3513 744 3044 326 
Q 2575 -91 1722 -91 
Q 1428 -91 1123 -41 
Q 819 9 494 109 
L 494 744 
Q 775 591 1075 516 
Q 1375 441 1709 441 
Q 2250 441 2565 725 
Q 2881 1009 2881 1497 
Q 2881 1984 2565 2268 
Q 2250 2553 1709 2553 
Q 1456 2553 1204 2497 
Q 953 2441 691 2322 
L 691 4666 
z
" id="DejaVuSans-35" transform="scale(0.015625)"/>
      </defs>
      <use xlink:href="#DejaVuSans-52"/>
      <use x="67.232422" xlink:href="#DejaVuSans-61"/>
      <use x="128.511719" xlink:href="#DejaVuSans-6e"/>
      <use x="191.890625" xlink:href="#DejaVuSans-64"/>
      <use x="255.367188" xlink:href="#DejaVuSans-6f"/>
      <use x="316.548828" xlink:href="#DejaVuSans-6d"/>
      <use x="413.960938" xlink:href="#DejaVuSans-20"/>
      <use x="445.748047" xlink:href="#DejaVuSans-62"/>
      <use x="509.224609" xlink:href="#DejaVuSans-61"/>
      <use x="570.503906" xlink:href="#DejaVuSans-73"/>
      <use x="622.603516" xlink:href="#DejaVuSans-65"/>
      <use x="684.126953" xlink:href="#DejaVuSans-6c"/>
      <use x="711.910156" xlink:href="#DejaVuSans-69"/>
      <use x="739.693359" xlink:href="#DejaVuSans-6e"/>
      <use x="803.072266" xlink:href="#DejaVuSans-65"/>
      <use x="864.595703" xlink:href="#DejaVuSans-20"/>
      <use x="896.382812" xlink:href="#DejaVuSans-28"/>
      <use x="935.396484" xlink:href="#DejaVuSans-41"/>
      <use x="1003.804688" xlink:href="#DejaVuSans-55"/>
      <use x="1076.998047" xlink:href="#DejaVuSans-43"/>
      <use x="1146.822266" xlink:href="#DejaVuSans-20"/>
      <use x="1178.609375" xlink:href="#DejaVuSans-3d"/>
      <use x="1262.398438" xlink:href="#DejaVuSans-20"/>
      <use x="1294.185547" xlink:href="#DejaVuSans-30"/>
      <use x="1357.808594" xlink:href="#DejaVuSans-2e"/>
      <use x="1389.595703" xlink:href="#DejaVuSans-35"/>
      <use x="1453.21875" xlink:href="#DejaVuSans-30"/>
      <use x="1516.841797" xlink:href="#DejaVuSans-29"/>
     </g>
    </g>
   </g>
  </g>
 </g>
 <defs>
  <clipPath id="p690d32a7d8">
   <rect height="326.16" width="334.8" x="43.78125" y="22.318125"/>
  </clipPath>
 </defs>
</svg>
