<?xml version="1.0" encoding="utf-8" standalone="no"?>
<!DOCTYPE svg PUBLIC "-//W3C//DTD SVG 1.1//EN"
  "http://www.w3.org/Graphics/SVG/1.1/DTD/svg11.dtd">
<svg height="386.034375pt" version="1.1" viewBox="0 0 385.78125 386.034375" width="385.78125pt" xmlns="http://www.w3.org/2000/svg" xmlns:xlink="http://www.w3.org/1999/xlink">
 <metadata>
  <rdf:RDF xmlns:cc="http://creativecommons.org/ns#" xmlns:dc="http://purl.org/dc/elements/1.1/" xmlns:rdf="http://www.w3.org/1999/02/22-rdf-syntax-ns#">
   <cc:Work>
    <dc:type rdf:resource="http://purl.org/dc/dcmitype/StillImage"/>
    <dc:date>2021-11-28T13:31:17.384825</dc:date>
    <dc:format>image/svg+xml</dc:format>
    <dc:creator>
     <cc:Agent>
      <dc:title>Matplotlib v3.4.3, https://matplotlib.org/</dc:title>
     </cc:Agent>
    </dc:creator>
   </cc:Work>
  </rdf:RDF>
 </metadata>
 <defs>
  <style type="text/css">*{stroke-linecap:butt;stroke-linejoin:round;}</style>
 </defs>
 <g id="figure_1">
  <g id="patch_1">
   <path d="M 0 386.034375 
L 385.78125 386.034375 
L 385.78125 0 
L 0 0 
z
" style="fill:none;"/>
  </g>
  <g id="axes_1">
   <g id="patch_2">
    <path d="M 43.78125 348.478125 
L 378.58125 348.478125 
L 378.58125 22.318125 
L 43.78125 22.318125 
z
" style="fill:#ffffff;"/>
   </g>
   <g id="matplotlib.axis_1">
    <g id="xtick_1">
     <g id="line2d_1">
      <defs>
       <path d="M 0 0 
L 0 3.5 
" id="m0ab781cdf6" style="stroke:#000000;stroke-width:0.8;"/>
      </defs>
      <g>
       <use style="stroke:#000000;stroke-width:0.8;" x="58.999432" xlink:href="#m0ab781cdf6" y="348.478125"/>
      </g>
     </g>
     <g id="text_1">
      <!-- 0.0 -->
      <g transform="translate(51.047869 363.076562)scale(0.1 -0.1)">
       <defs>
        <path d="M 2034 4250 
Q 1547 4250 1301 3770 
Q 1056 3291 1056 2328 
Q 1056 1369 1301 889 
Q 1547 409 2034 409 
Q 2525 409 2770 889 
Q 3016 1369 3016 2328 
Q 3016 3291 2770 3770 
Q 2525 4250 2034 4250 
z
M 2034 4750 
Q 2819 4750 3233 4129 
Q 3647 3509 3647 2328 
Q 3647 1150 3233 529 
Q 2819 -91 2034 -91 
Q 1250 -91 836 529 
Q 422 1150 422 2328 
Q 422 3509 836 4129 
Q 1250 4750 2034 4750 
z
" id="DejaVuSans-30" transform="scale(0.015625)"/>
        <path d="M 684 794 
L 1344 794 
L 1344 0 
L 684 0 
L 684 794 
z
" id="DejaVuSans-2e" transform="scale(0.015625)"/>
       </defs>
       <use xlink:href="#DejaVuSans-30"/>
       <use x="63.623047" xlink:href="#DejaVuSans-2e"/>
       <use x="95.410156" xlink:href="#DejaVuSans-30"/>
      </g>
     </g>
    </g>
    <g id="xtick_2">
     <g id="line2d_2">
      <g>
       <use style="stroke:#000000;stroke-width:0.8;" x="119.872159" xlink:href="#m0ab781cdf6" y="348.478125"/>
      </g>
     </g>
     <g id="text_2">
      <!-- 0.2 -->
      <g transform="translate(111.920597 363.076562)scale(0.1 -0.1)">
       <defs>
        <path d="M 1228 531 
L 3431 531 
L 3431 0 
L 469 0 
L 469 531 
Q 828 903 1448 1529 
Q 2069 2156 2228 2338 
Q 2531 2678 2651 2914 
Q 2772 3150 2772 3378 
Q 2772 3750 2511 3984 
Q 2250 4219 1831 4219 
Q 1534 4219 1204 4116 
Q 875 4013 500 3803 
L 500 4441 
Q 881 4594 1212 4672 
Q 1544 4750 1819 4750 
Q 2544 4750 2975 4387 
Q 3406 4025 3406 3419 
Q 3406 3131 3298 2873 
Q 3191 2616 2906 2266 
Q 2828 2175 2409 1742 
Q 1991 1309 1228 531 
z
" id="DejaVuSans-32" transform="scale(0.015625)"/>
       </defs>
       <use xlink:href="#DejaVuSans-30"/>
       <use x="63.623047" xlink:href="#DejaVuSans-2e"/>
       <use x="95.410156" xlink:href="#DejaVuSans-32"/>
      </g>
     </g>
    </g>
    <g id="xtick_3">
     <g id="line2d_3">
      <g>
       <use style="stroke:#000000;stroke-width:0.8;" x="180.744886" xlink:href="#m0ab781cdf6" y="348.478125"/>
      </g>
     </g>
     <g id="text_3">
      <!-- 0.4 -->
      <g transform="translate(172.793324 363.076562)scale(0.1 -0.1)">
       <defs>
        <path d="M 2419 4116 
L 825 1625 
L 2419 1625 
L 2419 4116 
z
M 2253 4666 
L 3047 4666 
L 3047 1625 
L 3713 1625 
L 3713 1100 
L 3047 1100 
L 3047 0 
L 2419 0 
L 2419 1100 
L 313 1100 
L 313 1709 
L 2253 4666 
z
" id="DejaVuSans-34" transform="scale(0.015625)"/>
       </defs>
       <use xlink:href="#DejaVuSans-30"/>
       <use x="63.623047" xlink:href="#DejaVuSans-2e"/>
       <use x="95.410156" xlink:href="#DejaVuSans-34"/>
      </g>
     </g>
    </g>
    <g id="xtick_4">
     <g id="line2d_4">
      <g>
       <use style="stroke:#000000;stroke-width:0.8;" x="241.617614" xlink:href="#m0ab781cdf6" y="348.478125"/>
      </g>
     </g>
     <g id="text_4">
      <!-- 0.6 -->
      <g transform="translate(233.666051 363.076562)scale(0.1 -0.1)">
       <defs>
        <path d="M 2113 2584 
Q 1688 2584 1439 2293 
Q 1191 2003 1191 1497 
Q 1191 994 1439 701 
Q 1688 409 2113 409 
Q 2538 409 2786 701 
Q 3034 994 3034 1497 
Q 3034 2003 2786 2293 
Q 2538 2584 2113 2584 
z
M 3366 4563 
L 3366 3988 
Q 3128 4100 2886 4159 
Q 2644 4219 2406 4219 
Q 1781 4219 1451 3797 
Q 1122 3375 1075 2522 
Q 1259 2794 1537 2939 
Q 1816 3084 2150 3084 
Q 2853 3084 3261 2657 
Q 3669 2231 3669 1497 
Q 3669 778 3244 343 
Q 2819 -91 2113 -91 
Q 1303 -91 875 529 
Q 447 1150 447 2328 
Q 447 3434 972 4092 
Q 1497 4750 2381 4750 
Q 2619 4750 2861 4703 
Q 3103 4656 3366 4563 
z
" id="DejaVuSans-36" transform="scale(0.015625)"/>
       </defs>
       <use xlink:href="#DejaVuSans-30"/>
       <use x="63.623047" xlink:href="#DejaVuSans-2e"/>
       <use x="95.410156" xlink:href="#DejaVuSans-36"/>
      </g>
     </g>
    </g>
    <g id="xtick_5">
     <g id="line2d_5">
      <g>
       <use style="stroke:#000000;stroke-width:0.8;" x="302.490341" xlink:href="#m0ab781cdf6" y="348.478125"/>
      </g>
     </g>
     <g id="text_5">
      <!-- 0.8 -->
      <g transform="translate(294.538778 363.076562)scale(0.1 -0.1)">
       <defs>
        <path d="M 2034 2216 
Q 1584 2216 1326 1975 
Q 1069 1734 1069 1313 
Q 1069 891 1326 650 
Q 1584 409 2034 409 
Q 2484 409 2743 651 
Q 3003 894 3003 1313 
Q 3003 1734 2745 1975 
Q 2488 2216 2034 2216 
z
M 1403 2484 
Q 997 2584 770 2862 
Q 544 3141 544 3541 
Q 544 4100 942 4425 
Q 1341 4750 2034 4750 
Q 2731 4750 3128 4425 
Q 3525 4100 3525 3541 
Q 3525 3141 3298 2862 
Q 3072 2584 2669 2484 
Q 3125 2378 3379 2068 
Q 3634 1759 3634 1313 
Q 3634 634 3220 271 
Q 2806 -91 2034 -91 
Q 1263 -91 848 271 
Q 434 634 434 1313 
Q 434 1759 690 2068 
Q 947 2378 1403 2484 
z
M 1172 3481 
Q 1172 3119 1398 2916 
Q 1625 2713 2034 2713 
Q 2441 2713 2670 2916 
Q 2900 3119 2900 3481 
Q 2900 3844 2670 4047 
Q 2441 4250 2034 4250 
Q 1625 4250 1398 4047 
Q 1172 3844 1172 3481 
z
" id="DejaVuSans-38" transform="scale(0.015625)"/>
       </defs>
       <use xlink:href="#DejaVuSans-30"/>
       <use x="63.623047" xlink:href="#DejaVuSans-2e"/>
       <use x="95.410156" xlink:href="#DejaVuSans-38"/>
      </g>
     </g>
    </g>
    <g id="xtick_6">
     <g id="line2d_6">
      <g>
       <use style="stroke:#000000;stroke-width:0.8;" x="363.363068" xlink:href="#m0ab781cdf6" y="348.478125"/>
      </g>
     </g>
     <g id="text_6">
      <!-- 1.0 -->
      <g transform="translate(355.411506 363.076562)scale(0.1 -0.1)">
       <defs>
        <path d="M 794 531 
L 1825 531 
L 1825 4091 
L 703 3866 
L 703 4441 
L 1819 4666 
L 2450 4666 
L 2450 531 
L 3481 531 
L 3481 0 
L 794 0 
L 794 531 
z
" id="DejaVuSans-31" transform="scale(0.015625)"/>
       </defs>
       <use xlink:href="#DejaVuSans-31"/>
       <use x="63.623047" xlink:href="#DejaVuSans-2e"/>
       <use x="95.410156" xlink:href="#DejaVuSans-30"/>
      </g>
     </g>
    </g>
    <g id="text_7">
     <!-- False Positive Rate (Positive label: 1) -->
     <g transform="translate(119.815625 376.754687)scale(0.1 -0.1)">
      <defs>
       <path d="M 628 4666 
L 3309 4666 
L 3309 4134 
L 1259 4134 
L 1259 2759 
L 3109 2759 
L 3109 2228 
L 1259 2228 
L 1259 0 
L 628 0 
L 628 4666 
z
" id="DejaVuSans-46" transform="scale(0.015625)"/>
       <path d="M 2194 1759 
Q 1497 1759 1228 1600 
Q 959 1441 959 1056 
Q 959 750 1161 570 
Q 1363 391 1709 391 
Q 2188 391 2477 730 
Q 2766 1069 2766 1631 
L 2766 1759 
L 2194 1759 
z
M 3341 1997 
L 3341 0 
L 2766 0 
L 2766 531 
Q 2569 213 2275 61 
Q 1981 -91 1556 -91 
Q 1019 -91 701 211 
Q 384 513 384 1019 
Q 384 1609 779 1909 
Q 1175 2209 1959 2209 
L 2766 2209 
L 2766 2266 
Q 2766 2663 2505 2880 
Q 2244 3097 1772 3097 
Q 1472 3097 1187 3025 
Q 903 2953 641 2809 
L 641 3341 
Q 956 3463 1253 3523 
Q 1550 3584 1831 3584 
Q 2591 3584 2966 3190 
Q 3341 2797 3341 1997 
z
" id="DejaVuSans-61" transform="scale(0.015625)"/>
       <path d="M 603 4863 
L 1178 4863 
L 1178 0 
L 603 0 
L 603 4863 
z
" id="DejaVuSans-6c" transform="scale(0.015625)"/>
       <path d="M 2834 3397 
L 2834 2853 
Q 2591 2978 2328 3040 
Q 2066 3103 1784 3103 
Q 1356 3103 1142 2972 
Q 928 2841 928 2578 
Q 928 2378 1081 2264 
Q 1234 2150 1697 2047 
L 1894 2003 
Q 2506 1872 2764 1633 
Q 3022 1394 3022 966 
Q 3022 478 2636 193 
Q 2250 -91 1575 -91 
Q 1294 -91 989 -36 
Q 684 19 347 128 
L 347 722 
Q 666 556 975 473 
Q 1284 391 1588 391 
Q 1994 391 2212 530 
Q 2431 669 2431 922 
Q 2431 1156 2273 1281 
Q 2116 1406 1581 1522 
L 1381 1569 
Q 847 1681 609 1914 
Q 372 2147 372 2553 
Q 372 3047 722 3315 
Q 1072 3584 1716 3584 
Q 2034 3584 2315 3537 
Q 2597 3491 2834 3397 
z
" id="DejaVuSans-73" transform="scale(0.015625)"/>
       <path d="M 3597 1894 
L 3597 1613 
L 953 1613 
Q 991 1019 1311 708 
Q 1631 397 2203 397 
Q 2534 397 2845 478 
Q 3156 559 3463 722 
L 3463 178 
Q 3153 47 2828 -22 
Q 2503 -91 2169 -91 
Q 1331 -91 842 396 
Q 353 884 353 1716 
Q 353 2575 817 3079 
Q 1281 3584 2069 3584 
Q 2775 3584 3186 3129 
Q 3597 2675 3597 1894 
z
M 3022 2063 
Q 3016 2534 2758 2815 
Q 2500 3097 2075 3097 
Q 1594 3097 1305 2825 
Q 1016 2553 972 2059 
L 3022 2063 
z
" id="DejaVuSans-65" transform="scale(0.015625)"/>
       <path id="DejaVuSans-20" transform="scale(0.015625)"/>
       <path d="M 1259 4147 
L 1259 2394 
L 2053 2394 
Q 2494 2394 2734 2622 
Q 2975 2850 2975 3272 
Q 2975 3691 2734 3919 
Q 2494 4147 2053 4147 
L 1259 4147 
z
M 628 4666 
L 2053 4666 
Q 2838 4666 3239 4311 
Q 3641 3956 3641 3272 
Q 3641 2581 3239 2228 
Q 2838 1875 2053 1875 
L 1259 1875 
L 1259 0 
L 628 0 
L 628 4666 
z
" id="DejaVuSans-50" transform="scale(0.015625)"/>
       <path d="M 1959 3097 
Q 1497 3097 1228 2736 
Q 959 2375 959 1747 
Q 959 1119 1226 758 
Q 1494 397 1959 397 
Q 2419 397 2687 759 
Q 2956 1122 2956 1747 
Q 2956 2369 2687 2733 
Q 2419 3097 1959 3097 
z
M 1959 3584 
Q 2709 3584 3137 3096 
Q 3566 2609 3566 1747 
Q 3566 888 3137 398 
Q 2709 -91 1959 -91 
Q 1206 -91 779 398 
Q 353 888 353 1747 
Q 353 2609 779 3096 
Q 1206 3584 1959 3584 
z
" id="DejaVuSans-6f" transform="scale(0.015625)"/>
       <path d="M 603 3500 
L 1178 3500 
L 1178 0 
L 603 0 
L 603 3500 
z
M 603 4863 
L 1178 4863 
L 1178 4134 
L 603 4134 
L 603 4863 
z
" id="DejaVuSans-69" transform="scale(0.015625)"/>
       <path d="M 1172 4494 
L 1172 3500 
L 2356 3500 
L 2356 3053 
L 1172 3053 
L 1172 1153 
Q 1172 725 1289 603 
Q 1406 481 1766 481 
L 2356 481 
L 2356 0 
L 1766 0 
Q 1100 0 847 248 
Q 594 497 594 1153 
L 594 3053 
L 172 3053 
L 172 3500 
L 594 3500 
L 594 4494 
L 1172 4494 
z
" id="DejaVuSans-74" transform="scale(0.015625)"/>
       <path d="M 191 3500 
L 800 3500 
L 1894 563 
L 2988 3500 
L 3597 3500 
L 2284 0 
L 1503 0 
L 191 3500 
z
" id="DejaVuSans-76" transform="scale(0.015625)"/>
       <path d="M 2841 2188 
Q 3044 2119 3236 1894 
Q 3428 1669 3622 1275 
L 4263 0 
L 3584 0 
L 2988 1197 
Q 2756 1666 2539 1819 
Q 2322 1972 1947 1972 
L 1259 1972 
L 1259 0 
L 628 0 
L 628 4666 
L 2053 4666 
Q 2853 4666 3247 4331 
Q 3641 3997 3641 3322 
Q 3641 2881 3436 2590 
Q 3231 2300 2841 2188 
z
M 1259 4147 
L 1259 2491 
L 2053 2491 
Q 2509 2491 2742 2702 
Q 2975 2913 2975 3322 
Q 2975 3731 2742 3939 
Q 2509 4147 2053 4147 
L 1259 4147 
z
" id="DejaVuSans-52" transform="scale(0.015625)"/>
       <path d="M 1984 4856 
Q 1566 4138 1362 3434 
Q 1159 2731 1159 2009 
Q 1159 1288 1364 580 
Q 1569 -128 1984 -844 
L 1484 -844 
Q 1016 -109 783 600 
Q 550 1309 550 2009 
Q 550 2706 781 3412 
Q 1013 4119 1484 4856 
L 1984 4856 
z
" id="DejaVuSans-28" transform="scale(0.015625)"/>
       <path d="M 3116 1747 
Q 3116 2381 2855 2742 
Q 2594 3103 2138 3103 
Q 1681 3103 1420 2742 
Q 1159 2381 1159 1747 
Q 1159 1113 1420 752 
Q 1681 391 2138 391 
Q 2594 391 2855 752 
Q 3116 1113 3116 1747 
z
M 1159 2969 
Q 1341 3281 1617 3432 
Q 1894 3584 2278 3584 
Q 2916 3584 3314 3078 
Q 3713 2572 3713 1747 
Q 3713 922 3314 415 
Q 2916 -91 2278 -91 
Q 1894 -91 1617 61 
Q 1341 213 1159 525 
L 1159 0 
L 581 0 
L 581 4863 
L 1159 4863 
L 1159 2969 
z
" id="DejaVuSans-62" transform="scale(0.015625)"/>
       <path d="M 750 794 
L 1409 794 
L 1409 0 
L 750 0 
L 750 794 
z
M 750 3309 
L 1409 3309 
L 1409 2516 
L 750 2516 
L 750 3309 
z
" id="DejaVuSans-3a" transform="scale(0.015625)"/>
       <path d="M 513 4856 
L 1013 4856 
Q 1481 4119 1714 3412 
Q 1947 2706 1947 2009 
Q 1947 1309 1714 600 
Q 1481 -109 1013 -844 
L 513 -844 
Q 928 -128 1133 580 
Q 1338 1288 1338 2009 
Q 1338 2731 1133 3434 
Q 928 4138 513 4856 
z
" id="DejaVuSans-29" transform="scale(0.015625)"/>
      </defs>
      <use xlink:href="#DejaVuSans-46"/>
      <use x="48.394531" xlink:href="#DejaVuSans-61"/>
      <use x="109.673828" xlink:href="#DejaVuSans-6c"/>
      <use x="137.457031" xlink:href="#DejaVuSans-73"/>
      <use x="189.556641" xlink:href="#DejaVuSans-65"/>
      <use x="251.080078" xlink:href="#DejaVuSans-20"/>
      <use x="282.867188" xlink:href="#DejaVuSans-50"/>
      <use x="339.544922" xlink:href="#DejaVuSans-6f"/>
      <use x="400.726562" xlink:href="#DejaVuSans-73"/>
      <use x="452.826172" xlink:href="#DejaVuSans-69"/>
      <use x="480.609375" xlink:href="#DejaVuSans-74"/>
      <use x="519.818359" xlink:href="#DejaVuSans-69"/>
      <use x="547.601562" xlink:href="#DejaVuSans-76"/>
      <use x="606.78125" xlink:href="#DejaVuSans-65"/>
      <use x="668.304688" xlink:href="#DejaVuSans-20"/>
      <use x="700.091797" xlink:href="#DejaVuSans-52"/>
      <use x="767.324219" xlink:href="#DejaVuSans-61"/>
      <use x="828.603516" xlink:href="#DejaVuSans-74"/>
      <use x="867.8125" xlink:href="#DejaVuSans-65"/>
      <use x="929.335938" xlink:href="#DejaVuSans-20"/>
      <use x="961.123047" xlink:href="#DejaVuSans-28"/>
      <use x="1000.136719" xlink:href="#DejaVuSans-50"/>
      <use x="1056.814453" xlink:href="#DejaVuSans-6f"/>
      <use x="1117.996094" xlink:href="#DejaVuSans-73"/>
      <use x="1170.095703" xlink:href="#DejaVuSans-69"/>
      <use x="1197.878906" xlink:href="#DejaVuSans-74"/>
      <use x="1237.087891" xlink:href="#DejaVuSans-69"/>
      <use x="1264.871094" xlink:href="#DejaVuSans-76"/>
      <use x="1324.050781" xlink:href="#DejaVuSans-65"/>
      <use x="1385.574219" xlink:href="#DejaVuSans-20"/>
      <use x="1417.361328" xlink:href="#DejaVuSans-6c"/>
      <use x="1445.144531" xlink:href="#DejaVuSans-61"/>
      <use x="1506.423828" xlink:href="#DejaVuSans-62"/>
      <use x="1569.900391" xlink:href="#DejaVuSans-65"/>
      <use x="1631.423828" xlink:href="#DejaVuSans-6c"/>
      <use x="1659.207031" xlink:href="#DejaVuSans-3a"/>
      <use x="1692.898438" xlink:href="#DejaVuSans-20"/>
      <use x="1724.685547" xlink:href="#DejaVuSans-31"/>
      <use x="1788.308594" xlink:href="#DejaVuSans-29"/>
     </g>
    </g>
   </g>
   <g id="matplotlib.axis_2">
    <g id="ytick_1">
     <g id="line2d_7">
      <defs>
       <path d="M 0 0 
L -3.5 0 
" id="m9b2f1e5ce8" style="stroke:#000000;stroke-width:0.8;"/>
      </defs>
      <g>
       <use style="stroke:#000000;stroke-width:0.8;" x="43.78125" xlink:href="#m9b2f1e5ce8" y="333.65267"/>
      </g>
     </g>
     <g id="text_8">
      <!-- 0.0 -->
      <g transform="translate(20.878125 337.451889)scale(0.1 -0.1)">
       <use xlink:href="#DejaVuSans-30"/>
       <use x="63.623047" xlink:href="#DejaVuSans-2e"/>
       <use x="95.410156" xlink:href="#DejaVuSans-30"/>
      </g>
     </g>
    </g>
    <g id="ytick_2">
     <g id="line2d_8">
      <g>
       <use style="stroke:#000000;stroke-width:0.8;" x="43.78125" xlink:href="#m9b2f1e5ce8" y="274.350852"/>
      </g>
     </g>
     <g id="text_9">
      <!-- 0.2 -->
      <g transform="translate(20.878125 278.150071)scale(0.1 -0.1)">
       <use xlink:href="#DejaVuSans-30"/>
       <use x="63.623047" xlink:href="#DejaVuSans-2e"/>
       <use x="95.410156" xlink:href="#DejaVuSans-32"/>
      </g>
     </g>
    </g>
    <g id="ytick_3">
     <g id="line2d_9">
      <g>
       <use style="stroke:#000000;stroke-width:0.8;" x="43.78125" xlink:href="#m9b2f1e5ce8" y="215.049034"/>
      </g>
     </g>
     <g id="text_10">
      <!-- 0.4 -->
      <g transform="translate(20.878125 218.848253)scale(0.1 -0.1)">
       <use xlink:href="#DejaVuSans-30"/>
       <use x="63.623047" xlink:href="#DejaVuSans-2e"/>
       <use x="95.410156" xlink:href="#DejaVuSans-34"/>
      </g>
     </g>
    </g>
    <g id="ytick_4">
     <g id="line2d_10">
      <g>
       <use style="stroke:#000000;stroke-width:0.8;" x="43.78125" xlink:href="#m9b2f1e5ce8" y="155.747216"/>
      </g>
     </g>
     <g id="text_11">
      <!-- 0.6 -->
      <g transform="translate(20.878125 159.546435)scale(0.1 -0.1)">
       <use xlink:href="#DejaVuSans-30"/>
       <use x="63.623047" xlink:href="#DejaVuSans-2e"/>
       <use x="95.410156" xlink:href="#DejaVuSans-36"/>
      </g>
     </g>
    </g>
    <g id="ytick_5">
     <g id="line2d_11">
      <g>
       <use style="stroke:#000000;stroke-width:0.8;" x="43.78125" xlink:href="#m9b2f1e5ce8" y="96.445398"/>
      </g>
     </g>
     <g id="text_12">
      <!-- 0.8 -->
      <g transform="translate(20.878125 100.244616)scale(0.1 -0.1)">
       <use xlink:href="#DejaVuSans-30"/>
       <use x="63.623047" xlink:href="#DejaVuSans-2e"/>
       <use x="95.410156" xlink:href="#DejaVuSans-38"/>
      </g>
     </g>
    </g>
    <g id="ytick_6">
     <g id="line2d_12">
      <g>
       <use style="stroke:#000000;stroke-width:0.8;" x="43.78125" xlink:href="#m9b2f1e5ce8" y="37.14358"/>
      </g>
     </g>
     <g id="text_13">
      <!-- 1.0 -->
      <g transform="translate(20.878125 40.942798)scale(0.1 -0.1)">
       <use xlink:href="#DejaVuSans-31"/>
       <use x="63.623047" xlink:href="#DejaVuSans-2e"/>
       <use x="95.410156" xlink:href="#DejaVuSans-30"/>
      </g>
     </g>
    </g>
    <g id="text_14">
     <!-- True Positive Rate (Positive label: 1) -->
     <g transform="translate(14.798438 274.827031)rotate(-90)scale(0.1 -0.1)">
      <defs>
       <path d="M -19 4666 
L 3928 4666 
L 3928 4134 
L 2272 4134 
L 2272 0 
L 1638 0 
L 1638 4134 
L -19 4134 
L -19 4666 
z
" id="DejaVuSans-54" transform="scale(0.015625)"/>
       <path d="M 2631 2963 
Q 2534 3019 2420 3045 
Q 2306 3072 2169 3072 
Q 1681 3072 1420 2755 
Q 1159 2438 1159 1844 
L 1159 0 
L 581 0 
L 581 3500 
L 1159 3500 
L 1159 2956 
Q 1341 3275 1631 3429 
Q 1922 3584 2338 3584 
Q 2397 3584 2469 3576 
Q 2541 3569 2628 3553 
L 2631 2963 
z
" id="DejaVuSans-72" transform="scale(0.015625)"/>
       <path d="M 544 1381 
L 544 3500 
L 1119 3500 
L 1119 1403 
Q 1119 906 1312 657 
Q 1506 409 1894 409 
Q 2359 409 2629 706 
Q 2900 1003 2900 1516 
L 2900 3500 
L 3475 3500 
L 3475 0 
L 2900 0 
L 2900 538 
Q 2691 219 2414 64 
Q 2138 -91 1772 -91 
Q 1169 -91 856 284 
Q 544 659 544 1381 
z
M 1991 3584 
L 1991 3584 
z
" id="DejaVuSans-75" transform="scale(0.015625)"/>
      </defs>
      <use xlink:href="#DejaVuSans-54"/>
      <use x="46.333984" xlink:href="#DejaVuSans-72"/>
      <use x="87.447266" xlink:href="#DejaVuSans-75"/>
      <use x="150.826172" xlink:href="#DejaVuSans-65"/>
      <use x="212.349609" xlink:href="#DejaVuSans-20"/>
      <use x="244.136719" xlink:href="#DejaVuSans-50"/>
      <use x="300.814453" xlink:href="#DejaVuSans-6f"/>
      <use x="361.996094" xlink:href="#DejaVuSans-73"/>
      <use x="414.095703" xlink:href="#DejaVuSans-69"/>
      <use x="441.878906" xlink:href="#DejaVuSans-74"/>
      <use x="481.087891" xlink:href="#DejaVuSans-69"/>
      <use x="508.871094" xlink:href="#DejaVuSans-76"/>
      <use x="568.050781" xlink:href="#DejaVuSans-65"/>
      <use x="629.574219" xlink:href="#DejaVuSans-20"/>
      <use x="661.361328" xlink:href="#DejaVuSans-52"/>
      <use x="728.59375" xlink:href="#DejaVuSans-61"/>
      <use x="789.873047" xlink:href="#DejaVuSans-74"/>
      <use x="829.082031" xlink:href="#DejaVuSans-65"/>
      <use x="890.605469" xlink:href="#DejaVuSans-20"/>
      <use x="922.392578" xlink:href="#DejaVuSans-28"/>
      <use x="961.40625" xlink:href="#DejaVuSans-50"/>
      <use x="1018.083984" xlink:href="#DejaVuSans-6f"/>
      <use x="1079.265625" xlink:href="#DejaVuSans-73"/>
      <use x="1131.365234" xlink:href="#DejaVuSans-69"/>
      <use x="1159.148438" xlink:href="#DejaVuSans-74"/>
      <use x="1198.357422" xlink:href="#DejaVuSans-69"/>
      <use x="1226.140625" xlink:href="#DejaVuSans-76"/>
      <use x="1285.320312" xlink:href="#DejaVuSans-65"/>
      <use x="1346.84375" xlink:href="#DejaVuSans-20"/>
      <use x="1378.630859" xlink:href="#DejaVuSans-6c"/>
      <use x="1406.414062" xlink:href="#DejaVuSans-61"/>
      <use x="1467.693359" xlink:href="#DejaVuSans-62"/>
      <use x="1531.169922" xlink:href="#DejaVuSans-65"/>
      <use x="1592.693359" xlink:href="#DejaVuSans-6c"/>
      <use x="1620.476562" xlink:href="#DejaVuSans-3a"/>
      <use x="1654.167969" xlink:href="#DejaVuSans-20"/>
      <use x="1685.955078" xlink:href="#DejaVuSans-31"/>
      <use x="1749.578125" xlink:href="#DejaVuSans-29"/>
     </g>
    </g>
   </g>
   <g id="line2d_13">
    <path clip-path="url(#p6d2c51ba5b)" d="M 58.999432 333.65267 
L 59.101993 331.11276 
L 59.118187 331.011164 
L 59.220748 329.030034 
L 59.247738 328.928438 
L 59.350299 327.353694 
L 59.366493 327.353694 
L 59.474452 326.032941 
L 59.485248 325.982142 
L 59.555421 325.372564 
L 59.598605 325.372564 
L 59.69037 324.559793 
L 59.728156 324.458196 
L 59.836115 323.340636 
L 59.868502 323.23904 
L 59.976461 322.781856 
L 59.992655 322.731058 
L 60.089819 321.613497 
L 60.116808 321.511901 
L 60.181584 321.308708 
L 60.246359 321.207112 
L 60.34892 320.292744 
L 60.397502 320.241946 
L 60.505461 319.225982 
L 60.554043 319.175184 
L 60.554043 319.124385 
L 60.85093 317.244852 
L 60.958889 316.482879 
L 61.007471 316.432081 
L 61.104634 316.076493 
L 61.131624 316.076493 
L 61.234185 315.517713 
L 61.27197 315.466915 
L 61.374532 314.704942 
L 61.444705 314.603346 
L 61.53647 313.790574 
L 61.606644 313.739776 
L 61.606644 313.688978 
L 61.703807 312.977803 
L 61.736194 312.876207 
L 61.838756 312.063436 
L 61.871143 311.961839 
L 61.962909 311.09827 
L 61.979102 311.09827 
L 62.313776 308.812351 
L 62.351561 308.761553 
L 62.45952 308.050378 
L 62.5135 307.948781 
L 62.616061 307.085212 
L 62.648449 306.983616 
L 62.756408 305.916853 
L 62.810387 305.815257 
L 62.918346 305.205679 
L 62.993918 305.104082 
L 63.101877 304.494504 
L 63.14506 304.392908 
L 63.25302 303.47854 
L 63.312397 303.376944 
L 63.414958 302.91976 
L 63.425754 302.91976 
L 63.533713 302.411778 
L 63.555305 302.36098 
L 63.663264 301.649805 
L 63.706448 301.548208 
L 63.809009 301.040226 
L 63.825203 300.93863 
L 63.91157 300.125859 
L 64.003335 300.024262 
L 64.111294 299.160693 
L 64.143682 299.059097 
L 64.251641 298.246325 
L 64.273233 298.195527 
L 64.364998 297.636747 
L 64.391988 297.535151 
L 64.483753 296.823976 
L 64.526937 296.722379 
L 64.575518 296.41759 
L 64.645692 296.366792 
L 64.753651 295.706415 
L 64.769845 295.604819 
L 64.872406 295.249232 
L 64.942579 295.147635 
L 65.04514 294.690451 
L 65.109916 294.588855 
L 65.207079 294.233268 
L 65.255661 294.131671 
L 65.352824 293.268102 
L 65.369018 293.268102 
L 65.476977 292.658523 
L 65.52016 292.607725 
L 65.622721 292.048945 
L 65.660507 291.947349 
L 65.768466 291.032981 
L 65.790058 290.931385 
L 65.887221 290.372604 
L 65.935803 290.321806 
L 66.038364 289.509035 
L 66.092343 289.458237 
L 66.178711 288.645466 
L 66.221894 288.594667 
L 66.329853 287.883493 
L 66.351445 287.832694 
L 66.459404 287.375511 
L 66.49719 287.273914 
L 66.594353 286.81673 
L 66.664527 286.715134 
L 66.767088 286.003959 
L 66.794077 285.902363 
L 66.880445 285.394381 
L 66.923628 285.292784 
L 67.031587 284.784802 
L 67.085567 284.734004 
L 67.193526 283.972031 
L 67.20972 283.972031 
L 67.279893 283.616444 
L 67.398648 283.514847 
L 67.458026 282.956067 
L 67.538995 282.854471 
L 67.636158 282.397287 
L 67.673944 282.295691 
L 67.781903 281.787709 
L 67.798097 281.686112 
L 67.873668 281.381323 
L 67.965433 281.330525 
L 68.073392 280.873341 
L 68.127372 280.771745 
L 68.224535 280.263763 
L 68.256923 280.162166 
L 68.359484 279.958974 
L 68.408066 279.908175 
L 68.499831 279.552588 
L 68.548412 279.450992 
L 68.63478 279.197001 
L 68.731943 279.095404 
L 68.796718 278.892211 
L 68.920871 278.790615 
L 68.996443 278.384229 
L 69.072014 278.384229 
L 69.179973 277.673055 
L 69.212361 277.622256 
L 69.32032 276.758687 
L 69.352708 276.657091 
L 69.455269 276.250705 
L 69.536238 276.149109 
L 69.628003 275.285539 
L 69.671187 275.183943 
L 69.76835 274.523566 
L 69.816932 274.42197 
L 69.924891 273.710795 
L 70.00586 273.609199 
L 70.103023 273.253611 
L 70.18939 273.152015 
L 70.291952 272.44084 
L 70.340533 272.390042 
L 70.448492 271.729665 
L 70.502472 271.628069 
L 70.605033 271.374078 
L 70.680604 271.32328 
L 70.756176 270.612105 
L 70.810155 270.510508 
L 70.885727 269.951728 
L 70.939706 269.850132 
L 71.042267 269.189755 
L 71.123237 269.138957 
L 71.204206 268.681773 
L 71.328359 268.580177 
L 71.425522 268.376984 
L 71.474104 268.275388 
L 71.549675 267.9198 
L 71.603654 267.869002 
L 71.679226 267.462616 
L 71.824971 267.411818 
L 71.927532 266.700643 
L 71.970715 266.649845 
L 72.078674 266.345056 
L 72.127256 266.345056 
L 72.229817 265.633881 
L 72.278399 265.583083 
L 72.38096 264.922706 
L 72.456531 264.82111 
L 72.559092 264.719514 
L 72.61847 264.617917 
L 72.726429 264.313128 
L 72.818194 264.211532 
L 72.920755 263.805146 
L 72.947745 263.70355 
L 72.963939 263.500357 
L 73.131275 263.39876 
L 73.217643 263.246366 
L 73.325602 263.144769 
L 73.411969 262.687586 
L 73.492938 262.585989 
L 73.579306 262.230402 
L 73.72505 262.128805 
L 73.833009 261.671622 
L 73.881591 261.570025 
L 73.973356 261.265236 
L 74.04353 261.16364 
L 74.151489 260.85885 
L 74.20007 260.757254 
L 74.308029 260.30007 
L 74.362009 260.198474 
L 74.46457 259.74129 
L 74.550937 259.639694 
L 74.637305 259.334904 
L 74.75606 259.233308 
L 74.847825 259.030115 
L 74.917998 258.928519 
L 75.025957 258.268142 
L 75.063743 258.166546 
L 75.155508 257.709362 
L 75.198692 257.607766 
L 75.306651 257.20138 
L 75.403814 257.099784 
L 75.4416 256.896591 
L 75.544161 256.845793 
L 75.641324 256.236214 
L 75.700701 256.185416 
L 75.808661 255.829829 
L 75.86264 255.728232 
L 75.922018 255.372645 
L 75.992191 255.271049 
L 76.078558 254.864663 
L 76.121742 254.864663 
L 76.186517 254.407479 
L 76.213507 254.407479 
L 76.251293 254.305883 
L 76.348456 254.10269 
L 76.418629 254.001094 
L 76.504997 253.54391 
L 76.569772 253.442313 
L 76.666935 253.086726 
L 76.688527 253.035928 
L 76.764098 252.375551 
L 76.83967 252.273955 
L 76.936833 251.715175 
L 76.990813 251.613578 
L 77.060986 251.461184 
L 77.136557 251.359587 
L 77.217527 250.800807 
L 77.276904 250.699211 
L 77.374067 250.089632 
L 77.482026 249.988036 
L 77.519812 249.784843 
L 77.616975 249.683247 
L 77.627771 249.58165 
L 77.73573 249.480054 
L 77.832893 249.02287 
L 77.94625 248.921274 
L 78.016424 248.768879 
L 78.070403 248.718081 
L 78.178362 248.46409 
L 78.216148 248.362493 
L 78.280924 248.057704 
L 78.44826 247.956108 
L 78.545423 247.60052 
L 78.583209 247.498924 
L 78.642586 247.194135 
L 78.788331 247.092538 
L 78.863903 246.686153 
L 78.917882 246.584556 
L 79.025841 246.076574 
L 79.128402 245.974978 
L 79.144596 245.822583 
L 79.257953 245.720987 
L 79.322729 245.517794 
L 79.355116 245.517794 
L 79.403698 245.466996 
L 79.511657 244.857418 
L 79.576432 244.755821 
L 79.684392 244.146243 
L 79.716779 244.044646 
L 79.813942 243.790655 
L 79.857126 243.689059 
L 79.965085 243.028682 
L 80.05685 242.927086 
L 80.089238 242.774691 
L 80.202595 242.723893 
L 80.305156 242.215911 
L 80.34834 242.165113 
L 80.402319 241.911122 
L 80.53187 241.809526 
L 80.629034 241.504736 
L 80.715401 241.40314 
L 80.790972 241.250745 
L 80.877339 241.149149 
L 80.936717 240.84436 
L 81.012288 240.742763 
L 81.120247 240.437974 
L 81.249798 240.336378 
L 81.357757 239.828396 
L 81.379349 239.726799 
L 81.465716 239.371212 
L 81.568277 239.269616 
L 81.568277 239.218817 
L 81.714022 239.168019 
L 81.80039 238.609239 
L 81.859767 238.507643 
L 81.951532 238.101257 
L 82.032502 237.999661 
L 82.129665 237.593275 
L 82.253818 237.491679 
L 82.334787 237.034495 
L 82.43195 236.932898 
L 82.529113 236.729706 
L 82.647868 236.628109 
L 82.745031 236.374118 
L 82.782817 236.272522 
L 82.831399 235.916934 
L 82.90697 235.916934 
L 82.993337 235.612145 
L 83.085103 235.510549 
L 83.182266 235.104163 
L 83.284827 235.002567 
L 83.392786 234.697778 
L 83.452163 234.646979 
L 83.560123 234.291392 
L 83.657286 234.189796 
L 83.711265 233.885006 
L 83.786837 233.78341 
L 83.884 233.123033 
L 83.921785 233.021437 
L 83.981163 232.66585 
L 84.099918 232.564253 
L 84.191683 232.310262 
L 84.33203 232.208666 
L 84.429193 231.700684 
L 84.466979 231.649886 
L 84.520958 231.395895 
L 84.693693 231.294298 
L 84.790856 230.989509 
L 84.855631 230.887913 
L 84.931203 230.735518 
L 85.012172 230.633922 
L 85.055356 230.481527 
L 85.211896 230.430729 
L 85.314458 230.227536 
L 85.390029 230.12594 
L 85.460202 229.821151 
L 85.530376 229.719554 
L 85.627539 229.617958 
L 85.692314 229.516361 
L 85.740896 229.313169 
L 85.881243 229.211572 
L 85.956814 228.906783 
L 86.02159 228.805187 
L 86.107957 228.398801 
L 86.145742 228.348003 
L 86.172732 228.094012 
L 86.291487 227.992415 
L 86.291487 227.941617 
L 86.480416 227.840021 
L 86.588375 227.636828 
L 86.620762 227.535232 
L 86.669344 227.179644 
L 86.788099 227.078048 
L 86.879864 226.874855 
L 86.928446 226.773259 
L 87.025609 226.316075 
L 87.111976 226.214478 
L 87.192946 226.011286 
L 87.403466 225.909689 
L 87.479037 225.6049 
L 87.640976 225.503304 
L 87.743537 225.198514 
L 88.013435 225.096918 
L 88.094404 224.893725 
L 88.223955 224.792129 
L 88.304924 224.334945 
L 88.402087 224.233349 
L 88.488455 223.877761 
L 88.60721 223.776165 
L 88.677383 223.62377 
L 88.839322 223.522174 
L 88.898699 223.420577 
L 88.968872 223.369779 
L 89.05524 223.014192 
L 89.130811 222.912595 
L 89.206382 222.658604 
L 89.384515 222.557008 
L 89.47628 222.049026 
L 89.622025 221.94743 
L 89.724586 221.64264 
L 89.778566 221.541044 
L 89.881127 221.236255 
L 89.999882 221.134658 
L 90.091647 220.779071 
L 90.24279 220.677475 
L 90.307565 220.220291 
L 90.393932 220.118694 
L 90.4803 219.712309 
L 90.555871 219.610712 
L 90.658432 219.356721 
L 90.696218 219.305923 
L 90.804177 219.001134 
L 91.014697 218.899538 
L 91.122656 218.54395 
L 91.182034 218.442354 
L 91.279197 218.239161 
L 91.40335 218.137565 
L 91.500513 217.98517 
L 91.721829 217.883574 
L 91.781206 217.680381 
L 91.856778 217.629583 
L 91.916155 217.223197 
L 92.105084 217.121601 
L 92.202247 216.766013 
L 92.261624 216.664417 
L 92.310206 216.461224 
L 92.50993 216.359628 
L 92.607093 216.105637 
L 92.693461 216.00404 
L 92.736644 215.699251 
L 92.903981 215.597655 
L 92.979552 215.292865 
L 93.109103 215.191269 
L 93.211664 214.988076 
L 93.335817 214.88648 
L 93.43298 214.530892 
L 93.48696 214.429296 
L 93.584123 214.276901 
L 93.692082 214.175305 
L 93.800041 213.870516 
L 94.005164 213.768919 
L 94.107725 213.413332 
L 94.215684 213.311736 
L 94.318245 213.057745 
L 94.415408 212.956148 
L 94.523367 212.854552 
L 94.7015 212.752955 
L 94.793265 212.549763 
L 94.836448 212.448166 
L 94.944408 212.143377 
L 95.181917 212.041781 
L 95.289877 211.78779 
L 95.370846 211.686193 
L 95.392438 211.584597 
L 95.602958 211.483 
L 95.662335 211.229009 
L 95.943029 211.127413 
L 96.050988 210.873422 
L 96.202131 210.771826 
L 96.31009 210.619431 
L 96.504416 210.517835 
L 96.596181 210.213045 
L 96.644763 210.111449 
L 96.741926 209.451072 
L 96.817498 209.349476 
L 96.909263 209.044687 
L 97.02262 208.943091 
L 97.125181 208.790696 
L 97.168365 208.739898 
L 97.216946 208.485907 
L 97.41667 208.38431 
L 97.519232 208.181118 
L 97.594803 208.130319 
L 97.686568 207.927127 
L 97.751344 207.876328 
L 97.816119 207.469943 
L 97.961864 207.419145 
L 98.042833 207.012759 
L 98.15619 206.961961 
L 98.264149 206.504777 
L 98.382904 206.403181 
L 98.3937 206.301584 
L 98.571833 206.199988 
L 98.652802 206.047593 
L 98.728373 205.945997 
L 98.825536 205.793602 
L 98.982077 205.692006 
L 98.987475 205.590409 
L 99.230383 205.488813 
L 99.332944 205.082427 
L 99.462495 204.980831 
L 99.570454 204.72684 
L 99.737791 204.625244 
L 99.829556 204.371253 
L 99.910525 204.269656 
L 100.013086 203.660078 
L 100.072464 203.558481 
L 100.153433 203.30449 
L 100.229004 203.253692 
L 100.331566 202.948903 
L 100.509698 202.847307 
L 100.617657 202.644114 
L 100.650045 202.542517 
L 100.74181 202.18693 
L 100.838973 202.085334 
L 100.941534 201.831343 
L 100.957728 201.780544 
L 101.054891 201.424957 
L 101.114269 201.323361 
L 101.146657 201.221764 
L 101.313993 201.120168 
L 101.389565 200.662984 
L 101.605483 200.561388 
L 101.708044 200.408993 
L 101.945554 200.307397 
L 102.015727 200.002607 
L 102.269431 199.901011 
L 102.371992 199.545424 
L 102.485349 199.443827 
L 102.571717 199.240634 
L 102.679676 199.139038 
L 102.749849 198.834249 
L 102.85241 198.732652 
L 102.944175 198.478661 
L 103.057532 198.377065 
L 103.127706 198.173872 
L 103.273451 198.072276 
L 103.332828 197.919881 
L 103.408399 197.818285 
L 103.489369 197.310303 
L 103.61892 197.208706 
L 103.716083 197.005514 
L 103.85643 196.903917 
L 103.953593 196.649926 
L 104.104735 196.54833 
L 104.196501 196.141944 
L 104.33145 196.040348 
L 104.439409 195.837155 
L 104.504184 195.735559 
L 104.601347 195.633962 
L 104.666123 195.532366 
L 104.763286 195.329173 
L 104.849653 195.227577 
L 104.903633 195.075182 
L 105.000796 194.973586 
L 105.108755 194.719595 
L 105.238306 194.617998 
L 105.346265 194.364007 
L 105.443428 194.262411 
L 105.459622 194.110016 
L 105.599969 194.00842 
L 105.70253 193.856025 
L 105.788897 193.754429 
L 105.88606 193.398841 
L 105.929244 193.297245 
L 106.037203 192.941658 
L 106.280111 192.840061 
L 106.280111 192.738465 
L 106.447447 192.636868 
L 106.528417 192.433676 
L 106.587794 192.332079 
L 106.603988 192.230483 
L 106.749733 192.128886 
L 106.830702 191.722501 
L 106.900876 191.620904 
L 106.965651 191.46851 
L 107.062814 191.417712 
L 107.170773 190.90973 
L 107.197763 190.808133 
L 107.262539 190.60494 
L 107.354304 190.503344 
L 107.413681 190.350949 
L 107.516242 190.249353 
L 107.624201 189.792169 
L 107.75915 189.690573 
L 107.856313 189.385784 
L 107.921089 189.284187 
L 108.007456 189.080994 
L 108.07763 188.979398 
L 108.120813 188.827003 
L 108.255762 188.725407 
L 108.363721 188.420618 
L 108.417701 188.319021 
L 108.47168 188.217425 
L 108.622823 188.115829 
L 108.671405 187.963434 
L 108.773966 187.912636 
L 108.871129 187.607847 
L 108.984486 187.50625 
L 109.087047 187.201461 
L 109.168016 187.099865 
L 109.254384 186.845874 
L 109.405526 186.744277 
L 109.470302 186.490286 
L 109.556669 186.38869 
L 109.637638 186.185497 
L 109.718608 186.185497 
L 109.826567 185.880708 
L 109.848159 185.779111 
L 109.945322 185.575919 
L 110.004699 185.52512 
L 110.101862 185.118735 
L 110.16124 185.017139 
L 110.258403 184.458358 
L 110.333974 184.356762 
L 110.431138 184.255166 
L 110.485117 184.204367 
L 110.549893 183.950376 
L 110.722627 183.84878 
L 110.798198 183.594789 
L 110.889964 183.493193 
L 110.965535 183.239202 
L 111.213841 183.137605 
L 111.311004 182.832816 
L 111.354188 182.73122 
L 111.451351 182.274036 
L 111.597096 182.172439 
L 111.694259 181.86765 
L 111.732044 181.766054 
L 111.786024 181.613659 
L 111.974952 181.512063 
L 112.039728 181.30887 
L 112.120697 181.207274 
L 112.201666 181.004081 
L 112.363605 180.902484 
L 112.471564 180.597695 
L 112.503952 180.546897 
L 112.611911 180.292906 
L 112.69288 180.242108 
L 112.795441 179.835722 
L 112.9034 179.734126 
L 113.01136 179.378538 
L 113.065339 179.276942 
L 113.076135 179.175346 
L 113.394614 179.073749 
L 113.475584 178.921355 
L 113.540359 178.870556 
L 113.64292 178.616565 
L 113.783267 178.514969 
L 113.804859 178.413373 
L 114.063961 178.311776 
L 114.166522 177.956189 
L 114.279879 177.854592 
L 114.436419 177.295812 
L 114.598358 177.194216 
L 114.679327 176.991023 
L 114.825072 176.889427 
L 114.916837 176.686234 
L 114.981613 176.584637 
L 115.051786 176.330646 
L 115.132755 176.22905 
L 115.202929 176.025857 
L 115.294694 175.924261 
L 115.375663 175.67027 
L 115.580786 175.568673 
L 115.618571 175.365481 
L 115.75352 175.263884 
L 115.861479 174.959095 
L 115.926255 174.857499 
L 115.953244 174.755902 
L 116.223142 174.654306 
L 116.304111 174.451113 
L 116.449856 174.400315 
L 116.503836 174.197122 
L 116.660376 174.095526 
L 116.741346 173.892333 
L 116.833111 173.790736 
L 116.919478 173.435149 
L 116.96806 173.333553 
L 117.049029 173.079562 
L 117.124601 172.977965 
L 117.194774 172.723974 
L 117.367508 172.622378 
L 117.437682 172.419185 
L 117.578029 172.368387 
L 117.658998 172.215992 
L 117.766957 172.114396 
L 117.869518 171.758808 
L 117.961283 171.70801 
L 118.031457 171.555616 
L 118.150212 171.454019 
L 118.236579 171.250826 
L 118.328344 171.14923 
L 118.403916 170.844441 
L 118.619834 170.742844 
L 118.722395 170.539652 
L 118.770976 170.488853 
L 118.878936 170.184064 
L 118.954507 170.082468 
L 119.062466 169.777679 
L 119.305374 169.676082 
L 119.402537 169.320495 
L 119.434925 169.269697 
L 119.52669 169.117302 
L 119.629251 169.015706 
L 119.73721 168.710916 
L 119.79119 168.60932 
L 119.888353 167.948943 
L 120.023302 167.847347 
L 120.104271 167.644154 
L 120.201434 167.542558 
L 120.287802 167.339365 
L 120.406557 167.237769 
L 120.498322 167.085374 
L 120.552301 166.983778 
L 120.66026 166.831383 
L 120.806005 166.729787 
L 120.89777 166.475796 
L 121.016525 166.374199 
L 121.119086 166.171006 
L 121.264831 166.06941 
L 121.345801 165.866217 
L 121.421372 165.866217 
L 121.502341 165.612226 
L 121.696668 165.51063 
L 121.777637 165.053446 
L 121.923382 164.95185 
L 122.025943 164.64706 
L 122.117708 164.596262 
L 122.214871 164.240675 
L 122.290442 164.139078 
L 122.360616 163.834289 
L 122.538748 163.732693 
L 122.641309 163.478702 
L 122.781656 163.377105 
L 122.841034 163.173913 
L 122.959789 163.123114 
L 123.051554 162.818325 
L 123.191901 162.716729 
L 123.240482 162.513536 
L 123.391625 162.41194 
L 123.467196 162.208747 
L 123.650727 162.10715 
L 123.715502 161.751563 
L 123.850451 161.649967 
L 123.926023 161.446774 
L 124.050175 161.395976 
L 124.147339 161.091187 
L 124.287685 160.98959 
L 124.438828 160.481608 
L 124.611563 160.380012 
L 124.687134 160.176819 
L 124.832879 160.075223 
L 124.90845 159.770433 
L 125.091981 159.719635 
L 125.183746 159.414846 
L 125.302501 159.31325 
L 125.399664 159.00846 
L 125.523817 158.906864 
L 125.599388 158.652873 
L 125.734337 158.551277 
L 125.809908 158.043295 
L 125.961051 157.992496 
L 126.031225 157.789304 
L 126.128388 157.687707 
L 126.171571 157.433716 
L 126.27953 157.33212 
L 126.301122 157.230523 
L 126.506245 157.128927 
L 126.587214 156.925734 
L 126.792336 156.824138 
L 126.873305 156.620945 
L 127.083826 156.519349 
L 127.186387 156.366954 
L 127.25656 156.265358 
L 127.364519 156.062165 
L 127.396907 156.011367 
L 127.499468 155.858972 
L 127.580437 155.757376 
L 127.672203 155.554183 
L 127.747774 155.452586 
L 127.828743 155.249394 
L 127.898917 155.147797 
L 127.947498 154.995403 
L 128.077049 154.893806 
L 128.17961 154.741412 
L 128.185008 154.741412 
L 128.23359 154.639815 
L 128.292967 154.487421 
L 128.449508 154.385824 
L 128.530477 154.23343 
L 128.697814 154.182631 
L 128.800375 154.030237 
L 128.870548 153.92864 
L 128.924528 153.776246 
L 129.081069 153.725448 
L 129.10266 153.522255 
L 129.280793 153.420658 
L 129.345568 153.319062 
L 129.57768 153.217466 
L 129.674844 152.861878 
L 129.777405 152.760282 
L 129.825986 152.658685 
L 130.0527 152.557089 
L 130.160659 152.303098 
L 130.268618 152.201502 
L 130.311802 152.099905 
L 130.446751 151.998309 
L 130.543914 151.896712 
L 130.668067 151.795116 
L 130.76523 151.337932 
L 130.916373 151.287134 
L 131.018934 151.033143 
L 131.121495 150.931547 
L 131.197067 150.626757 
L 131.466964 150.525161 
L 131.553332 150.372766 
L 131.672087 150.27117 
L 131.677484 150.169574 
L 132.082331 150.067977 
L 132.179494 149.71239 
L 132.314443 149.610793 
L 132.368423 149.458399 
L 132.568147 149.356802 
L 132.66531 149.001215 
L 132.832647 148.899619 
L 132.848841 148.798022 
L 132.972993 148.747224 
L 133.048565 148.544031 
L 133.242891 148.442435 
L 133.264483 148.340838 
L 133.523585 148.239242 
L 133.609952 148.086847 
L 133.750299 147.985251 
L 133.750299 147.883655 
L 133.933829 147.782058 
L 134.014799 147.528067 
L 134.128156 147.426471 
L 134.214523 147.223278 
L 134.344074 147.121682 
L 134.430441 146.867691 
L 134.500614 146.766094 
L 134.533002 146.6137 
L 134.954043 146.512103 
L 135.056604 146.359709 
L 135.202348 146.258112 
L 135.283318 146.054919 
L 135.483042 145.953323 
L 135.591001 145.648534 
L 135.655777 145.546937 
L 135.758338 145.19135 
L 135.877093 145.089754 
L 135.985052 144.835763 
L 136.087613 144.734166 
L 136.190174 144.429377 
L 136.271143 144.327781 
L 136.341317 144.175386 
L 136.562633 144.175386 
L 136.654398 143.870597 
L 136.789347 143.769 
L 136.88651 143.464211 
L 137.048449 143.362615 
L 137.048449 143.311817 
L 137.248173 143.21022 
L 137.350734 143.057826 
L 137.41551 142.956229 
L 137.523469 142.803835 
L 137.706999 142.702238 
L 137.728591 142.600642 
L 137.879734 142.549844 
L 137.944509 142.346651 
L 138.052468 142.245054 
L 138.138835 142.09266 
L 138.209009 141.991063 
L 138.316968 141.686274 
L 138.581468 141.584678 
L 138.689427 141.381485 
L 138.808182 141.279889 
L 138.878355 141.178292 
L 138.964722 141.076696 
L 139.056488 140.873503 
L 139.218426 140.771907 
L 139.320987 140.568714 
L 139.44514 140.467117 
L 139.547701 140.263925 
L 139.76362 140.162328 
L 139.812201 139.959135 
L 139.903966 139.857539 
L 139.979538 139.705144 
L 140.271027 139.603548 
L 140.308813 139.349557 
L 140.551721 139.247961 
L 140.65968 139.095566 
L 140.810823 138.99397 
L 140.880996 138.841575 
L 141.032139 138.739979 
L 141.118506 138.536786 
L 141.221067 138.485988 
L 141.296639 138.282795 
L 141.474771 138.181198 
L 141.523353 137.978006 
L 141.755465 137.876409 
L 141.84723 137.724015 
L 142.00377 137.622418 
L 142.106332 137.368427 
L 142.414015 137.266831 
L 142.500382 137.114436 
L 142.521974 137.114436 
L 142.721698 137.01284 
L 142.82426 136.708051 
L 142.899831 136.606454 
L 143.002392 136.352463 
L 143.072565 136.301665 
L 143.153535 136.098472 
L 143.266892 135.996876 
L 143.364055 135.742885 
L 143.472014 135.641289 
L 143.536789 135.438096 
L 143.741912 135.336499 
L 143.839075 135.234903 
L 143.95783 135.133307 
L 144.065789 134.828517 
L 144.357278 134.726921 
L 144.422054 134.574526 
L 144.659564 134.47293 
L 144.729737 134.269737 
L 145.075206 134.168141 
L 145.14538 133.863352 
L 145.458461 133.761755 
L 145.458461 133.710957 
L 145.739155 133.609361 
L 145.739155 133.507764 
L 145.976665 133.406168 
L 145.976665 133.35537 
L 146.235766 133.253773 
L 146.284348 133.05058 
L 146.565042 132.948984 
L 146.656807 132.593397 
L 146.748572 132.4918 
L 146.748572 132.441002 
L 147.002276 132.339406 
L 147.110235 132.136213 
L 147.272174 132.085415 
L 147.380133 131.831424 
L 147.509684 131.729827 
L 147.585255 131.628231 
L 147.736398 131.577433 
L 147.795775 131.37424 
L 147.946918 131.272643 
L 147.952316 131.171047 
L 147.96851 131.171047 
L 148.17903 131.069451 
L 148.286989 130.764661 
L 148.330173 130.713863 
L 148.427336 130.51067 
L 148.610866 130.409074 
L 148.697233 130.256679 
L 148.972529 130.155083 
L 149.021111 130.053487 
L 149.323396 129.95189 
L 149.323396 129.901092 
L 149.566304 129.799496 
L 149.566304 129.748697 
L 149.879385 129.647101 
L 149.949559 129.443908 
L 150.133089 129.39311 
L 150.23565 129.139119 
L 150.311222 129.037523 
L 150.359803 128.885128 
L 150.608109 128.783532 
L 150.705272 128.529541 
L 150.883405 128.427944 
L 150.964374 128.224751 
L 151.034548 128.173953 
L 151.131711 127.919962 
L 151.299047 127.869164 
L 151.326037 127.665971 
L 151.568945 127.564375 
L 151.66071 127.310384 
L 151.784863 127.208787 
L 151.844241 127.107191 
L 151.957598 127.005595 
L 152.000781 126.903998 
L 152.200506 126.802402 
L 152.238291 126.650007 
L 152.491995 126.548411 
L 152.58376 126.446814 
L 152.659332 126.345218 
L 152.767291 126.142025 
L 152.999403 126.040429 
L 153.091168 125.786438 
L 153.226117 125.684841 
L 153.334076 125.43085 
L 153.436637 125.380052 
L 153.5338 125.227658 
L 153.738922 125.126061 
L 153.841484 124.922868 
L 154.138371 124.821272 
L 154.240932 124.618079 
L 154.375881 124.516483 
L 154.386677 124.414886 
L 154.672769 124.31329 
L 154.780728 124.008501 
L 154.883289 123.906904 
L 154.980452 123.703712 
L 155.19637 123.602115 
L 155.304329 123.348124 
L 155.40689 123.246528 
L 155.450074 123.144931 
L 155.612013 123.043335 
L 155.655196 122.941739 
L 155.827931 122.840142 
L 155.930492 122.636949 
L 156.060043 122.535353 
L 156.060043 122.484555 
L 156.275961 122.382958 
L 156.362328 122.281362 
L 156.486481 122.230564 
L 156.56745 121.874976 
L 157.010083 121.77338 
L 157.064062 121.620985 
L 157.118042 121.620985 
L 157.226001 121.519389 
L 157.27998 121.316196 
L 157.668633 121.2146 
L 157.755 120.859012 
L 157.879153 120.757416 
L 157.954725 120.65582 
L 158.041092 120.554223 
L 158.143653 120.452627 
L 158.332581 120.35103 
L 158.386561 120.249434 
L 158.575489 120.198636 
L 158.672652 119.995443 
L 158.737428 119.893847 
L 158.737428 119.843048 
L 159.212448 119.741452 
L 159.282621 119.589057 
L 159.541723 119.487461 
L 159.649682 119.335066 
L 159.757641 119.23347 
L 159.849406 118.979479 
L 160.038335 118.877883 
L 160.108508 118.776286 
L 160.270447 118.67469 
L 160.286641 118.522295 
L 160.642906 118.420699 
L 160.680691 118.268304 
L 160.939793 118.166708 
L 161.015364 118.065111 
L 161.096334 117.963515 
L 161.182701 117.81112 
L 161.404017 117.709524 
L 161.495782 117.506331 
L 161.533568 117.404735 
L 161.641527 117.201542 
L 161.787272 117.099946 
L 161.895231 116.795156 
L 162.046374 116.744358 
L 162.132741 116.591964 
L 162.197516 116.490367 
L 162.305475 116.236376 
L 162.521394 116.13478 
L 162.548383 115.982385 
L 162.68873 115.880789 
L 162.758904 115.677596 
L 162.910046 115.576 
L 163.012607 115.372807 
L 163.169148 115.27121 
L 163.169148 115.220412 
L 163.520015 115.118816 
L 163.568597 114.966421 
L 163.746729 114.915623 
L 163.827699 114.71243 
L 164.005831 114.610834 
L 164.065208 114.407641 
L 164.335106 114.306045 
L 164.335106 114.255246 
L 164.459259 114.255246 
L 164.556422 113.950457 
L 164.712963 113.848861 
L 164.729157 113.747265 
L 164.977463 113.645668 
L 164.977463 113.59487 
L 165.187983 113.544072 
L 165.27435 113.391677 
L 165.393105 113.290081 
L 165.501064 113.086888 
L 165.636013 112.985292 
L 165.695391 112.832897 
L 165.981482 112.731301 
L 166.062451 112.528108 
L 166.213594 112.426511 
L 166.27837 112.274117 
L 166.704808 112.17252 
L 166.807369 112.070924 
L 166.90993 112.020126 
L 166.969308 111.816933 
L 167.131246 111.766135 
L 167.131246 111.664538 
L 167.552287 111.562942 
L 167.557685 111.461346 
L 167.762807 111.359749 
L 167.838378 111.156556 
L 167.994919 111.05496 
L 168.086684 110.851767 
L 168.146062 110.800969 
L 168.189245 110.49618 
L 168.372776 110.394583 
L 168.475337 110.242189 
L 168.669663 110.140592 
L 168.729041 109.988198 
L 169.079908 109.886601 
L 169.144683 109.683409 
L 169.182469 109.683409 
L 169.290428 109.581812 
L 169.376795 109.327821 
L 169.463163 109.226225 
L 169.463163 109.175427 
L 169.884203 109.07383 
L 169.986764 108.921436 
L 170.029948 108.819839 
L 170.029948 108.769041 
L 170.299845 108.667445 
L 170.299845 108.616646 
L 170.65611 108.51505 
L 170.715488 108.261059 
L 171.039365 108.159463 
L 171.120334 108.007068 
L 171.249885 107.95627 
L 171.287671 107.803875 
L 171.303865 107.803875 
L 171.44961 107.702279 
L 171.557569 107.499086 
L 171.805875 107.39749 
L 171.859854 107.245095 
L 172.032589 107.143499 
L 172.118956 106.991104 
L 172.270099 106.889508 
L 172.367262 106.686315 
L 172.912455 106.584718 
L 172.950241 106.483122 
L 173.112179 106.381526 
L 173.209343 106.229131 
L 173.284914 106.178333 
L 173.338893 105.924342 
L 173.932668 105.822745 
L 173.992046 105.619553 
L 174.137791 105.568754 
L 174.197168 105.41636 
L 174.337515 105.314763 
L 174.348311 105.162369 
L 174.747759 105.060772 
L 174.828729 104.959176 
L 174.974474 104.85758 
L 175.066239 104.705185 
L 175.325341 104.603589 
L 175.390116 104.501992 
L 175.584442 104.400396 
L 175.638422 104.248001 
L 175.989289 104.146405 
L 175.989289 104.044808 
L 176.38334 103.943212 
L 176.437319 103.841616 
L 176.809778 103.740019 
L 176.906941 103.587625 
L 177.371165 103.486028 
L 177.46293 103.333634 
L 177.624869 103.232037 
L 177.695042 102.927248 
L 177.829991 102.825652 
L 177.846185 102.724055 
L 178.072899 102.622459 
L 178.116083 102.520862 
L 178.43996 102.419266 
L 178.531725 102.114477 
L 178.807021 102.01288 
L 178.904184 101.860486 
L 179.130898 101.758889 
L 179.168684 101.606495 
L 179.568132 101.504898 
L 179.665296 101.200109 
L 179.918999 101.098513 
L 179.918999 101.047715 
L 179.978377 101.047715 
L 180.215887 100.946118 
L 180.269866 100.590531 
L 180.318448 100.590531 
L 180.447999 100.488934 
L 180.447999 100.438136 
L 180.771876 100.33654 
L 180.771876 100.285742 
L 181.068764 100.184145 
L 181.095753 100.082549 
L 181.360253 99.980952 
L 181.392641 99.879356 
L 181.748906 99.77776 
L 181.748906 99.676163 
L 182.040395 99.574567 
L 182.040395 99.523769 
L 182.272507 99.422172 
L 182.380466 99.269778 
L 182.747527 99.168181 
L 182.855486 98.964988 
L 182.968843 98.863392 
L 183.022823 98.761796 
L 183.233343 98.660199 
L 183.238741 98.558603 
L 183.465455 98.457006 
L 183.546424 98.35541 
L 183.870302 98.253814 
L 183.870302 98.203015 
L 184.037638 98.101419 
L 184.048434 97.999823 
L 184.474873 97.949024 
L 184.582832 97.695033 
L 184.728576 97.593437 
L 184.82574 97.441042 
L 184.901311 97.390244 
L 185.003872 97.187051 
L 185.252178 97.085455 
L 185.268372 96.983859 
L 185.48429 96.882262 
L 185.532872 96.780666 
L 185.943116 96.679069 
L 185.943116 96.628271 
L 186.261595 96.526675 
L 186.310177 96.425078 
L 186.418136 96.323482 
L 186.43433 96.171087 
L 186.655646 96.069491 
L 186.709626 95.967895 
L 186.844574 95.866298 
L 186.947136 95.713904 
L 187.011911 95.663105 
L 187.103676 95.358316 
L 187.38437 95.25672 
L 187.422155 95.155123 
L 187.789216 95.053527 
L 187.891777 94.850334 
L 188.204859 94.748738 
L 188.237247 94.596343 
L 188.523338 94.494747 
L 188.598909 94.39315 
L 188.928185 94.291554 
L 188.928185 94.240756 
L 189.187286 94.139159 
L 189.28445 93.885168 
L 189.446388 93.783572 
L 189.548949 93.427985 
L 190.191306 93.326388 
L 190.191306 93.27559 
L 190.277673 93.27559 
L 190.342449 93.173994 
L 190.401826 93.072397 
L 190.666326 92.970801 
L 190.666326 92.869204 
L 190.731101 92.869204 
L 190.968611 92.767608 
L 190.968611 92.71681 
L 191.152142 92.615213 
L 191.238509 92.513617 
L 191.400448 92.412021 
L 191.497611 92.310424 
L 191.772906 92.208828 
L 191.875468 91.954837 
L 192.166957 91.85324 
L 192.253324 91.751644 
L 192.512426 91.650048 
L 192.512426 91.599249 
L 192.722946 91.497653 
L 192.803916 91.345258 
L 193.127793 91.243662 
L 193.133191 91.142066 
L 193.165579 91.142066 
L 193.489456 91.040469 
L 193.597415 90.888075 
L 193.775547 90.837276 
L 193.883506 90.481689 
L 194.002261 90.380093 
L 194.002261 90.329294 
L 194.417904 90.227698 
L 194.417904 90.1769 
L 194.515067 90.1769 
L 194.628424 90.075304 
L 194.714791 89.973707 
L 194.946903 89.872111 
L 194.946903 89.821313 
L 195.157424 89.719716 
L 195.179015 89.61812 
L 195.411127 89.516523 
L 195.438117 89.414927 
L 195.648637 89.313331 
L 195.648637 89.262532 
L 196.145249 89.160936 
L 196.145249 89.110138 
L 196.528504 89.008541 
L 196.636463 88.856147 
L 196.841585 88.75455 
L 196.884769 88.652954 
L 197.073697 88.551358 
L 197.165462 88.398963 
L 197.651278 88.297367 
L 197.667472 88.19577 
L 197.985951 88.094174 
L 198.066921 87.941779 
L 198.509553 87.840183 
L 198.509553 87.789385 
L 198.67689 87.687788 
L 198.67689 87.63699 
L 199.087134 87.535394 
L 199.195093 87.281403 
L 199.421807 87.179806 
L 199.529766 87.027412 
L 199.891429 86.925815 
L 199.999388 86.671824 
L 200.150531 86.570228 
L 200.193715 86.417833 
L 200.431225 86.316237 
L 200.512194 86.062246 
L 200.900847 85.960649 
L 200.933234 85.808255 
L 201.192336 85.706658 
L 201.26251 85.605062 
L 201.651162 85.503466 
L 201.667356 85.401869 
L 202.169366 85.300273 
L 202.266529 85.147878 
L 202.558018 85.046282 
L 202.628192 84.944685 
L 202.854906 84.843089 
L 202.903488 84.741493 
L 203.329926 84.639896 
L 203.378507 84.5383 
L 203.497262 84.436703 
L 203.594426 84.335107 
L 203.826538 84.233511 
L 203.826538 84.182712 
L 204.107231 84.081116 
L 204.172007 83.928721 
L 204.350139 83.827125 
L 204.4527 83.67473 
L 204.630833 83.573134 
L 204.657823 83.471538 
L 205.051873 83.369941 
L 205.051873 83.319143 
L 205.381148 83.217547 
L 205.381148 83.166748 
L 205.575475 83.065152 
L 205.634852 82.760363 
L 205.678036 82.760363 
L 205.985719 82.658766 
L 205.985719 82.607968 
L 206.433749 82.506372 
L 206.520117 82.353977 
L 206.784616 82.252381 
L 206.860188 82.099986 
L 207.313616 81.99839 
L 207.313616 81.947592 
L 207.59431 81.845995 
L 207.653687 81.744399 
L 207.815626 81.642802 
L 207.815626 81.592004 
L 207.98836 81.490408 
L 207.98836 81.43961 
L 208.447186 81.338013 
L 208.447186 81.287215 
L 209.008574 81.185619 
L 209.105737 80.982426 
L 209.240686 80.880829 
L 209.348645 80.728435 
L 209.618542 80.626838 
L 209.634736 80.525242 
L 209.753491 80.474444 
L 209.829063 80.220453 
L 209.991001 80.118856 
L 210.050379 79.966462 
L 210.331072 79.864865 
L 210.379654 79.712471 
L 210.806092 79.610874 
L 210.849276 79.407682 
L 211.227133 79.306085 
L 211.227133 79.255287 
L 211.243326 79.255287 
L 211.432255 79.153691 
L 211.540214 78.950498 
L 211.847897 78.848901 
L 211.955856 78.645709 
L 212.225754 78.544112 
L 212.225754 78.493314 
L 212.506448 78.391718 
L 212.506448 78.340919 
L 212.522642 78.340919 
L 212.814131 78.290121 
L 212.814131 78.188525 
L 213.407906 78.086928 
L 213.478079 77.985332 
L 213.818151 77.883736 
L 213.909916 77.731341 
L 214.617048 77.629745 
L 214.63864 77.47735 
L 214.719609 77.47735 
L 214.76819 77.375754 
L 214.76819 77.324955 
L 214.994905 77.223359 
L 215.021894 77.121763 
L 215.405149 77.020166 
L 215.502312 76.816973 
L 216.446954 76.715377 
L 216.495536 76.613781 
L 216.911178 76.512184 
L 216.911178 76.410588 
L 217.229657 76.308991 
L 217.229657 76.258193 
L 217.661494 76.207395 
L 217.758657 76.004202 
L 218.152708 75.902606 
L 218.249871 75.801009 
L 218.703299 75.699413 
L 218.735687 75.597817 
L 219.102747 75.49622 
L 219.102747 75.343826 
L 219.599359 75.242229 
L 219.647941 75.089835 
L 220.009604 74.988238 
L 220.095971 74.785045 
L 220.317287 74.734247 
L 220.322685 74.581853 
L 220.867878 74.480256 
L 220.867878 74.429458 
L 221.693765 74.327862 
L 221.704561 74.226265 
L 221.904286 74.124669 
L 222.001449 73.921476 
L 222.233561 73.81988 
L 222.233561 73.769081 
L 222.503459 73.667485 
L 222.595224 73.565889 
L 222.838132 73.464292 
L 222.870519 73.311898 
L 223.275366 73.210301 
L 223.275366 73.159503 
L 223.717998 73.057907 
L 223.798967 72.905512 
L 223.917722 72.803916 
L 223.917722 72.753117 
L 224.182222 72.651521 
L 224.252396 72.499126 
L 225.272609 72.39753 
L 225.358976 72.245135 
L 225.477731 72.143539 
L 225.553303 72.041943 
L 225.844792 71.940346 
L 225.844792 71.889548 
L 226.27123 71.787952 
L 226.27123 71.737153 
L 226.681475 71.635557 
L 226.681475 71.584759 
L 227.356219 71.483162 
L 227.431791 71.330768 
L 227.626117 71.229171 
L 227.642311 71.127575 
L 228.128127 71.025979 
L 228.128127 70.97518 
L 228.495187 70.873584 
L 228.576157 70.619593 
L 228.781279 70.517997 
L 228.862248 70.4164 
L 229.061973 70.314804 
L 229.061973 70.264006 
L 229.542391 70.162409 
L 229.634156 70.060813 
L 229.823084 69.959216 
L 229.898655 69.806822 
L 230.092982 69.705225 
L 230.092982 69.654427 
L 230.287308 69.552831 
L 230.373675 69.451234 
L 230.443849 69.349638 
L 230.514022 69.197243 
L 230.708349 69.095647 
L 230.708349 69.044849 
L 231.399287 68.943252 
L 231.464062 68.841656 
L 232.084827 68.74006 
L 232.128011 68.638463 
L 232.538255 68.536867 
L 232.646214 68.43527 
L 232.991683 68.333674 
L 233.051061 68.232078 
L 233.385734 68.130481 
L 233.466703 67.825692 
L 233.882346 67.724096 
L 233.882346 67.673297 
L 233.990305 67.673297 
L 234.729824 67.571701 
L 234.729824 67.520903 
L 235.145467 67.419306 
L 235.145467 67.368508 
L 235.636681 67.266912 
L 235.636681 67.216114 
L 236.019935 67.114517 
L 236.019935 67.063719 
L 236.521945 66.962123 
L 236.61371 66.809728 
L 237.023955 66.708132 
L 237.023955 66.657333 
L 237.709495 66.555737 
L 237.709495 66.504939 
L 238.006382 66.403342 
L 238.103546 66.301746 
L 238.108944 66.301746 
L 238.481402 66.20015 
L 238.56777 66.047755 
L 238.891647 65.946159 
L 238.891647 65.895361 
L 239.22632 65.793764 
L 239.323483 65.590571 
L 239.668952 65.488975 
L 239.771513 65.33658 
L 240.111584 65.234984 
L 240.160166 65.082589 
L 240.305911 64.980993 
L 240.305911 64.930195 
L 240.494839 64.828598 
L 240.494839 64.7778 
L 240.716155 64.676204 
L 240.737747 64.574607 
L 241.164186 64.473011 
L 241.272145 64.269818 
L 241.698583 64.168222 
L 241.698583 64.117424 
L 242.087236 64.015827 
L 242.119623 63.914231 
L 242.600041 63.812634 
L 242.691806 63.609442 
L 243.307173 63.507845 
L 243.339561 63.406249 
L 243.679632 63.304652 
L 243.679632 63.253854 
L 243.998111 63.152258 
L 244.095275 63.050661 
L 244.678254 62.949065 
L 244.689049 62.847469 
L 245.379988 62.745872 
L 245.428569 62.644276 
L 245.693069 62.542679 
L 245.693069 62.491881 
L 246.130303 62.390285 
L 246.130303 62.339487 
L 246.632313 62.23789 
L 246.670099 62.085496 
L 246.896813 61.983899 
L 246.896813 61.933101 
L 247.199098 61.831505 
L 247.199098 61.780706 
L 247.96021 61.67911 
L 248.019587 61.577514 
L 248.640352 61.475917 
L 248.715923 61.323523 
L 249.466239 61.221926 
L 249.558004 61.12033 
L 250.076208 61.018733 
L 250.130187 60.917137 
L 250.184167 60.917137 
L 250.470258 60.815541 
L 250.49185 60.713944 
L 250.848115 60.612348 
L 250.880503 60.510751 
L 251.323135 60.409155 
L 251.339329 60.307559 
L 251.544451 60.205962 
L 251.544451 60.155164 
L 252.035665 60.053568 
L 252.138226 59.901173 
L 252.980307 59.799577 
L 253.088266 59.647182 
L 253.665847 59.545586 
L 253.773806 59.393191 
L 254.146265 59.291595 
L 254.221836 59.189998 
L 254.707652 59.088402 
L 254.707652 59.037604 
L 255.182672 58.936007 
L 255.252845 58.834411 
L 255.798039 58.732814 
L 255.825029 58.58042 
L 256.202885 58.478823 
L 256.283855 58.326429 
L 256.58614 58.224832 
L 256.58614 58.174034 
L 256.920813 58.072438 
L 256.920813 58.02164 
L 257.196109 57.920043 
L 257.239293 57.767649 
L 257.914037 57.666052 
L 257.914037 57.615254 
L 258.151547 57.513658 
L 258.156945 57.462859 
L 258.626567 57.361263 
L 258.66975 57.208868 
L 259.079995 57.107272 
L 259.101587 57.005676 
L 259.187954 57.005676 
L 259.301311 56.954877 
L 259.38228 56.700886 
L 259.835708 56.59929 
L 259.835708 56.548492 
L 260.958483 56.446895 
L 261.039452 56.294501 
L 261.374125 56.192904 
L 261.374125 56.142106 
L 261.476686 56.142106 
L 261.822155 56.04051 
L 261.822155 55.989712 
L 261.919319 55.989712 
L 262.200012 55.888115 
L 262.200012 55.837317 
L 262.939532 55.735721 
L 262.939532 55.684922 
L 263.576491 55.583326 
L 263.608878 55.48173 
L 263.787011 55.430931 
L 263.787011 55.329335 
L 264.704663 55.227739 
L 264.785632 55.126142 
L 265.006948 55.024546 
L 265.006948 54.973748 
L 265.940794 54.872151 
L 265.97858 54.770555 
L 266.631732 54.668958 
L 266.674916 54.567362 
L 267.220109 54.465766 
L 267.220109 54.414967 
L 267.938037 54.313371 
L 268.040598 54.211775 
L 268.224129 54.110178 
L 268.224129 54.05938 
L 268.548006 53.957784 
L 268.639771 53.856187 
L 269.006832 53.754591 
L 269.033822 53.652994 
L 269.665383 53.551398 
L 269.665383 53.5006 
L 270.334729 53.399003 
L 270.334729 53.348205 
L 270.750371 53.246609 
L 270.750371 53.195811 
L 271.193004 53.094214 
L 271.193004 53.043416 
L 272.531696 52.94182 
L 272.585676 52.789425 
L 273.600491 52.687829 
L 273.627481 52.586232 
L 274.129491 52.484636 
L 274.129491 52.433838 
L 274.485756 52.332241 
L 274.496551 52.230645 
L 275.532959 52.129048 
L 275.532959 52.07825 
L 275.991785 51.976654 
L 275.991785 51.925856 
L 276.79608 51.824259 
L 276.79608 51.773461 
L 276.812274 51.773461 
L 277.77311 51.671865 
L 277.881069 51.468672 
L 278.318303 51.367075 
L 278.361487 51.265479 
L 279.009241 51.214681 
L 279.047027 51.062286 
L 279.737965 50.96069 
L 279.808138 50.808295 
L 280.407311 50.706699 
L 280.477484 50.605102 
L 280.920117 50.503506 
L 280.920117 50.452708 
L 281.265586 50.351111 
L 281.265586 50.300313 
L 281.368147 50.300313 
L 282.064483 50.198717 
L 282.129258 50.09712 
L 282.971339 49.995524 
L 282.971339 49.944726 
L 283.597502 49.843129 
L 283.597502 49.792331 
L 283.878196 49.690735 
L 283.878196 49.639937 
L 284.417991 49.53834 
L 284.504358 49.385946 
L 284.714878 49.284349 
L 284.714878 49.233551 
L 285.146715 49.131955 
L 285.146715 49.081156 
L 285.605541 48.97956 
L 285.670316 48.877964 
L 286.150734 48.776367 
L 286.166928 48.674771 
L 286.69053 48.573174 
L 286.69053 48.522376 
L 287.602784 48.42078 
L 287.667559 48.319183 
L 287.689151 48.319183 
L 287.980641 48.217587 
L 287.980641 48.166789 
L 288.363895 48.065192 
L 288.412477 47.912798 
L 288.671579 47.862 
L 288.671579 47.760403 
L 289.605425 47.658807 
L 289.605425 47.608009 
L 290.652628 47.506412 
L 290.652628 47.455614 
L 291.586474 47.354018 
L 291.586474 47.303219 
L 292.347585 47.201623 
L 292.347585 47.150825 
L 292.801013 47.049228 
L 292.801013 46.947632 
L 293.567523 46.846036 
L 293.567523 46.795237 
L 293.632298 46.795237 
L 294.285451 46.693641 
L 294.285451 46.642843 
L 294.997981 46.541246 
L 295.024971 46.43965 
L 295.84546 46.338054 
L 295.84546 46.287255 
L 296.665949 46.185659 
L 296.665949 46.084063 
L 296.968234 45.982466 
L 297.000622 45.88087 
L 297.945264 45.779273 
L 297.999243 45.626879 
L 298.744161 45.525282 
L 298.744161 45.474484 
L 298.992467 45.372888 
L 299.057242 45.271291 
L 299.980292 45.169695 
L 299.980292 45.118897 
L 301.405352 45.0173 
L 301.405352 44.966502 
L 301.783209 44.864906 
L 301.783209 44.814108 
L 302.026117 44.712511 
L 302.026117 44.661713 
L 303.52135 44.560117 
L 303.569932 44.45852 
L 304.001768 44.356924 
L 304.012564 44.255327 
L 305.712919 44.153731 
L 305.712919 44.102933 
L 306.511817 44.001336 
L 306.511817 43.950538 
L 307.618397 43.848942 
L 307.618397 43.798144 
L 307.720958 43.798144 
L 308.649406 43.696547 
L 308.649406 43.645749 
L 310.581874 43.544153 
L 310.581874 43.493354 
L 311.48873 43.391758 
L 311.48873 43.34096 
L 312.395587 43.239363 
L 312.433372 43.137767 
L 313.993381 43.036171 
L 313.993381 42.985372 
L 314.560166 42.934574 
L 314.597952 42.78218 
L 315.31588 42.680583 
L 315.342869 42.578987 
L 315.931246 42.477391 
L 316.023012 42.375794 
L 317.021633 42.274198 
L 317.021633 42.2234 
L 317.696377 42.121803 
L 317.696377 42.071005 
L 318.317142 41.969409 
L 318.327938 41.867812 
L 319.202406 41.766216 
L 319.202406 41.715418 
L 319.860957 41.613821 
L 319.860957 41.563023 
L 321.599098 41.461427 
L 321.599098 41.410628 
L 324.989013 41.309032 
L 324.989013 41.258234 
L 325.010605 41.258234 
L 325.588186 41.156637 
L 325.588186 41.105839 
L 325.690747 41.105839 
L 326.921481 41.004243 
L 326.921481 40.953445 
L 327.553041 40.851848 
L 327.553041 40.80105 
L 328.578653 40.699454 
L 328.594846 40.597857 
L 328.63803 40.597857 
L 330.597487 40.496261 
L 330.629875 40.394664 
L 332.416598 40.293068 
L 332.524557 40.191472 
L 333.177709 40.089875 
L 333.177709 40.039077 
L 335.066993 39.937481 
L 335.066993 39.886682 
L 335.083187 39.886682 
L 336.465063 39.785086 
L 336.465063 39.734288 
L 336.567625 39.734288 
L 337.145206 39.632691 
L 337.236971 39.531095 
L 339.250408 39.429499 
L 339.250408 39.3787 
L 340.821212 39.277104 
L 340.821212 39.226306 
L 341.960181 39.124709 
L 341.960181 39.073911 
L 344.022199 38.972315 
L 344.12476 38.870718 
L 344.972239 38.769122 
L 344.972239 38.718324 
L 346.20837 38.616727 
L 346.20837 38.565929 
L 347.223186 38.464333 
L 347.223186 38.413535 
L 349.301398 38.311938 
L 349.301398 38.26114 
L 350.127285 38.159544 
L 350.127285 38.057947 
L 351.471376 37.956351 
L 351.563141 37.854754 
L 355.185168 37.753158 
L 355.185168 37.70236 
L 355.903096 37.600763 
L 355.903096 37.549965 
L 357.128431 37.448369 
L 357.128431 37.397571 
L 357.592655 37.295974 
L 357.592655 37.245176 
L 363.363068 37.14358 
L 363.363068 37.14358 
" style="fill:none;stroke:#1f77b4;stroke-linecap:square;stroke-width:1.5;"/>
   </g>
   <g id="line2d_14">
    <path clip-path="url(#p6d2c51ba5b)" d="M 58.999432 333.65267 
L 211.097582 184.610753 
L 363.363068 37.14358 
" style="fill:none;stroke:#ff7f0e;stroke-dasharray:1.5,3,1.5;stroke-dashoffset:0;stroke-width:1.5;"/>
   </g>
   <g id="patch_3">
    <path d="M 43.78125 348.478125 
L 43.78125 22.318125 
" style="fill:none;stroke:#000000;stroke-linecap:square;stroke-linejoin:miter;stroke-width:0.8;"/>
   </g>
   <g id="patch_4">
    <path d="M 378.58125 348.478125 
L 378.58125 22.318125 
" style="fill:none;stroke:#000000;stroke-linecap:square;stroke-linejoin:miter;stroke-width:0.8;"/>
   </g>
   <g id="patch_5">
    <path d="M 43.78125 348.478125 
L 378.58125 348.478125 
" style="fill:none;stroke:#000000;stroke-linecap:square;stroke-linejoin:miter;stroke-width:0.8;"/>
   </g>
   <g id="patch_6">
    <path d="M 43.78125 22.318125 
L 378.58125 22.318125 
" style="fill:none;stroke:#000000;stroke-linecap:square;stroke-linejoin:miter;stroke-width:0.8;"/>
   </g>
   <g id="text_15">
    <!-- Responder-Operator Curve (ROC) -->
    <g transform="translate(111.130313 16.318125)scale(0.12 -0.12)">
     <defs>
      <path d="M 1159 525 
L 1159 -1331 
L 581 -1331 
L 581 3500 
L 1159 3500 
L 1159 2969 
Q 1341 3281 1617 3432 
Q 1894 3584 2278 3584 
Q 2916 3584 3314 3078 
Q 3713 2572 3713 1747 
Q 3713 922 3314 415 
Q 2916 -91 2278 -91 
Q 1894 -91 1617 61 
Q 1341 213 1159 525 
z
M 3116 1747 
Q 3116 2381 2855 2742 
Q 2594 3103 2138 3103 
Q 1681 3103 1420 2742 
Q 1159 2381 1159 1747 
Q 1159 1113 1420 752 
Q 1681 391 2138 391 
Q 2594 391 2855 752 
Q 3116 1113 3116 1747 
z
" id="DejaVuSans-70" transform="scale(0.015625)"/>
      <path d="M 3513 2113 
L 3513 0 
L 2938 0 
L 2938 2094 
Q 2938 2591 2744 2837 
Q 2550 3084 2163 3084 
Q 1697 3084 1428 2787 
Q 1159 2491 1159 1978 
L 1159 0 
L 581 0 
L 581 3500 
L 1159 3500 
L 1159 2956 
Q 1366 3272 1645 3428 
Q 1925 3584 2291 3584 
Q 2894 3584 3203 3211 
Q 3513 2838 3513 2113 
z
" id="DejaVuSans-6e" transform="scale(0.015625)"/>
      <path d="M 2906 2969 
L 2906 4863 
L 3481 4863 
L 3481 0 
L 2906 0 
L 2906 525 
Q 2725 213 2448 61 
Q 2172 -91 1784 -91 
Q 1150 -91 751 415 
Q 353 922 353 1747 
Q 353 2572 751 3078 
Q 1150 3584 1784 3584 
Q 2172 3584 2448 3432 
Q 2725 3281 2906 2969 
z
M 947 1747 
Q 947 1113 1208 752 
Q 1469 391 1925 391 
Q 2381 391 2643 752 
Q 2906 1113 2906 1747 
Q 2906 2381 2643 2742 
Q 2381 3103 1925 3103 
Q 1469 3103 1208 2742 
Q 947 2381 947 1747 
z
" id="DejaVuSans-64" transform="scale(0.015625)"/>
      <path d="M 313 2009 
L 1997 2009 
L 1997 1497 
L 313 1497 
L 313 2009 
z
" id="DejaVuSans-2d" transform="scale(0.015625)"/>
      <path d="M 2522 4238 
Q 1834 4238 1429 3725 
Q 1025 3213 1025 2328 
Q 1025 1447 1429 934 
Q 1834 422 2522 422 
Q 3209 422 3611 934 
Q 4013 1447 4013 2328 
Q 4013 3213 3611 3725 
Q 3209 4238 2522 4238 
z
M 2522 4750 
Q 3503 4750 4090 4092 
Q 4678 3434 4678 2328 
Q 4678 1225 4090 567 
Q 3503 -91 2522 -91 
Q 1538 -91 948 565 
Q 359 1222 359 2328 
Q 359 3434 948 4092 
Q 1538 4750 2522 4750 
z
" id="DejaVuSans-4f" transform="scale(0.015625)"/>
      <path d="M 4122 4306 
L 4122 3641 
Q 3803 3938 3442 4084 
Q 3081 4231 2675 4231 
Q 1875 4231 1450 3742 
Q 1025 3253 1025 2328 
Q 1025 1406 1450 917 
Q 1875 428 2675 428 
Q 3081 428 3442 575 
Q 3803 722 4122 1019 
L 4122 359 
Q 3791 134 3420 21 
Q 3050 -91 2638 -91 
Q 1578 -91 968 557 
Q 359 1206 359 2328 
Q 359 3453 968 4101 
Q 1578 4750 2638 4750 
Q 3056 4750 3426 4639 
Q 3797 4528 4122 4306 
z
" id="DejaVuSans-43" transform="scale(0.015625)"/>
     </defs>
     <use xlink:href="#DejaVuSans-52"/>
     <use x="64.982422" xlink:href="#DejaVuSans-65"/>
     <use x="126.505859" xlink:href="#DejaVuSans-73"/>
     <use x="178.605469" xlink:href="#DejaVuSans-70"/>
     <use x="242.082031" xlink:href="#DejaVuSans-6f"/>
     <use x="303.263672" xlink:href="#DejaVuSans-6e"/>
     <use x="366.642578" xlink:href="#DejaVuSans-64"/>
     <use x="430.119141" xlink:href="#DejaVuSans-65"/>
     <use x="491.642578" xlink:href="#DejaVuSans-72"/>
     <use x="526.380859" xlink:href="#DejaVuSans-2d"/>
     <use x="565.214844" xlink:href="#DejaVuSans-4f"/>
     <use x="643.925781" xlink:href="#DejaVuSans-70"/>
     <use x="707.402344" xlink:href="#DejaVuSans-65"/>
     <use x="768.925781" xlink:href="#DejaVuSans-72"/>
     <use x="810.039062" xlink:href="#DejaVuSans-61"/>
     <use x="871.318359" xlink:href="#DejaVuSans-74"/>
     <use x="910.527344" xlink:href="#DejaVuSans-6f"/>
     <use x="971.708984" xlink:href="#DejaVuSans-72"/>
     <use x="1012.822266" xlink:href="#DejaVuSans-20"/>
     <use x="1044.609375" xlink:href="#DejaVuSans-43"/>
     <use x="1114.433594" xlink:href="#DejaVuSans-75"/>
     <use x="1177.8125" xlink:href="#DejaVuSans-72"/>
     <use x="1218.925781" xlink:href="#DejaVuSans-76"/>
     <use x="1278.105469" xlink:href="#DejaVuSans-65"/>
     <use x="1339.628906" xlink:href="#DejaVuSans-20"/>
     <use x="1371.416016" xlink:href="#DejaVuSans-28"/>
     <use x="1410.429688" xlink:href="#DejaVuSans-52"/>
     <use x="1479.912109" xlink:href="#DejaVuSans-4f"/>
     <use x="1558.623047" xlink:href="#DejaVuSans-43"/>
     <use x="1628.447266" xlink:href="#DejaVuSans-29"/>
    </g>
   </g>
   <g id="legend_1">
    <g id="patch_7">
     <path d="M 183.726562 343.478125 
L 371.58125 343.478125 
Q 373.58125 343.478125 373.58125 341.478125 
L 373.58125 313.121875 
Q 373.58125 311.121875 371.58125 311.121875 
L 183.726562 311.121875 
Q 181.726562 311.121875 181.726562 313.121875 
L 181.726562 341.478125 
Q 181.726562 343.478125 183.726562 343.478125 
z
" style="fill:#ffffff;opacity:0.8;stroke:#cccccc;stroke-linejoin:miter;"/>
    </g>
    <g id="line2d_15">
     <path d="M 185.726562 319.220312 
L 205.726562 319.220312 
" style="fill:none;stroke:#1f77b4;stroke-linecap:square;stroke-width:1.5;"/>
    </g>
    <g id="line2d_16"/>
    <g id="text_16">
     <!-- XGBoost reduced (AUC = 0.76) -->
     <g transform="translate(213.726562 322.720312)scale(0.1 -0.1)">
      <defs>
       <path d="M 403 4666 
L 1081 4666 
L 2241 2931 
L 3406 4666 
L 4084 4666 
L 2584 2425 
L 4184 0 
L 3506 0 
L 2194 1984 
L 872 0 
L 191 0 
L 1856 2491 
L 403 4666 
z
" id="DejaVuSans-58" transform="scale(0.015625)"/>
       <path d="M 3809 666 
L 3809 1919 
L 2778 1919 
L 2778 2438 
L 4434 2438 
L 4434 434 
Q 4069 175 3628 42 
Q 3188 -91 2688 -91 
Q 1594 -91 976 548 
Q 359 1188 359 2328 
Q 359 3472 976 4111 
Q 1594 4750 2688 4750 
Q 3144 4750 3555 4637 
Q 3966 4525 4313 4306 
L 4313 3634 
Q 3963 3931 3569 4081 
Q 3175 4231 2741 4231 
Q 1884 4231 1454 3753 
Q 1025 3275 1025 2328 
Q 1025 1384 1454 906 
Q 1884 428 2741 428 
Q 3075 428 3337 486 
Q 3600 544 3809 666 
z
" id="DejaVuSans-47" transform="scale(0.015625)"/>
       <path d="M 1259 2228 
L 1259 519 
L 2272 519 
Q 2781 519 3026 730 
Q 3272 941 3272 1375 
Q 3272 1813 3026 2020 
Q 2781 2228 2272 2228 
L 1259 2228 
z
M 1259 4147 
L 1259 2741 
L 2194 2741 
Q 2656 2741 2882 2914 
Q 3109 3088 3109 3444 
Q 3109 3797 2882 3972 
Q 2656 4147 2194 4147 
L 1259 4147 
z
M 628 4666 
L 2241 4666 
Q 2963 4666 3353 4366 
Q 3744 4066 3744 3513 
Q 3744 3084 3544 2831 
Q 3344 2578 2956 2516 
Q 3422 2416 3680 2098 
Q 3938 1781 3938 1306 
Q 3938 681 3513 340 
Q 3088 0 2303 0 
L 628 0 
L 628 4666 
z
" id="DejaVuSans-42" transform="scale(0.015625)"/>
       <path d="M 3122 3366 
L 3122 2828 
Q 2878 2963 2633 3030 
Q 2388 3097 2138 3097 
Q 1578 3097 1268 2742 
Q 959 2388 959 1747 
Q 959 1106 1268 751 
Q 1578 397 2138 397 
Q 2388 397 2633 464 
Q 2878 531 3122 666 
L 3122 134 
Q 2881 22 2623 -34 
Q 2366 -91 2075 -91 
Q 1284 -91 818 406 
Q 353 903 353 1747 
Q 353 2603 823 3093 
Q 1294 3584 2113 3584 
Q 2378 3584 2631 3529 
Q 2884 3475 3122 3366 
z
" id="DejaVuSans-63" transform="scale(0.015625)"/>
       <path d="M 2188 4044 
L 1331 1722 
L 3047 1722 
L 2188 4044 
z
M 1831 4666 
L 2547 4666 
L 4325 0 
L 3669 0 
L 3244 1197 
L 1141 1197 
L 716 0 
L 50 0 
L 1831 4666 
z
" id="DejaVuSans-41" transform="scale(0.015625)"/>
       <path d="M 556 4666 
L 1191 4666 
L 1191 1831 
Q 1191 1081 1462 751 
Q 1734 422 2344 422 
Q 2950 422 3222 751 
Q 3494 1081 3494 1831 
L 3494 4666 
L 4128 4666 
L 4128 1753 
Q 4128 841 3676 375 
Q 3225 -91 2344 -91 
Q 1459 -91 1007 375 
Q 556 841 556 1753 
L 556 4666 
z
" id="DejaVuSans-55" transform="scale(0.015625)"/>
       <path d="M 678 2906 
L 4684 2906 
L 4684 2381 
L 678 2381 
L 678 2906 
z
M 678 1631 
L 4684 1631 
L 4684 1100 
L 678 1100 
L 678 1631 
z
" id="DejaVuSans-3d" transform="scale(0.015625)"/>
       <path d="M 525 4666 
L 3525 4666 
L 3525 4397 
L 1831 0 
L 1172 0 
L 2766 4134 
L 525 4134 
L 525 4666 
z
" id="DejaVuSans-37" transform="scale(0.015625)"/>
      </defs>
      <use xlink:href="#DejaVuSans-58"/>
      <use x="68.505859" xlink:href="#DejaVuSans-47"/>
      <use x="145.996094" xlink:href="#DejaVuSans-42"/>
      <use x="214.599609" xlink:href="#DejaVuSans-6f"/>
      <use x="275.78125" xlink:href="#DejaVuSans-6f"/>
      <use x="336.962891" xlink:href="#DejaVuSans-73"/>
      <use x="389.0625" xlink:href="#DejaVuSans-74"/>
      <use x="428.271484" xlink:href="#DejaVuSans-20"/>
      <use x="460.058594" xlink:href="#DejaVuSans-72"/>
      <use x="498.921875" xlink:href="#DejaVuSans-65"/>
      <use x="560.445312" xlink:href="#DejaVuSans-64"/>
      <use x="623.921875" xlink:href="#DejaVuSans-75"/>
      <use x="687.300781" xlink:href="#DejaVuSans-63"/>
      <use x="742.28125" xlink:href="#DejaVuSans-65"/>
      <use x="803.804688" xlink:href="#DejaVuSans-64"/>
      <use x="867.28125" xlink:href="#DejaVuSans-20"/>
      <use x="899.068359" xlink:href="#DejaVuSans-28"/>
      <use x="938.082031" xlink:href="#DejaVuSans-41"/>
      <use x="1006.490234" xlink:href="#DejaVuSans-55"/>
      <use x="1079.683594" xlink:href="#DejaVuSans-43"/>
      <use x="1149.507812" xlink:href="#DejaVuSans-20"/>
      <use x="1181.294922" xlink:href="#DejaVuSans-3d"/>
      <use x="1265.083984" xlink:href="#DejaVuSans-20"/>
      <use x="1296.871094" xlink:href="#DejaVuSans-30"/>
      <use x="1360.494141" xlink:href="#DejaVuSans-2e"/>
      <use x="1392.28125" xlink:href="#DejaVuSans-37"/>
      <use x="1455.904297" xlink:href="#DejaVuSans-36"/>
      <use x="1519.527344" xlink:href="#DejaVuSans-29"/>
     </g>
    </g>
    <g id="line2d_17">
     <path d="M 185.726562 333.898437 
L 205.726562 333.898437 
" style="fill:none;stroke:#ff7f0e;stroke-dasharray:1.5,3,1.5;stroke-dashoffset:0;stroke-width:1.5;"/>
    </g>
    <g id="line2d_18"/>
    <g id="text_17">
     <!-- Random baseline (AUC = 0.50) -->
     <g transform="translate(213.726562 337.398437)scale(0.1 -0.1)">
      <defs>
       <path d="M 3328 2828 
Q 3544 3216 3844 3400 
Q 4144 3584 4550 3584 
Q 5097 3584 5394 3201 
Q 5691 2819 5691 2113 
L 5691 0 
L 5113 0 
L 5113 2094 
Q 5113 2597 4934 2840 
Q 4756 3084 4391 3084 
Q 3944 3084 3684 2787 
Q 3425 2491 3425 1978 
L 3425 0 
L 2847 0 
L 2847 2094 
Q 2847 2600 2669 2842 
Q 2491 3084 2119 3084 
Q 1678 3084 1418 2786 
Q 1159 2488 1159 1978 
L 1159 0 
L 581 0 
L 581 3500 
L 1159 3500 
L 1159 2956 
Q 1356 3278 1631 3431 
Q 1906 3584 2284 3584 
Q 2666 3584 2933 3390 
Q 3200 3197 3328 2828 
z
" id="DejaVuSans-6d" transform="scale(0.015625)"/>
       <path d="M 691 4666 
L 3169 4666 
L 3169 4134 
L 1269 4134 
L 1269 2991 
Q 1406 3038 1543 3061 
Q 1681 3084 1819 3084 
Q 2600 3084 3056 2656 
Q 3513 2228 3513 1497 
Q 3513 744 3044 326 
Q 2575 -91 1722 -91 
Q 1428 -91 1123 -41 
Q 819 9 494 109 
L 494 744 
Q 775 591 1075 516 
Q 1375 441 1709 441 
Q 2250 441 2565 725 
Q 2881 1009 2881 1497 
Q 2881 1984 2565 2268 
Q 2250 2553 1709 2553 
Q 1456 2553 1204 2497 
Q 953 2441 691 2322 
L 691 4666 
z
" id="DejaVuSans-35" transform="scale(0.015625)"/>
      </defs>
      <use xlink:href="#DejaVuSans-52"/>
      <use x="67.232422" xlink:href="#DejaVuSans-61"/>
      <use x="128.511719" xlink:href="#DejaVuSans-6e"/>
      <use x="191.890625" xlink:href="#DejaVuSans-64"/>
      <use x="255.367188" xlink:href="#DejaVuSans-6f"/>
      <use x="316.548828" xlink:href="#DejaVuSans-6d"/>
      <use x="413.960938" xlink:href="#DejaVuSans-20"/>
      <use x="445.748047" xlink:href="#DejaVuSans-62"/>
      <use x="509.224609" xlink:href="#DejaVuSans-61"/>
      <use x="570.503906" xlink:href="#DejaVuSans-73"/>
      <use x="622.603516" xlink:href="#DejaVuSans-65"/>
      <use x="684.126953" xlink:href="#DejaVuSans-6c"/>
      <use x="711.910156" xlink:href="#DejaVuSans-69"/>
      <use x="739.693359" xlink:href="#DejaVuSans-6e"/>
      <use x="803.072266" xlink:href="#DejaVuSans-65"/>
      <use x="864.595703" xlink:href="#DejaVuSans-20"/>
      <use x="896.382812" xlink:href="#DejaVuSans-28"/>
      <use x="935.396484" xlink:href="#DejaVuSans-41"/>
      <use x="1003.804688" xlink:href="#DejaVuSans-55"/>
      <use x="1076.998047" xlink:href="#DejaVuSans-43"/>
      <use x="1146.822266" xlink:href="#DejaVuSans-20"/>
      <use x="1178.609375" xlink:href="#DejaVuSans-3d"/>
      <use x="1262.398438" xlink:href="#DejaVuSans-20"/>
      <use x="1294.185547" xlink:href="#DejaVuSans-30"/>
      <use x="1357.808594" xlink:href="#DejaVuSans-2e"/>
      <use x="1389.595703" xlink:href="#DejaVuSans-35"/>
      <use x="1453.21875" xlink:href="#DejaVuSans-30"/>
      <use x="1516.841797" xlink:href="#DejaVuSans-29"/>
     </g>
    </g>
   </g>
  </g>
 </g>
 <defs>
  <clipPath id="p6d2c51ba5b">
   <rect height="326.16" width="334.8" x="43.78125" y="22.318125"/>
  </clipPath>
 </defs>
</svg>
